<svg width="32" height="32" viewBox="0 0 32 32" fill="none" xmlns="http://www.w3.org/2000/svg">
<g id="google">
<path id="bg" d="M32 5C32 2.23858 29.7614 0 27 0H5C2.23858 0 0 2.23858 0 5V27C0 29.7614 2.23858 32 5 32H27C29.7614 32 32 29.7614 32 27V5Z" fill="white"/>
<path id="google_2" fill-rule="evenodd" clip-rule="evenodd" d="M23.8299 16.1823C23.8299 15.615 23.779 15.0695 23.6845 14.5459H16.1499V17.6405H20.4554C20.2699 18.6405 19.7063 19.4877 18.859 20.055V22.0623H21.4445C22.9572 20.6695 23.8299 18.6186 23.8299 16.1823Z" fill="#4285F4"/>
<path id="google_3" fill-rule="evenodd" clip-rule="evenodd" d="M16.1496 23.9995C18.3096 23.9995 20.1205 23.2832 21.4442 22.0614L18.8587 20.0541C18.1423 20.5341 17.226 20.8177 16.1496 20.8177C14.066 20.8177 12.3023 19.4104 11.6732 17.5195H9.00049V19.5923C10.3169 22.2068 13.0223 23.9995 16.1496 23.9995Z" fill="#34A853"/>
<path id="google_4" fill-rule="evenodd" clip-rule="evenodd" d="M11.6735 17.52C11.5135 17.04 11.4226 16.5272 11.4226 16C11.4226 15.4727 11.5135 14.96 11.6735 14.48V12.4072H9.00081C8.45899 13.4872 8.1499 14.709 8.1499 16C8.1499 17.2909 8.45899 18.5127 9.00081 19.5927L11.6735 17.52Z" fill="#FBBC05"/>
<path id="google_5" fill-rule="evenodd" clip-rule="evenodd" d="M16.1496 11.1818C17.3241 11.1818 18.3787 11.5855 19.2078 12.3782L21.5023 10.0836C20.1169 8.79273 18.306 8 16.1496 8C13.0223 8 10.3169 9.79273 9.00049 12.4073L11.6732 14.48C12.3023 12.5891 14.066 11.1818 16.1496 11.1818Z" fill="#EA4335"/>
</g>
</svg>
