<svg width="32" height="32" viewBox="0 0 32 32" fill="none" xmlns="http://www.w3.org/2000/svg">
<g id="Social Icons / Instagram">
<rect width="32" height="32" rx="4" fill="url(#paint0_linear_676_16959)"/>
<g id="Vector">
<path d="M13.1889 16.0976C13.1889 14.4892 14.4932 13.185 16.1026 13.185C17.712 13.185 19.017 14.4892 19.017 16.0976C19.017 17.706 17.712 19.0103 16.1026 19.0103C14.4932 19.0103 13.1889 17.706 13.1889 16.0976ZM11.6134 16.0976C11.6134 18.5755 13.6232 20.5841 16.1026 20.5841C18.582 20.5841 20.5918 18.5755 20.5918 16.0976C20.5918 13.6197 18.582 11.6111 16.1026 11.6111C13.6232 11.6111 11.6134 13.6197 11.6134 16.0976ZM19.7204 11.4332C19.7203 11.6406 19.7818 11.8433 19.897 12.0158C20.0122 12.1883 20.176 12.3227 20.3676 12.4022C20.5593 12.4816 20.7702 12.5024 20.9738 12.4621C21.1773 12.4217 21.3643 12.3219 21.511 12.1753C21.6578 12.0288 21.7578 11.842 21.7984 11.6386C21.8389 11.4353 21.8182 11.2244 21.7389 11.0328C21.6596 10.8412 21.5252 10.6774 21.3527 10.5621C21.1802 10.4468 20.9774 10.3853 20.7699 10.3852H20.7695C20.4914 10.3853 20.2247 10.4958 20.028 10.6923C19.8313 10.8888 19.7206 11.1553 19.7204 11.4332ZM12.5706 23.2095C11.7183 23.1707 11.255 23.0289 10.9471 22.909C10.539 22.7502 10.2477 22.561 9.94153 22.2554C9.63533 21.9498 9.44579 21.6591 9.28759 21.2511C9.16757 20.9436 9.02559 20.4804 8.98684 19.6286C8.94446 18.7076 8.936 18.431 8.936 16.0977C8.936 13.7644 8.94516 13.4885 8.98684 12.5668C9.02566 11.7149 9.16869 11.2527 9.28759 10.9442C9.44649 10.5363 9.63575 10.2453 9.94153 9.93924C10.2473 9.63323 10.5383 9.44381 10.9471 9.2857C11.2549 9.16575 11.7183 9.02386 12.5706 8.98513C13.4922 8.94278 13.769 8.93432 16.1026 8.93432C18.4362 8.93432 18.7133 8.94347 19.6356 8.98513C20.488 9.02393 20.9505 9.16687 21.2592 9.2857C21.6673 9.44381 21.9586 9.63365 22.2648 9.93924C22.571 10.2448 22.7598 10.5363 22.9187 10.9442C23.0387 11.2518 23.1807 11.7149 23.2194 12.5668C23.2618 13.4885 23.2703 13.7644 23.2703 16.0977C23.2703 18.431 23.2618 18.7068 23.2194 19.6286C23.1806 20.4804 23.0379 20.9434 22.9187 21.2511C22.7598 21.6591 22.5705 21.9501 22.2648 22.2554C21.959 22.5607 21.6673 22.7502 21.2592 22.909C20.9514 23.0289 20.488 23.1708 19.6356 23.2095C18.7141 23.2519 18.4373 23.2604 16.1026 23.2604C13.7679 23.2604 13.4919 23.2519 12.5706 23.2095ZM12.4983 7.41326C11.5676 7.45562 10.9316 7.60311 10.3762 7.81909C9.80102 8.04214 9.31409 8.34137 8.82752 8.82688C8.34095 9.3124 8.0423 9.7998 7.81912 10.3746C7.60301 10.93 7.45544 11.5653 7.41305 12.4954C7.36997 13.427 7.36011 13.7249 7.36011 16.0976C7.36011 18.4704 7.36997 18.7682 7.41305 19.6998C7.45544 20.63 7.60301 21.2652 7.81912 21.8206C8.0423 22.3951 8.34102 22.883 8.82752 23.3684C9.31402 23.8537 9.80102 24.1525 10.3762 24.3761C10.9326 24.5921 11.5676 24.7396 12.4983 24.782C13.4309 24.8243 13.7284 24.8349 16.1026 24.8349C18.4768 24.8349 18.7748 24.825 19.707 24.782C20.6377 24.7396 21.2733 24.5921 21.829 24.3761C22.4039 24.1525 22.8911 23.8539 23.3777 23.3684C23.8643 22.8828 24.1623 22.3951 24.3861 21.8206C24.6022 21.2652 24.7505 20.63 24.7922 19.6998C24.8346 18.7675 24.8444 18.4704 24.8444 16.0976C24.8444 13.7249 24.8346 13.427 24.7922 12.4954C24.7498 11.5652 24.6022 10.9297 24.3861 10.3746C24.1623 9.80015 23.8635 9.31317 23.3777 8.82688C22.8919 8.3406 22.4039 8.04214 21.8297 7.81909C21.2733 7.60311 20.6377 7.45492 19.7077 7.41326C18.7755 7.37091 18.4775 7.36035 16.1033 7.36035C13.7291 7.36035 13.4309 7.37021 12.4983 7.41326Z" fill="white"/>
<path d="M13.1889 16.0976C13.1889 14.4892 14.4932 13.185 16.1026 13.185C17.712 13.185 19.017 14.4892 19.017 16.0976C19.017 17.706 17.712 19.0103 16.1026 19.0103C14.4932 19.0103 13.1889 17.706 13.1889 16.0976ZM11.6134 16.0976C11.6134 18.5755 13.6232 20.5841 16.1026 20.5841C18.582 20.5841 20.5918 18.5755 20.5918 16.0976C20.5918 13.6197 18.582 11.6111 16.1026 11.6111C13.6232 11.6111 11.6134 13.6197 11.6134 16.0976ZM19.7204 11.4332C19.7203 11.6406 19.7818 11.8433 19.897 12.0158C20.0122 12.1883 20.176 12.3227 20.3676 12.4022C20.5593 12.4816 20.7702 12.5024 20.9738 12.4621C21.1773 12.4217 21.3643 12.3219 21.511 12.1753C21.6578 12.0288 21.7578 11.842 21.7984 11.6386C21.8389 11.4353 21.8182 11.2244 21.7389 11.0328C21.6596 10.8412 21.5252 10.6774 21.3527 10.5621C21.1802 10.4468 20.9774 10.3853 20.7699 10.3852H20.7695C20.4914 10.3853 20.2247 10.4958 20.028 10.6923C19.8313 10.8888 19.7206 11.1553 19.7204 11.4332ZM12.5706 23.2095C11.7183 23.1707 11.255 23.0289 10.9471 22.909C10.539 22.7502 10.2477 22.561 9.94153 22.2554C9.63533 21.9498 9.44579 21.6591 9.28759 21.2511C9.16757 20.9436 9.02559 20.4804 8.98684 19.6286C8.94446 18.7076 8.936 18.431 8.936 16.0977C8.936 13.7644 8.94516 13.4885 8.98684 12.5668C9.02566 11.7149 9.16869 11.2527 9.28759 10.9442C9.44649 10.5363 9.63575 10.2453 9.94153 9.93924C10.2473 9.63323 10.5383 9.44381 10.9471 9.2857C11.2549 9.16575 11.7183 9.02386 12.5706 8.98513C13.4922 8.94278 13.769 8.93432 16.1026 8.93432C18.4362 8.93432 18.7133 8.94347 19.6356 8.98513C20.488 9.02393 20.9505 9.16687 21.2592 9.2857C21.6673 9.44381 21.9586 9.63365 22.2648 9.93924C22.571 10.2448 22.7598 10.5363 22.9187 10.9442C23.0387 11.2518 23.1807 11.7149 23.2194 12.5668C23.2618 13.4885 23.2703 13.7644 23.2703 16.0977C23.2703 18.431 23.2618 18.7068 23.2194 19.6286C23.1806 20.4804 23.0379 20.9434 22.9187 21.2511C22.7598 21.6591 22.5705 21.9501 22.2648 22.2554C21.959 22.5607 21.6673 22.7502 21.2592 22.909C20.9514 23.0289 20.488 23.1708 19.6356 23.2095C18.7141 23.2519 18.4373 23.2604 16.1026 23.2604C13.7679 23.2604 13.4919 23.2519 12.5706 23.2095ZM12.4983 7.41326C11.5676 7.45562 10.9316 7.60311 10.3762 7.81909C9.80102 8.04214 9.31409 8.34137 8.82752 8.82688C8.34095 9.3124 8.0423 9.7998 7.81912 10.3746C7.60301 10.93 7.45544 11.5653 7.41305 12.4954C7.36997 13.427 7.36011 13.7249 7.36011 16.0976C7.36011 18.4704 7.36997 18.7682 7.41305 19.6998C7.45544 20.63 7.60301 21.2652 7.81912 21.8206C8.0423 22.3951 8.34102 22.883 8.82752 23.3684C9.31402 23.8537 9.80102 24.1525 10.3762 24.3761C10.9326 24.5921 11.5676 24.7396 12.4983 24.782C13.4309 24.8243 13.7284 24.8349 16.1026 24.8349C18.4768 24.8349 18.7748 24.825 19.707 24.782C20.6377 24.7396 21.2733 24.5921 21.829 24.3761C22.4039 24.1525 22.8911 23.8539 23.3777 23.3684C23.8643 22.8828 24.1623 22.3951 24.3861 21.8206C24.6022 21.2652 24.7505 20.63 24.7922 19.6998C24.8346 18.7675 24.8444 18.4704 24.8444 16.0976C24.8444 13.7249 24.8346 13.427 24.7922 12.4954C24.7498 11.5652 24.6022 10.9297 24.3861 10.3746C24.1623 9.80015 23.8635 9.31317 23.3777 8.82688C22.8919 8.3406 22.4039 8.04214 21.8297 7.81909C21.2733 7.60311 20.6377 7.45492 19.7077 7.41326C18.7755 7.37091 18.4775 7.36035 16.1033 7.36035C13.7291 7.36035 13.4309 7.37021 12.4983 7.41326Z" fill="white"/>
</g>
</g>
<defs>
<linearGradient id="paint0_linear_676_16959" x1="31.385" y1="32" x2="-0.615039" y2="-8.6135e-07" gradientUnits="userSpaceOnUse">
<stop stop-color="#FBE18A"/>
<stop offset="0.21" stop-color="#FCBB45"/>
<stop offset="0.38" stop-color="#F75274"/>
<stop offset="0.52" stop-color="#D53692"/>
<stop offset="0.74" stop-color="#8F39CE"/>
<stop offset="1" stop-color="#5B4FE9"/>
</linearGradient>
</defs>
</svg>
