<svg width="32" height="32" viewBox="0 0 32 32" fill="none" xmlns="http://www.w3.org/2000/svg">
<g id="Social Icons / Linkedin">
<rect width="32" height="32" rx="4" fill="#006699"/>
<path id="Vector" fill-rule="evenodd" clip-rule="evenodd" d="M8.65199 7.36035C7.93872 7.36035 7.36011 7.92135 7.36011 8.61249V23.5886C7.36011 24.2798 7.93879 24.8404 8.65199 24.8404H23.5482C24.2618 24.8404 24.8401 24.2798 24.8401 23.5884V8.61249C24.8401 7.92135 24.2618 7.36035 23.5482 7.36035H8.65199ZM12.672 14.1193V21.9889H10.0563V14.1193H12.672ZM12.8444 11.6856C12.8444 12.4407 12.2766 13.045 11.3647 13.045L11.3475 13.045C10.4696 13.045 9.90207 12.4407 9.90207 11.6855C9.90207 10.9132 10.4868 10.3257 11.382 10.3257C12.2766 10.3257 12.8273 10.9132 12.8444 11.6856ZM16.7353 21.9889H14.1198C14.1198 21.9889 14.1541 14.8578 14.1199 14.1196H16.7355V15.2335C17.0832 14.6974 17.7055 13.9348 19.0929 13.9348C20.8138 13.9348 22.1041 15.0596 22.1041 17.4767V21.9889H19.4886V17.7793C19.4886 16.7213 19.1099 15.9997 18.1636 15.9997C17.4409 15.9997 17.0105 16.4863 16.8215 16.9565C16.7524 17.1242 16.7353 17.3597 16.7353 17.5946V21.9889Z" fill="white"/>
</g>
</svg>
