<svg width="32" height="32" viewBox="0 0 32 32" fill="none" xmlns="http://www.w3.org/2000/svg">
<g id="Social Icons / Twitter">
<rect width="32" height="32" rx="4" fill="#33CCFF"/>
<path id="Vector" d="M23.9414 10.8977C23.413 11.1251 22.8575 11.2835 22.2887 11.3689C22.5546 11.3233 22.9459 10.8446 23.1017 10.6508C23.3384 10.3585 23.5187 10.0249 23.6336 9.66678C23.6336 9.64018 23.6602 9.60219 23.6336 9.58319C23.6202 9.57588 23.6052 9.57204 23.5899 9.57204C23.5747 9.57204 23.5596 9.57588 23.5462 9.58319C22.9285 9.91769 22.2711 10.173 21.5896 10.3431C21.5658 10.3503 21.5406 10.351 21.5165 10.3449C21.4924 10.3389 21.4704 10.3264 21.4528 10.3089C21.3998 10.2457 21.3427 10.186 21.2819 10.1303C21.0039 9.88123 20.6885 9.67738 20.3472 9.5262C19.8866 9.33722 19.389 9.25537 18.8921 9.28685C18.4099 9.3173 17.9392 9.44662 17.5092 9.66678C17.0857 9.89888 16.7135 10.2142 16.415 10.5938C16.1009 10.9845 15.8742 11.4379 15.7501 11.9236C15.6477 12.3855 15.6361 12.8629 15.7159 13.3293C15.7159 13.4091 15.7159 13.4205 15.6475 13.4091C12.9386 13.0102 10.716 12.0489 8.89995 9.98592C8.82017 9.89473 8.77837 9.89473 8.71379 9.98592C7.92353 11.1865 8.30726 13.0861 9.29508 14.0246C9.42805 14.1499 9.56483 14.2715 9.7092 14.3855C9.25629 14.3533 8.81445 14.2306 8.40984 14.0246C8.33386 13.9752 8.29206 14.0018 8.28826 14.093C8.27749 14.2194 8.27749 14.3465 8.28826 14.4729C8.36754 15.0787 8.6063 15.6526 8.98012 16.1359C9.35394 16.6192 9.84941 16.9946 10.4159 17.2236C10.554 17.2827 10.6978 17.3273 10.8452 17.3566C10.4259 17.4391 9.99588 17.4519 9.57243 17.3945C9.48124 17.3755 9.44705 17.4249 9.48124 17.5123C10.0397 19.032 11.2517 19.4956 12.1407 19.7539C12.2623 19.7729 12.3839 19.7729 12.5207 19.8033C12.5207 19.8033 12.5207 19.8033 12.4979 19.8261C12.2357 20.3048 11.1757 20.6277 10.6894 20.7949C9.80178 21.1137 8.85539 21.2356 7.91593 21.152C7.76776 21.1293 7.73357 21.133 7.69557 21.152C7.65758 21.171 7.69557 21.2128 7.73737 21.2508C7.92733 21.3762 8.1173 21.4864 8.31486 21.5928C8.90301 21.9136 9.5248 22.1684 10.1689 22.3526C13.5047 23.2721 17.2584 22.5958 19.7621 20.1072C21.7302 18.1544 22.4216 15.4607 22.4216 12.7632C22.4216 12.6606 22.547 12.5998 22.6192 12.5466C23.1171 12.1587 23.5561 11.7005 23.9224 11.1865C23.9858 11.1099 24.0183 11.0123 24.0135 10.9129C24.0135 10.856 24.0135 10.8674 23.9414 10.8977Z" fill="white"/>
</g>
</svg>
