<svg width="32" height="32" viewBox="0 0 32 32" fill="none" xmlns="http://www.w3.org/2000/svg">
<g id="Social Icons / Whatsapp">
<rect width="32" height="32" rx="4" fill="#00D95F"/>
<g id="Vector">
<path d="M8 23.3604L9.14796 19.0957C8.22216 17.4345 7.92802 15.4959 8.31953 13.6357C8.71103 11.7756 9.76192 10.1187 11.2793 8.96901C12.7968 7.81934 14.6789 7.25405 16.5805 7.37687C18.4821 7.49969 20.2754 8.30238 21.6315 9.63764C22.9876 10.9729 23.8155 12.7512 23.9632 14.6462C24.111 16.5411 23.5686 18.4257 22.4358 19.954C21.3029 21.4823 19.6555 22.5519 17.7958 22.9664C15.9362 23.381 13.989 23.1127 12.3116 22.2108L8 23.3604ZM12.5195 20.615L12.7862 20.7727C14.0011 21.491 15.4202 21.7883 16.8222 21.6181C18.2242 21.448 19.5304 20.8201 20.5372 19.8322C21.544 18.8442 22.195 17.5519 22.3886 16.1564C22.5821 14.761 22.3075 13.3409 21.6075 12.1174C20.9074 10.8939 19.8212 9.93573 18.5182 9.39225C17.2152 8.84877 15.7686 8.75048 14.4038 9.11271C13.0389 9.47494 11.8325 10.2773 10.9726 11.3948C10.1127 12.5124 9.64754 13.8822 9.64963 15.291C9.64849 16.459 9.97236 17.6045 10.5852 18.5999L10.7524 18.8748L10.1106 21.2551L12.5195 20.615Z" fill="white"/>
<path fill-rule="evenodd" clip-rule="evenodd" d="M18.9914 16.386C18.8351 16.2602 18.652 16.1717 18.4562 16.1272C18.2604 16.0827 18.057 16.0833 17.8615 16.129C17.5677 16.2508 17.3779 16.7106 17.1881 16.9405C17.1481 16.9956 17.0893 17.0343 17.0227 17.0492C16.9561 17.0641 16.8864 17.0543 16.8265 17.0216C15.751 16.6015 14.8495 15.8309 14.2685 14.8352C14.2189 14.7731 14.1955 14.6942 14.203 14.6152C14.2106 14.5361 14.2487 14.4631 14.3092 14.4115C14.5209 14.2024 14.6763 13.9435 14.7611 13.6586C14.7799 13.3444 14.7078 13.0314 14.5532 12.757C14.4337 12.3723 14.2063 12.0297 13.8979 11.7698C13.7388 11.6984 13.5624 11.6745 13.39 11.7009C13.2176 11.7273 13.0565 11.8028 12.9262 11.9185C12.7 12.1132 12.5204 12.356 12.4007 12.6291C12.2811 12.9021 12.2243 13.1985 12.2347 13.4963C12.2354 13.6636 12.2566 13.8301 12.298 13.9922C12.4029 14.3817 12.5643 14.7538 12.777 15.0967C12.9305 15.3594 13.098 15.6137 13.2787 15.8586C13.866 16.6628 14.6043 17.3456 15.4526 17.8691C15.8783 18.1352 16.3332 18.3515 16.8085 18.5138C17.3021 18.737 17.8472 18.8227 18.3858 18.7617C18.6926 18.7154 18.9834 18.5946 19.2324 18.4098C19.4815 18.2251 19.6812 17.9821 19.814 17.7023C19.892 17.5333 19.9157 17.3444 19.8817 17.1614C19.8004 16.7872 19.2987 16.5663 18.9914 16.386Z" fill="white"/>
</g>
</g>
</svg>
