<svg width="576" height="646" viewBox="0 0 576 646" fill="none" xmlns="http://www.w3.org/2000/svg">
<g filter="url(#filter0_dddd_5314_52069)">
<path d="M257.587 127.43H249.237L245.062 120.273L249.237 113.116H257.587L261.642 120.273L257.587 127.43Z" fill="white"/>
<path d="M241.96 136.494H233.73L229.555 129.218L233.73 122.061H241.96L246.135 129.218L241.96 136.494Z" fill="white"/>
<path d="M257.587 145.442H249.237L245.062 138.285L249.237 131.009H257.587L261.642 138.285L257.587 145.442Z" fill="white"/>
<path d="M273.093 136.494H264.862L260.688 129.218L264.862 122.061H273.093L277.268 129.218L273.093 136.494Z" fill="white"/>
<path d="M273.093 118.484H264.862L260.688 111.327L264.862 104.051H273.093L277.268 111.327L273.093 118.484Z" fill="white"/>
<path d="M257.587 109.535H249.237L245.062 102.259L249.237 95.1021H257.587L261.642 102.259L257.587 109.535Z" fill="white"/>
<path d="M241.96 118.484H233.73L229.555 111.327L233.73 104.051H241.96L246.135 111.327L241.96 118.484Z" fill="white"/>
<path d="M226.454 145.442H218.105L213.93 138.285L218.105 131.009H226.454L230.51 138.285L226.454 145.442Z" fill="white"/>
<path d="M241.96 154.385H233.73L229.555 147.229L233.73 140.072H241.96L246.135 147.229L241.96 154.385Z" fill="white"/>
<path d="M257.587 163.451H249.237L245.062 156.175L249.237 149.018H257.587L261.642 156.175L257.587 163.451Z" fill="white"/>
<path d="M273.093 154.385H264.862L260.688 147.229L264.862 140.072H273.093L277.268 147.229L273.093 154.385Z" fill="white"/>
<path d="M288.72 145.442H280.37L276.195 138.285L280.37 131.009H288.72L292.895 138.285L288.72 145.442Z" fill="white"/>
<path d="M288.72 127.43H280.37L276.195 120.273L280.37 113.116H288.72L292.895 120.273L288.72 127.43Z" fill="white"/>
<path d="M288.72 109.535H280.37L276.195 102.259L280.37 95.1021H288.72L292.895 102.259L288.72 109.535Z" fill="white"/>
<path d="M273.093 100.471H264.862L260.688 93.3139L264.862 86.1571H273.093L277.268 93.3139L273.093 100.471Z" fill="white"/>
<path d="M257.587 91.5245H249.237L245.062 84.3677L249.237 77.0916H257.587L261.642 84.3677L257.587 91.5245Z" fill="white"/>
<path d="M241.96 100.471H233.73L229.555 93.3139L233.73 86.1571H241.96L246.135 93.3139L241.96 100.471Z" fill="white"/>
<path d="M226.454 109.535H218.105L213.93 102.259L218.105 95.1021H226.454L230.51 102.259L226.454 109.535Z" fill="white"/>
<path d="M226.454 127.43H218.105L213.93 120.273L218.105 113.116H226.454L230.51 120.273L226.454 127.43Z" fill="white"/>
<path d="M210.827 154.385H202.597L198.422 147.229L202.597 140.072H210.827L215.002 147.229L210.827 154.385Z" fill="white"/>
<path d="M226.454 163.451H218.105L213.93 156.175L218.105 149.018H226.454L230.51 156.175L226.454 163.451Z" fill="white"/>
<path d="M241.96 172.399H233.73L229.555 165.243L233.73 158.086H241.96L246.135 165.243L241.96 172.399Z" fill="white"/>
<path d="M257.587 181.344H249.237L245.062 174.188L249.237 167.031H257.587L261.642 174.188L257.587 181.344Z" fill="white"/>
<path d="M273.093 172.399H264.862L260.688 165.243L264.862 158.086H273.093L277.268 165.243L273.093 172.399Z" fill="white"/>
<path d="M288.72 163.451H280.37L276.195 156.175L280.37 149.018H288.72L292.895 156.175L288.72 163.451Z" fill="white"/>
<path d="M304.225 154.385H295.995L291.82 147.229L295.995 140.072H304.225L308.4 147.229L304.225 154.385Z" fill="white"/>
<path d="M304.225 136.494H295.995L291.82 129.218L295.995 122.061H304.225L308.4 129.218L304.225 136.494Z" fill="white"/>
<path d="M304.225 118.484H295.995L291.82 111.327L295.995 104.051H304.225L308.4 111.327L304.225 118.484Z" fill="#FC670B"/>
<path d="M304.225 100.471H295.995L291.82 93.3139L295.995 86.1571H304.225L308.4 93.3139L304.225 100.471Z" fill="white"/>
<path d="M288.72 91.5245H280.37L276.195 84.3677L280.37 77.0916H288.72L292.895 84.3677L288.72 91.5245Z" fill="white"/>
<path d="M273.093 82.5795H264.862L260.688 75.3034L264.862 68.1465H273.093L277.268 75.3034L273.093 82.5795Z" fill="white"/>
<path d="M257.587 73.514H249.237L245.062 66.3572L249.237 59.2003H257.587L261.642 66.3572L257.587 73.514Z" fill="white"/>
<path d="M241.96 82.5795H233.73L229.555 75.3034L233.73 68.1465H241.96L246.135 75.3034L241.96 82.5795Z" fill="white"/>
<path d="M226.454 91.5245H218.105L213.93 84.3677L218.105 77.0916H226.454L230.51 84.3677L226.454 91.5245Z" fill="white"/>
<path d="M210.827 100.471H202.597L198.422 93.3139L202.597 86.1571H210.827L215.002 93.3139L210.827 100.471Z" fill="white"/>
<path d="M210.827 118.484H202.597L198.422 111.327L202.597 104.051H210.827L215.002 111.327L210.827 118.484Z" fill="white"/>
<path d="M210.827 136.494H202.597L198.422 129.218L202.597 122.061H210.827L215.002 129.218L210.827 136.494Z" fill="white"/>
<path d="M195.321 163.451H186.972L182.797 156.175L186.972 149.018H195.321L199.377 156.175L195.321 163.451Z" fill="white"/>
<path d="M210.827 172.399H202.597L198.422 165.243L202.597 158.086H210.827L215.002 165.243L210.827 172.399Z" fill="white"/>
<path d="M226.454 181.344H218.105L213.93 174.188L218.105 167.031H226.454L230.51 174.188L226.454 181.344Z" fill="white"/>
<path d="M241.96 190.41H233.73L229.555 183.253L233.73 175.977H241.96L246.135 183.253L241.96 190.41Z" fill="#FC670B"/>
<path d="M257.587 199.356H249.237L245.062 192.199L249.237 185.043H257.587L261.642 192.199L257.587 199.356Z" fill="white"/>
<path d="M273.093 190.41H264.862L260.688 183.253L264.862 175.977H273.093L277.268 183.253L273.093 190.41Z" fill="white"/>
<path d="M288.72 181.344H280.37L276.195 174.188L280.37 167.031H288.72L292.895 174.188L288.72 181.344Z" fill="white"/>
<path d="M304.225 172.399H295.995L291.82 165.243L295.995 158.086H304.225L308.4 165.243L304.225 172.399Z" fill="#FC670B"/>
<path d="M319.853 163.451H311.503L307.328 156.175L311.503 149.018H319.853L324.027 156.175L319.853 163.451Z" fill="white"/>
<path d="M319.853 145.442H311.503L307.328 138.285L311.503 131.009H319.853L324.027 138.285L319.853 145.442Z" fill="white"/>
<path d="M319.853 127.43H311.503L307.328 120.273L311.503 113.116H319.853L324.027 120.273L319.853 127.43Z" fill="white"/>
<path d="M319.853 109.535H311.503L307.328 102.259L311.503 95.1021H319.853L324.027 102.259L319.853 109.535Z" fill="white"/>
<path d="M319.853 91.5245H311.503L307.328 84.3677L311.503 77.0916H319.853L324.027 84.3677L319.853 91.5245Z" fill="white"/>
<path d="M304.225 82.5795H295.995L291.82 75.3034L295.995 68.1465H304.225L308.4 75.3034L304.225 82.5795Z" fill="white"/>
<path d="M288.718 73.514H280.368L276.312 66.3572L280.368 59.2003H288.718L292.773 66.3572L288.718 73.514Z" fill="white"/>
<path d="M273.091 64.4497H264.86L260.805 57.4121L264.86 50.2553H273.091L277.146 57.4121L273.091 64.4497Z" fill="white"/>
<path d="M257.587 55.5035H249.237L245.062 48.3467L249.237 41.1898H257.587L261.642 48.3467L257.587 55.5035Z" fill="white"/>
<path d="M241.96 64.569H233.73L229.555 57.4122L233.73 50.136H241.96L246.135 57.4122L241.96 64.569Z" fill="white"/>
<path d="M226.454 73.514H218.105L213.93 66.3572L218.105 59.2003H226.454L230.51 66.3572L226.454 73.514Z" fill="white"/>
<path d="M210.827 82.5795H202.597L198.422 75.3034L202.597 68.1465H210.827L215.002 75.3034L210.827 82.5795Z" fill="white"/>
<path d="M195.321 91.5245H186.972L182.797 84.3677L186.972 77.0916H195.321L199.377 84.3677L195.321 91.5245Z" fill="white"/>
<path d="M195.321 109.535H186.972L182.797 102.259L186.972 95.1021H195.321L199.377 102.259L195.321 109.535Z" fill="white"/>
<path d="M195.321 127.43H186.972L182.797 120.273L186.972 113.116H195.321L199.377 120.273L195.321 127.43Z" fill="white"/>
<path d="M195.321 145.442H186.972L182.797 138.285L186.972 131.009H195.321L199.377 138.285L195.321 145.442Z" fill="white"/>
<path d="M179.694 172.399H171.345L167.289 165.243L171.345 158.086H179.694L183.869 165.243L179.694 172.399Z" fill="white"/>
<path d="M195.321 181.344H186.972L182.797 174.188L186.972 167.031H195.321L199.377 174.188L195.321 181.344Z" fill="white"/>
<path d="M210.827 190.41H202.597L198.422 183.253L202.597 175.977H210.827L215.002 183.253L210.827 190.41Z" fill="white"/>
<path d="M226.454 199.356H218.105L213.93 192.199L218.105 185.043H226.454L230.51 192.199L226.454 199.356Z" fill="#FC670B"/>
<path d="M241.96 208.42H233.73L229.555 201.144L233.73 193.988H241.96L246.135 201.144L241.96 208.42Z" fill="white"/>
<path d="M257.587 217.366H249.237L245.062 210.209L249.237 202.933H257.587L261.642 210.209L257.587 217.366Z" fill="white"/>
<path d="M273.093 208.42H264.862L260.688 201.144L264.862 193.988H273.093L277.268 201.144L273.093 208.42Z" fill="white"/>
<path d="M288.72 199.356H280.37L276.195 192.199L280.37 185.043H288.72L292.895 192.199L288.72 199.356Z" fill="white"/>
<path d="M304.225 190.41H295.995L291.82 183.253L295.995 175.977H304.225L308.4 183.253L304.225 190.41Z" fill="white"/>
<path d="M319.853 181.344H311.503L307.328 174.188L311.503 167.031H319.853L324.027 174.188L319.853 181.344Z" fill="white"/>
<path d="M335.358 172.399H327.128L322.953 165.243L327.128 158.086H335.358L339.533 165.243L335.358 172.399Z" fill="white"/>
<path d="M335.358 154.385H327.128L322.953 147.229L327.128 140.072H335.358L339.533 147.229L335.358 154.385Z" fill="white"/>
<path d="M335.358 136.494H327.128L322.953 129.218L327.128 122.061H335.358L339.533 129.218L335.358 136.494Z" fill="white"/>
<path d="M335.358 118.484H327.128L322.953 111.327L327.128 104.051H335.358L339.533 111.327L335.358 118.484Z" fill="white"/>
<path d="M335.358 100.471H327.128L322.953 93.3139L327.128 86.1571H335.358L339.533 93.3139L335.358 100.471Z" fill="white"/>
<path d="M335.358 82.5795H327.128L322.953 75.3034L327.128 68.1465H335.358L339.533 75.3034L335.358 82.5795Z" fill="white"/>
<path d="M319.376 72.9176H311.862L308.164 66.3572L311.862 59.7968H319.376L323.193 66.3572L319.376 72.9176Z" fill="white"/>
<path d="M270.115 41.4271H267.849L266.656 39.3993L267.849 37.3716H270.115L271.308 39.3993L270.115 41.4271Z" fill="white"/>
<path d="M255.915 34.8677H250.786L248.281 30.4543L250.786 25.9216H255.915L258.539 30.4543L255.915 34.8677Z" fill="white"/>
<path d="M241.844 46.3175H233.852L229.797 39.3992L233.852 32.481H241.844L245.78 39.3992L241.844 46.3175Z" fill="white"/>
<path d="M226.454 55.5035H218.105L213.93 48.3467L218.105 41.1898H226.454L230.51 48.3467L226.454 55.5035Z" fill="white"/>
<path d="M210.827 64.569H202.597L198.422 57.4122L202.597 50.136H210.827L215.002 57.4122L210.827 64.569Z" fill="white"/>
<path d="M195.321 73.514H186.972L182.797 66.3572L186.972 59.2003H195.321L199.377 66.3572L195.321 73.514Z" fill="white"/>
<path d="M179.694 82.5795H171.345L167.289 75.3034L171.345 68.1465H179.694L183.869 75.3034L179.694 82.5795Z" fill="white"/>
<path d="M179.694 100.471H171.345L167.289 93.3139L171.345 86.1571H179.694L183.869 93.3139L179.694 100.471Z" fill="white"/>
<path d="M179.694 118.484H171.345L167.289 111.327L171.345 104.051H179.694L183.869 111.327L179.694 118.484Z" fill="white"/>
<path d="M179.694 136.494H171.345L167.289 129.218L171.345 122.061H179.694L183.869 129.218L179.694 136.494Z" fill="white"/>
<path d="M179.694 154.385H171.345L167.289 147.229L171.345 140.072H179.694L183.869 147.229L179.694 154.385Z" fill="white"/>
<path d="M164.189 181.344H155.839L151.664 174.188L155.839 167.031H164.189L168.244 174.188L164.189 181.344Z" fill="white"/>
<path d="M179.694 190.41H171.345L167.289 183.253L171.345 175.977H179.694L183.869 183.253L179.694 190.41Z" fill="white"/>
<path d="M195.321 199.356H186.972L182.797 192.199L186.972 185.043H195.321L199.377 192.199L195.321 199.356Z" fill="white"/>
<path d="M210.827 208.42H202.597L198.422 201.144L202.597 193.988H210.827L215.002 201.144L210.827 208.42Z" fill="white"/>
<path d="M226.454 217.366H218.105L213.93 210.209L218.105 202.933H226.454L230.51 210.209L226.454 217.366Z" fill="white"/>
<path d="M241.96 226.312H233.73L229.555 219.155L233.73 211.998H241.96L246.135 219.155L241.96 226.312Z" fill="white"/>
<path d="M255.319 231.442H251.502L249.594 228.102L251.502 224.763H255.319L257.228 228.102L255.319 231.442Z" fill="white"/>
<path d="M273.093 226.312H264.862L260.688 219.155L264.862 211.998H273.093L277.268 219.155L273.093 226.312Z" fill="white"/>
<path d="M288.72 217.366H280.37L276.195 210.209L280.37 202.933H288.72L292.895 210.209L288.72 217.366Z" fill="white"/>
<path d="M304.225 208.42H295.995L291.82 201.144L295.995 193.988H304.225L308.4 201.144L304.225 208.42Z" fill="white"/>
<path d="M319.853 199.356H311.503L307.328 192.199L311.503 185.043H319.853L324.027 192.199L319.853 199.356Z" fill="white"/>
<path d="M335.358 190.41H327.128L322.953 183.253L327.128 175.977H335.358L339.533 183.253L335.358 190.41Z" fill="white"/>
<path d="M350.985 181.344H342.636L338.461 174.188L342.636 167.031H350.985L355.16 174.188L350.985 181.344Z" fill="white"/>
<path d="M350.985 163.451H342.636L338.461 156.175L342.636 149.018H350.985L355.16 156.175L350.985 163.451Z" fill="white"/>
<path d="M350.985 145.442H342.636L338.461 138.285L342.636 131.009H350.985L355.16 138.285L350.985 145.442Z" fill="white"/>
<path d="M350.985 127.43H342.636L338.461 120.273L342.636 113.116H350.985L355.16 120.273L350.985 127.43Z" fill="white"/>
<path d="M350.985 109.535H342.636L338.461 102.259L342.636 95.1021H350.985L355.16 102.259L350.985 109.535Z" fill="white"/>
<path d="M350.985 91.5245H342.636L338.461 84.3677L342.636 77.0916H350.985L355.16 84.3677L350.985 91.5245Z" fill="white"/>
<path d="M350.746 73.155H342.874L338.938 66.356L342.874 59.4377H350.746L354.682 66.356L350.746 73.155Z" fill="white"/>
<path d="M333.091 60.6316H329.393L327.484 57.411L329.393 54.0712H333.091L334.999 57.411L333.091 60.6316Z" fill="white"/>
<path d="M285.621 32.3628H283.474L282.281 30.4543L283.474 28.4266H285.621L286.695 30.4543L285.621 32.3628Z" fill="white"/>
<path d="M210.115 45.2452H203.316L199.977 39.4005L203.316 33.5557H210.115L213.455 39.4005L210.115 45.2452Z" fill="white"/>
<path d="M195.208 55.5035H186.977L182.922 48.3467L186.977 41.3091H195.208L199.383 48.3467L195.208 55.5035Z" fill="white"/>
<path d="M179.694 64.569H171.345L167.289 57.4122L171.345 50.136H179.694L183.869 57.4122L179.694 64.569Z" fill="white"/>
<path d="M162.522 70.6525H157.513L155.008 66.3584L157.513 62.0643H162.522L164.908 66.3584L162.522 70.6525Z" fill="white"/>
<path d="M164.073 91.2883H155.962L151.906 84.3701L155.962 77.3325H164.073L168.009 84.3701L164.073 91.2883Z" fill="white"/>
<path d="M164.189 109.535H155.839L151.664 102.259L155.839 95.1021H164.189L168.244 102.259L164.189 109.535Z" fill="white"/>
<path d="M164.189 127.43H155.839L151.664 120.273L155.839 113.116H164.189L168.244 120.273L164.189 127.43Z" fill="white"/>
<path d="M164.189 145.442H155.839L151.664 138.285L155.839 131.009H164.189L168.244 138.285L164.189 145.442Z" fill="white"/>
<path d="M164.189 163.451H155.839L151.664 156.175L155.839 149.018H164.189L168.244 156.175L164.189 163.451Z" fill="white"/>
<path d="M148.561 190.41H140.212L136.156 183.253L140.212 175.977H148.561L152.736 183.253L148.561 190.41Z" fill="white"/>
<path d="M164.189 199.356H155.839L151.664 192.199L155.839 185.043H164.189L168.244 192.199L164.189 199.356Z" fill="white"/>
<path d="M179.694 208.42H171.345L167.289 201.144L171.345 193.988H179.694L183.869 201.144L179.694 208.42Z" fill="white"/>
<path d="M195.321 217.366H186.972L182.797 210.209L186.972 202.933H195.321L199.377 210.209L195.321 217.366Z" fill="white"/>
<path d="M210.349 225.478H202.953L199.375 219.156L202.953 212.834H210.349L214.046 219.156L210.349 225.478Z" fill="white"/>
<path d="M223.477 230.248H221.091L219.898 228.101L221.091 226.073H223.477L224.67 228.101L223.477 230.248Z" fill="white"/>
<path d="M254.964 248.738H251.863L250.312 246.114L251.863 243.49H254.964L256.515 246.114L254.964 248.738Z" fill="white"/>
<path d="M273.093 244.325H264.862L260.688 237.168L264.862 229.892H273.093L277.268 237.168L273.093 244.325Z" fill="white"/>
<path d="M288.72 235.38H280.37L276.195 228.103L280.37 220.947H288.72L292.895 228.103L288.72 235.38Z" fill="white"/>
<path d="M304.225 226.312H295.995L291.82 219.155L295.995 211.998H304.225L308.4 219.155L304.225 226.312Z" fill="white"/>
<path d="M319.853 217.366H311.503L307.328 210.209L311.503 202.933H319.853L324.027 210.209L319.853 217.366Z" fill="white"/>
<path d="M335.358 208.42H327.128L322.953 201.144L327.128 193.988H335.358L339.533 201.144L335.358 208.42Z" fill="white"/>
<path d="M350.985 199.356H342.636L338.461 192.199L342.636 185.043H350.985L355.16 192.199L350.985 199.356Z" fill="white"/>
<path d="M366.491 190.41H358.261L354.086 183.253L358.261 175.977H366.491L370.666 183.253L366.491 190.41Z" fill="white"/>
<path d="M366.491 172.399H358.261L354.086 165.243L358.261 158.086H366.491L370.666 165.243L366.491 172.399Z" fill="white"/>
<path d="M366.491 154.385H358.261L354.086 147.229L358.261 140.072H366.491L370.666 147.229L366.491 154.385Z" fill="white"/>
<path d="M366.491 136.494H358.261L354.086 129.218L358.261 122.061H366.491L370.666 129.218L366.491 136.494Z" fill="white"/>
<path d="M366.491 118.484H358.261L354.086 111.327L358.261 104.051H366.491L370.666 111.327L366.491 118.484Z" fill="white"/>
<path d="M366.491 100.471H358.261L354.086 93.3139L358.261 86.1571H366.491L370.666 93.3139L366.491 100.471Z" fill="white"/>
<path d="M366.491 82.5795H358.261L354.086 75.3034L358.261 68.1465H366.491L370.666 75.3034L366.491 82.5795Z" fill="white"/>
<path d="M210.596 28.1877H202.842L198.906 21.3887L202.842 14.709H210.596L214.532 21.3887L210.596 28.1877Z" fill="white"/>
<path d="M194.251 35.8219H187.929L184.828 30.4543L187.929 24.9674H194.251L197.472 30.4543L194.251 35.8219Z" fill="white"/>
<path d="M176.354 40.8307H174.684L173.969 39.3994L174.684 37.968H176.354L177.189 39.3994L176.354 40.8307Z" fill="white"/>
<path d="M146.772 97.3719H142.12L139.734 93.3163L142.12 89.2608H146.772L149.038 93.3163L146.772 97.3719Z" fill="white"/>
<path d="M148.561 118.484H140.212L136.156 111.327L140.212 104.051H148.561L152.736 111.327L148.561 118.484Z" fill="#FC670B"/>
<path d="M148.561 136.494H140.212L136.156 129.218L140.212 122.061H148.561L152.736 129.218L148.561 136.494Z" fill="white"/>
<path d="M148.561 154.385H140.212L136.156 147.229L140.212 140.072H148.561L152.736 147.229L148.561 154.385Z" fill="white"/>
<path d="M148.561 172.399H140.212L136.156 165.243L140.212 158.086H148.561L152.736 165.243L148.561 172.399Z" fill="white"/>
<path d="M129.716 193.631H128.046L127.211 192.199L128.046 190.768H129.716L130.431 192.199L129.716 193.631Z" fill="white"/>
<path d="M148.567 208.3H140.337L136.281 201.143L140.337 194.106H148.567L152.623 201.143L148.567 208.3Z" fill="white"/>
<path d="M164.189 217.366H155.839L151.664 210.209L155.839 202.933H164.189L168.244 210.209L164.189 217.366Z" fill="white"/>
<path d="M179.694 226.312H171.345L167.289 219.155L171.345 211.998H179.694L183.869 219.155L179.694 226.312Z" fill="white"/>
<path d="M194.012 233.111H188.287L185.305 228.101L188.287 223.091H194.012L196.875 228.101L194.012 233.111Z" fill="white"/>
<path d="M256.87 270.089H249.951L246.492 264.125L249.951 258.161H256.87L260.329 264.125L256.87 270.089Z" fill="white"/>
<path d="M273.093 262.335H264.862L260.688 255.059L264.862 247.902H273.093L277.268 255.059L273.093 262.335Z" fill="white"/>
<path d="M288.72 253.271H280.37L276.195 246.114L280.37 238.957H288.72L292.895 246.114L288.72 253.271Z" fill="white"/>
<path d="M304.225 244.325H295.995L291.82 237.168L295.995 229.892H304.225L308.4 237.168L304.225 244.325Z" fill="white"/>
<path d="M319.853 235.38H311.503L307.328 228.103L311.503 220.947H319.853L324.027 228.103L319.853 235.38Z" fill="white"/>
<path d="M335.358 226.312H327.128L322.953 219.155L327.128 211.998H335.358L339.533 219.155L335.358 226.312Z" fill="white"/>
<path d="M350.985 217.366H342.636L338.461 210.209L342.636 202.933H350.985L355.16 210.209L350.985 217.366Z" fill="white"/>
<path d="M366.491 208.42H358.261L354.086 201.144L358.261 193.988H366.491L370.666 201.144L366.491 208.42Z" fill="white"/>
<path d="M382.118 199.356H373.769L369.594 192.199L373.769 185.043H382.118L386.293 192.199L382.118 199.356Z" fill="white"/>
<path d="M382.118 181.344H373.769L369.594 174.188L373.769 167.031H382.118L386.293 174.188L382.118 181.344Z" fill="#FC670B"/>
<path d="M382.118 163.451H373.769L369.594 156.175L373.769 149.018H382.118L386.293 156.175L382.118 163.451Z" fill="white"/>
<path d="M382.118 145.442H373.769L369.594 138.285L373.769 131.009H382.118L386.293 138.285L382.118 145.442Z" fill="white"/>
<path d="M382.118 127.43H373.769L369.594 120.273L373.769 113.116H382.118L386.293 120.273L382.118 127.43Z" fill="white"/>
<path d="M382.118 109.535H373.769L369.594 102.259L373.769 95.1021H382.118L386.293 102.259L382.118 109.535Z" fill="white"/>
<path d="M382.118 91.5245H373.769L369.594 84.3677L373.769 77.0916H382.118L386.293 84.3677L382.118 91.5245Z" fill="white"/>
<path d="M380.801 71.3682H375.076L372.094 66.3584L375.076 61.3486H380.801L383.783 66.3584L380.801 71.3682Z" fill="white"/>
<path d="M130.551 123.255H127.092L125.422 120.273L127.092 117.291H130.551L132.34 120.273L130.551 123.255Z" fill="white"/>
<path d="M132.582 144.844H125.067L121.25 138.284L125.067 131.723H132.582L136.399 138.284L132.582 144.844Z" fill="white"/>
<path d="M132.582 162.738H125.067L121.25 156.177L125.067 149.736H132.582L136.399 156.177L132.582 162.738Z" fill="white"/>
<path d="M132.582 180.748H125.067L121.25 174.188L125.067 167.627H132.582L136.399 174.188L132.582 180.748Z" fill="white"/>
<path d="M145.106 220.348H143.794L143.078 219.155L143.794 217.962H145.106L145.822 219.155L145.106 220.348Z" fill="white"/>
<path d="M161.45 230.606H158.588L157.156 228.101L158.588 225.596H161.45L162.882 228.101L161.45 230.606Z" fill="white"/>
<path d="M273.093 280.228H264.862L260.688 273.071L264.862 265.914H273.093L277.268 273.071L273.093 280.228Z" fill="white"/>
<path d="M288.72 271.281H280.37L276.195 264.124L280.37 256.848H288.72L292.895 264.124L288.72 271.281Z" fill="white"/>
<path d="M304.225 262.335H295.995L291.82 255.059L295.995 247.902H304.225L308.4 255.059L304.225 262.335Z" fill="white"/>
<path d="M319.853 253.271H311.503L307.328 246.114L311.503 238.957H319.853L324.027 246.114L319.853 253.271Z" fill="white"/>
<path d="M335.358 244.325H327.128L322.953 237.168L327.128 229.892H335.358L339.533 237.168L335.358 244.325Z" fill="white"/>
<path d="M350.985 235.38H342.636L338.461 228.103L342.636 220.947H350.985L355.16 228.103L350.985 235.38Z" fill="#FC670B"/>
<path d="M366.491 226.312H358.261L354.086 219.155L358.261 211.998H366.491L370.666 219.155L366.491 226.312Z" fill="white"/>
<path d="M382.118 217.366H373.769L369.594 210.209L373.769 202.933H382.118L386.293 210.209L382.118 217.366Z" fill="white"/>
<path d="M397.624 208.42H389.394L385.219 201.144L389.394 193.988H397.624L401.799 201.144L397.624 208.42Z" fill="white"/>
<path d="M397.624 190.41H389.394L385.219 183.253L389.394 175.977H397.624L401.799 183.253L397.624 190.41Z" fill="white"/>
<path d="M397.624 172.399H389.394L385.219 165.243L389.394 158.086H397.624L401.799 165.243L397.624 172.399Z" fill="white"/>
<path d="M397.624 154.385H389.394L385.219 147.229L389.394 140.072H397.624L401.799 147.229L397.624 154.385Z" fill="white"/>
<path d="M397.622 136.257H389.392L385.336 129.219L389.392 122.182H397.622L401.677 129.219L397.622 136.257Z" fill="white"/>
<path d="M394.876 113.593H392.132L390.82 111.327L392.132 108.941H394.876L396.188 111.327L394.876 113.593Z" fill="white"/>
<path d="M272.738 297.644H265.223L261.406 291.084L265.223 284.523H272.738L276.555 291.084L272.738 297.644Z" fill="white"/>
<path d="M288.72 289.292H280.37L276.195 282.016L280.37 274.859H288.72L292.895 282.016L288.72 289.292Z" fill="white"/>
<path d="M304.225 280.228H295.995L291.82 273.071L295.995 265.914H304.225L308.4 273.071L304.225 280.228Z" fill="white"/>
<path d="M319.853 271.281H311.503L307.328 264.124L311.503 256.848H319.853L324.027 264.124L319.853 271.281Z" fill="white"/>
<path d="M335.358 262.335H327.128L322.953 255.059L327.128 247.902H335.358L339.533 255.059L335.358 262.335Z" fill="white"/>
<path d="M350.985 253.271H342.636L338.461 246.114L342.636 238.957H350.985L355.16 246.114L350.985 253.271Z" fill="white"/>
<path d="M366.491 244.325H358.261L354.086 237.168L358.261 229.892H366.491L370.666 237.168L366.491 244.325Z" fill="white"/>
<path d="M382.118 235.38H373.769L369.594 228.103L373.769 220.947H382.118L386.293 228.103L382.118 235.38Z" fill="white"/>
<path d="M397.624 226.312H389.394L385.219 219.155L389.394 211.998H397.624L401.799 219.155L397.624 226.312Z" fill="white"/>
<path d="M413.251 217.366H404.901L400.727 210.209L404.901 202.933H413.251L417.426 210.209L413.251 217.366Z" fill="white"/>
<path d="M413.251 199.356H404.901L400.727 192.199L404.901 185.043H413.251L417.426 192.199L413.251 199.356Z" fill="white"/>
<path d="M413.251 181.344H404.901L400.727 174.188L404.901 167.031H413.251L417.426 174.188L413.251 181.344Z" fill="white"/>
<path d="M411.94 161.185H406.214L403.352 156.175L406.214 151.284H411.94L414.802 156.175L411.94 161.185Z" fill="white"/>
<path d="M409.909 139.596H408.239L407.523 138.284L408.239 136.852H409.909L410.625 138.284L409.909 139.596Z" fill="white"/>
<path d="M413.249 127.43H404.899L400.844 120.273L404.899 113.116H413.249L417.304 120.273L413.249 127.43Z" fill="white"/>
<path d="M98.4673 157.487H97.036L96.3203 156.175L97.036 154.982H98.4673L99.1831 156.175L98.4673 157.487Z" fill="white"/>
<path d="M271.666 313.746H266.298L263.555 308.975L266.298 304.323H271.666L274.409 308.975L271.666 313.746Z" fill="white"/>
<path d="M288.72 307.185H280.37L276.195 300.029L280.37 292.872H288.72L292.895 300.029L288.72 307.185Z" fill="white"/>
<path d="M304.225 298.238H295.995L291.82 291.081L295.995 283.805H304.225L308.4 291.081L304.225 298.238Z" fill="white"/>
<path d="M319.853 289.292H311.503L307.328 282.016L311.503 274.859H319.853L324.027 282.016L319.853 289.292Z" fill="white"/>
<path d="M335.358 280.228H327.128L322.953 273.071L327.128 265.914H335.358L339.533 273.071L335.358 280.228Z" fill="#FC670B"/>
<path d="M350.985 271.281H342.636L338.461 264.124L342.636 256.848H350.985L355.16 264.124L350.985 271.281Z" fill="white"/>
<path d="M366.491 262.335H358.261L354.086 255.059L358.261 247.902H366.491L370.666 255.059L366.491 262.335Z" fill="white"/>
<path d="M382.118 253.271H373.769L369.594 246.114L373.769 238.957H382.118L386.293 246.114L382.118 253.271Z" fill="white"/>
<path d="M397.624 244.325H389.394L385.219 237.168L389.394 229.892H397.624L401.799 237.168L397.624 244.325Z" fill="white"/>
<path d="M413.251 235.38H404.901L400.727 228.103L404.901 220.947H413.251L417.426 228.103L413.251 235.38Z" fill="white"/>
<path d="M428.757 226.312H420.526L416.352 219.155L420.526 211.998H428.757L432.932 219.155L428.757 226.312Z" fill="white"/>
<path d="M428.757 208.42H420.526L416.352 201.144L420.526 193.988H428.757L432.932 201.144L428.757 208.42Z" fill="white"/>
<path d="M428.755 190.291H420.524L416.469 183.253L420.524 176.096H428.755L432.81 183.253L428.755 190.291Z" fill="white"/>
<path d="M426.011 167.628H423.267L421.836 165.243L423.267 162.738H426.011L427.442 165.243L426.011 167.628Z" fill="white"/>
<path d="M288.72 325.197H280.37L276.195 318.04L280.37 310.884H288.72L292.895 318.04L288.72 325.197Z" fill="white"/>
<path d="M304.225 316.251H295.995L291.82 308.975L295.995 301.818H304.225L308.4 308.975L304.225 316.251Z" fill="white"/>
<path d="M319.853 307.185H311.503L307.328 300.029L311.503 292.872H319.853L324.027 300.029L319.853 307.185Z" fill="white"/>
<path d="M335.358 298.238H327.128L322.953 291.081L327.128 283.805H335.358L339.533 291.081L335.358 298.238Z" fill="white"/>
<path d="M350.985 289.292H342.636L338.461 282.016L342.636 274.859H350.985L355.16 282.016L350.985 289.292Z" fill="white"/>
<path d="M366.491 280.228H358.261L354.086 273.071L358.261 265.914H366.491L370.666 273.071L366.491 280.228Z" fill="white"/>
<path d="M382.118 271.281H373.769L369.594 264.124L373.769 256.848H382.118L386.293 264.124L382.118 271.281Z" fill="white"/>
<path d="M397.624 262.335H389.394L385.219 255.059L389.394 247.902H397.624L401.799 255.059L397.624 262.335Z" fill="white"/>
<path d="M413.251 253.271H404.901L400.727 246.114L404.901 238.957H413.251L417.426 246.114L413.251 253.271Z" fill="white"/>
<path d="M428.757 244.325H420.526L416.352 237.168L420.526 229.892H428.757L432.932 237.168L428.757 244.325Z" fill="white"/>
<path d="M444.376 235.38H436.026L431.852 228.103L436.026 220.947H444.376L448.551 228.103L444.376 235.38Z" fill="white"/>
<path d="M444.376 217.366H436.026L431.852 210.209L436.026 202.933H444.376L448.551 210.209L444.376 217.366Z" fill="white"/>
<path d="M444.382 199.356H436.032L431.977 192.199L436.032 185.043H444.382L448.437 192.199L444.382 199.356Z" fill="white"/>
<path d="M444.023 180.869H436.389L432.453 174.189L436.389 167.509H444.023L447.96 174.189L444.023 180.869Z" fill="white"/>
<path d="M444.376 163.451H436.026L431.852 156.175L436.026 149.018H444.376L448.551 156.175L444.376 163.451Z" fill="white"/>
<path d="M271.427 349.29H266.536L264.031 344.996L266.536 340.702H271.427L273.932 344.996L271.427 349.29Z" fill="white"/>
<path d="M288.72 343.206H280.37L276.195 336.05L280.37 328.774H288.72L292.895 336.05L288.72 343.206Z" fill="white"/>
<path d="M304.225 334.142H295.995L291.82 326.985L295.995 319.829H304.225L308.4 326.985L304.225 334.142Z" fill="white"/>
<path d="M319.853 325.197H311.503L307.328 318.04L311.503 310.884H319.853L324.027 318.04L319.853 325.197Z" fill="white"/>
<path d="M335.358 316.251H327.128L322.953 308.975L327.128 301.818H335.358L339.533 308.975L335.358 316.251Z" fill="white"/>
<path d="M350.985 307.185H342.636L338.461 300.029L342.636 292.872H350.985L355.16 300.029L350.985 307.185Z" fill="white"/>
<path d="M366.491 298.238H358.261L354.086 291.081L358.261 283.805H366.491L370.666 291.081L366.491 298.238Z" fill="white"/>
<path d="M382.118 289.292H373.769L369.594 282.016L373.769 274.859H382.118L386.293 282.016L382.118 289.292Z" fill="#FC670B"/>
<path d="M397.624 280.228H389.394L385.219 273.071L389.394 265.914H397.624L401.799 273.071L397.624 280.228Z" fill="white"/>
<path d="M413.251 271.281H404.901L400.727 264.124L404.901 256.848H413.251L417.426 264.124L413.251 271.281Z" fill="white"/>
<path d="M428.516 261.859H420.762L416.945 255.06L420.762 248.381H428.516L432.452 255.06L428.516 261.859Z" fill="white"/>
<path d="M442.473 250.17H437.94L435.555 246.114L437.94 242.059H442.473L444.859 246.114L442.473 250.17Z" fill="white"/>
<path d="M459.415 225.359H452.258L448.68 219.156L452.258 212.954H459.415L462.993 219.156L459.415 225.359Z" fill="white"/>
<path d="M459.89 208.42H451.659L447.484 201.144L451.659 193.988H459.89L464.064 201.144L459.89 208.42Z" fill="white"/>
<path d="M457.62 186.356H453.922L452.133 183.254L453.922 180.034H457.62L459.409 183.254L457.62 186.356Z" fill="white"/>
<path d="M459.887 172.399H451.657L447.602 165.243L451.657 158.086H459.887L464.062 165.243L459.887 172.399Z" fill="white"/>
<path d="M272.736 369.45H265.221L261.523 363.009L265.221 356.568H272.736L276.434 363.009L272.736 369.45Z" fill="white"/>
<path d="M288.72 361.218H280.37L276.195 353.942L280.37 346.785H288.72L292.895 353.942L288.72 361.218Z" fill="white"/>
<path d="M304.225 352.153H295.995L291.82 344.996L295.995 337.839H304.225L308.4 344.996L304.225 352.153Z" fill="white"/>
<path d="M319.853 343.206H311.503L307.328 336.05L311.503 328.774H319.853L324.027 336.05L319.853 343.206Z" fill="white"/>
<path d="M335.358 334.142H327.128L322.953 326.985L327.128 319.829H335.358L339.533 326.985L335.358 334.142Z" fill="white"/>
<path d="M350.985 325.197H342.636L338.461 318.04L342.636 310.884H350.985L355.16 318.04L350.985 325.197Z" fill="white"/>
<path d="M366.491 316.251H358.261L354.086 308.975L358.261 301.818H366.491L370.666 308.975L366.491 316.251Z" fill="white"/>
<path d="M382.118 307.185H373.769L369.594 300.029L373.769 292.872H382.118L386.293 300.029L382.118 307.185Z" fill="white"/>
<path d="M397.624 298.238H389.394L385.219 291.081L389.394 283.805H397.624L401.799 291.081L397.624 298.238Z" fill="white"/>
<path d="M413.127 289.174H405.016L400.961 282.017L405.016 274.979H413.127L417.302 282.017L413.127 289.174Z" fill="white"/>
<path d="M473.362 195.657H469.307L467.398 192.198L469.307 188.739H473.362L475.39 192.198L473.362 195.657Z" fill="white"/>
<path d="M475.515 163.451H467.165L463.109 156.175L467.165 149.018H475.515L479.689 156.175L475.515 163.451Z" fill="white"/>
<path d="M288.72 379.112H280.37L276.195 371.955L280.37 364.798H288.72L292.895 371.955L288.72 379.112Z" fill="white"/>
<path d="M304.225 370.166H295.995L291.82 363.009L295.995 355.733H304.225L308.4 363.009L304.225 370.166Z" fill="white"/>
<path d="M319.853 361.218H311.503L307.328 353.942L311.503 346.785H319.853L324.027 353.942L319.853 361.218Z" fill="white"/>
<path d="M335.358 352.153H327.128L322.953 344.996L327.128 337.839H335.358L339.533 344.996L335.358 352.153Z" fill="white"/>
<path d="M350.985 343.206H342.636L338.461 336.05L342.636 328.774H350.985L355.16 336.05L350.985 343.206Z" fill="white"/>
<path d="M366.491 334.142H358.261L354.086 326.985L358.261 319.829H366.491L370.666 326.985L366.491 334.142Z" fill="white"/>
<path d="M382.118 325.197H373.769L369.594 318.04L373.769 310.884H382.118L386.293 318.04L382.118 325.197Z" fill="white"/>
<path d="M397.624 316.251H389.394L385.219 308.975L389.394 301.818H397.624L401.799 308.975L397.624 316.251Z" fill="white"/>
<path d="M413.13 307.185H405.019L400.844 300.029L405.019 292.991H413.13L417.304 300.029L413.13 307.185Z" fill="white"/>
<path d="M288.604 397.002H280.493L276.438 389.964L280.493 382.927H288.604L292.66 389.964L288.604 397.002Z" fill="white"/>
<path d="M304.225 388.176H295.995L291.82 380.9L295.995 373.743H304.225L308.4 380.9L304.225 388.176Z" fill="white"/>
<path d="M319.853 379.112H311.503L307.328 371.955L311.503 364.798H319.853L324.027 371.955L319.853 379.112Z" fill="white"/>
<path d="M335.358 370.166H327.128L322.953 363.009L327.128 355.733H335.358L339.533 363.009L335.358 370.166Z" fill="white"/>
<path d="M350.985 361.218H342.636L338.461 353.942L342.636 346.785H350.985L355.16 353.942L350.985 361.218Z" fill="white"/>
<path d="M366.491 352.153H358.261L354.086 344.996L358.261 337.839H366.491L370.666 344.996L366.491 352.153Z" fill="white"/>
<path d="M382.118 343.206H373.769L369.594 336.05L373.769 328.774H382.118L386.293 336.05L382.118 343.206Z" fill="white"/>
<path d="M397.624 334.142H389.394L385.219 326.985L389.394 319.829H397.624L401.799 326.985L397.624 334.142Z" fill="white"/>
<path d="M413.251 325.197H404.901L400.727 318.04L404.901 310.884H413.251L417.426 318.04L413.251 325.197Z" fill="white"/>
<path d="M287.765 413.583H281.205L277.984 407.858L281.205 402.252H287.765L291.105 407.858L287.765 413.583Z" fill="white"/>
<path d="M304.225 406.069H295.995L291.82 398.912L295.995 391.755H304.225L308.4 398.912L304.225 406.069Z" fill="white"/>
<path d="M319.853 397.122H311.503L307.328 389.965L311.503 382.689H319.853L324.027 389.965L319.853 397.122Z" fill="white"/>
<path d="M335.358 388.176H327.128L322.953 380.9L327.128 373.743H335.358L339.533 380.9L335.358 388.176Z" fill="white"/>
<path d="M350.985 379.112H342.636L338.461 371.955L342.636 364.798H350.985L355.16 371.955L350.985 379.112Z" fill="white"/>
<path d="M366.491 370.166H358.261L354.086 363.009L358.261 355.733H366.491L370.666 363.009L366.491 370.166Z" fill="white"/>
<path d="M382.118 361.218H373.769L369.594 353.942L373.769 346.785H382.118L386.293 353.942L382.118 361.218Z" fill="white"/>
<path d="M397.624 352.153H389.394L385.219 344.996L389.394 337.839H397.624L401.799 344.996L397.624 352.153Z" fill="white"/>
<path d="M413.249 343.088H405.019L400.844 336.051L405.019 328.894H413.249L417.304 336.051L413.249 343.088Z" fill="white"/>
<path d="M285.976 428.494H282.994L281.562 425.87L282.994 423.365H285.976L287.527 425.87L285.976 428.494Z" fill="white"/>
<path d="M304.225 424.078H295.995L291.82 416.921L295.995 409.645H304.225L308.4 416.921L304.225 424.078Z" fill="white"/>
<path d="M319.853 415.133H311.503L307.328 407.857L311.503 400.7H319.853L324.027 407.857L319.853 415.133Z" fill="white"/>
<path d="M335.358 406.069H327.128L322.953 398.912L327.128 391.755H335.358L339.533 398.912L335.358 406.069Z" fill="white"/>
<path d="M350.985 397.122H342.636L338.461 389.965L342.636 382.689H350.985L355.16 389.965L350.985 397.122Z" fill="white"/>
<path d="M366.491 388.176H358.261L354.086 380.9L358.261 373.743H366.491L370.666 380.9L366.491 388.176Z" fill="white"/>
<path d="M382.118 379.112H373.769L369.594 371.955L373.769 364.798H382.118L386.293 371.955L382.118 379.112Z" fill="white"/>
<path d="M396.91 368.734H390.231L386.891 363.009L390.231 357.164H396.91L400.131 363.009L396.91 368.734Z" fill="white"/>
<path d="M410.266 355.97H407.88L406.688 353.942L407.88 351.914H410.266L411.459 353.942L410.266 355.97Z" fill="white"/>
<path d="M459.296 333.069H452.258L448.68 326.985L452.258 320.902H459.296L462.874 326.985L459.296 333.069Z" fill="white"/>
<path d="M304.225 442.092H295.995L291.82 434.816L295.995 427.659H304.225L308.4 434.816L304.225 442.092Z" fill="white"/>
<path d="M319.853 433.026H311.503L307.328 425.87L311.503 418.713H319.853L324.027 425.87L319.853 433.026Z" fill="white"/>
<path d="M335.358 424.078H327.128L322.953 416.921L327.128 409.645H335.358L339.533 416.921L335.358 424.078Z" fill="white"/>
<path d="M350.985 415.133H342.636L338.461 407.857L342.636 400.7H350.985L355.16 407.857L350.985 415.133Z" fill="white"/>
<path d="M366.491 406.069H358.261L354.086 398.912L358.261 391.755H366.491L370.666 398.912L366.491 406.069Z" fill="white"/>
<path d="M382.118 397.122H373.769L369.594 389.965L373.769 382.689H382.118L386.293 389.965L382.118 397.122Z" fill="white"/>
<path d="M394.166 382.093H392.854L392.258 380.9L392.854 379.827H394.166L394.763 380.9L394.166 382.093Z" fill="white"/>
<path d="M444.376 361.218H436.026L431.852 353.942L436.026 346.785H444.376L448.551 353.942L444.376 361.218Z" fill="white"/>
<path d="M459.89 352.153H451.659L447.484 344.996L451.659 337.839H459.89L464.064 344.996L459.89 352.153Z" fill="white"/>
<path d="M303.745 459.03H296.469L292.891 452.828L296.469 446.625H303.745L307.324 452.828L303.745 459.03Z" fill="#FC670B"/>
<path d="M319.853 451.038H311.503L307.328 443.881L311.503 436.725H319.853L324.027 443.881L319.853 451.038Z" fill="white"/>
<path d="M335.358 442.092H327.128L322.953 434.816L327.128 427.659H335.358L339.533 434.816L335.358 442.092Z" fill="white"/>
<path d="M350.985 433.026H342.636L338.461 425.87L342.636 418.713H350.985L355.16 425.87L350.985 433.026Z" fill="white"/>
<path d="M366.491 424.078H358.261L354.086 416.921L358.261 409.645H366.491L370.666 416.921L366.491 424.078Z" fill="white"/>
<path d="M378.657 409.17H377.226L376.391 407.858L377.226 406.546H378.657L379.492 407.858L378.657 409.17Z" fill="white"/>
<path d="M426.248 383.645H423.027L421.477 380.901L423.027 378.277H426.248L427.798 380.901L426.248 383.645Z" fill="white"/>
<path d="M444.376 379.112H436.026L431.852 371.955L436.026 364.798H444.376L448.551 371.955L444.376 379.112Z" fill="white"/>
<path d="M459.648 369.686H451.895L448.078 363.006L451.895 356.207H459.648L463.585 363.006L459.648 369.686Z" fill="white"/>
<path d="M317.947 465.709H313.415L311.148 461.773L313.415 457.956H317.947L320.214 461.773L317.947 465.709Z" fill="white"/>
<path d="M334.523 458.434H327.963L324.742 452.828L327.963 447.221H334.523L337.744 452.828L334.523 458.434Z" fill="white"/>
<path d="M350.862 450.798H342.751L338.695 443.88L342.751 436.843H350.862L354.917 443.88L350.862 450.798Z" fill="white"/>
<path d="M363.149 436.128H361.599L360.883 434.816L361.599 433.623H363.149L363.865 434.816L363.149 436.128Z" fill="white"/>
<path d="M426.134 401.536H423.152L421.602 398.912L423.152 396.288H426.134L427.685 398.912L426.134 401.536Z" fill="white"/>
<path d="M444.376 397.122H436.026L431.852 389.965L436.026 382.689H444.376L448.551 389.965L444.376 397.122Z" fill="white"/>
<path d="M458.339 385.434H453.21L450.586 380.901L453.21 376.488H458.339L460.963 380.901L458.339 385.434Z" fill="white"/>
<path d="M442.114 411.079H438.416L436.508 407.858L438.416 404.757H442.114L443.903 407.858L442.114 411.079Z" fill="white"/>
</g>
<defs>
<filter id="filter0_dddd_5314_52069" x="0.895882" y="0.148624" width="574.216" height="702.929" filterUnits="userSpaceOnUse" color-interpolation-filters="sRGB">
<feFlood flood-opacity="0" result="BackgroundImageFix"/>
<feColorMatrix in="SourceAlpha" type="matrix" values="0 0 0 0 0 0 0 0 0 0 0 0 0 0 0 0 0 0 127 0" result="hardAlpha"/>
<feOffset dy="6.42835"/>
<feGaussianBlur stdDeviation="0.608355"/>
<feColorMatrix type="matrix" values="0 0 0 0 0.0588235 0 0 0 0 0.0313726 0 0 0 0 0.262745 0 0 0 0.0414311 0"/>
<feBlend mode="normal" in2="BackgroundImageFix" result="effect1_dropShadow_5314_52069"/>
<feColorMatrix in="SourceAlpha" type="matrix" values="0 0 0 0 0 0 0 0 0 0 0 0 0 0 0 0 0 0 127 0" result="hardAlpha"/>
<feOffset dy="17.7736"/>
<feGaussianBlur stdDeviation="6.7037"/>
<feColorMatrix type="matrix" values="0 0 0 0 0.252036 0 0 0 0 0.19566 0 0 0 0 0.670833 0 0 0 0.0458509 0"/>
<feBlend mode="normal" in2="effect1_dropShadow_5314_52069" result="effect2_dropShadow_5314_52069"/>
<feColorMatrix in="SourceAlpha" type="matrix" values="0 0 0 0 0 0 0 0 0 0 0 0 0 0 0 0 0 0 127 0" result="hardAlpha"/>
<feOffset dy="42.7919"/>
<feGaussianBlur stdDeviation="28.6762"/>
<feColorMatrix type="matrix" values="0 0 0 0 0.209938 0 0 0 0 0.141163 0 0 0 0 0.720833 0 0 0 0.0469633 0"/>
<feBlend mode="normal" in2="effect2_dropShadow_5314_52069" result="effect3_dropShadow_5314_52069"/>
<feColorMatrix in="SourceAlpha" type="matrix" values="0 0 0 0 0 0 0 0 0 0 0 0 0 0 0 0 0 0 127 0" result="hardAlpha"/>
<feOffset dy="141.944"/>
<feGaussianBlur stdDeviation="47.7122"/>
<feColorMatrix type="matrix" values="0 0 0 0 0.220859 0 0 0 0 0.148507 0 0 0 0 0.758333 0 0 0 0.07 0"/>
<feBlend mode="normal" in2="effect3_dropShadow_5314_52069" result="effect4_dropShadow_5314_52069"/>
<feBlend mode="normal" in="SourceGraphic" in2="effect4_dropShadow_5314_52069" result="shape"/>
</filter>
</defs>
</svg>
