<svg width="39" height="43" viewBox="0 0 39 43" fill="none" xmlns="http://www.w3.org/2000/svg">
<g id="Abstract Line">
<path id="Vector" fill-rule="evenodd" clip-rule="evenodd" d="M13.0489 40.1279C9.32492 39.0762 5.42609 38.5457 1.64397 38.0597C0.829355 37.9578 0.0730442 38.5264 0.0148577 39.3274C-0.101515 40.129 0.480691 40.8622 1.23712 40.9641C4.90286 41.4319 8.68465 41.9326 12.234 42.945C12.9904 43.1646 13.8054 42.7126 14.0381 41.9349C14.2709 41.1579 13.8053 40.348 13.0489 40.1279Z" fill="#665D99"/>
<path id="Vector_2" fill-rule="evenodd" clip-rule="evenodd" d="M24.3336 25.2168C18.3404 19.0619 11.5908 13.6993 5.71392 7.3793C5.19025 6.78905 4.25926 6.75743 3.6774 7.30845C3.09553 7.86005 3.03757 8.78758 3.61944 9.37783C9.49627 15.716 16.2459 21.0961 22.2391 27.2692C22.821 27.8454 23.7517 27.8535 24.3336 27.2867C24.8573 26.7205 24.9155 25.793 24.3336 25.2168Z" fill="#665D99"/>
<path id="Vector_3" fill-rule="evenodd" clip-rule="evenodd" d="M35.5662 1.54341C35.7407 5.06616 35.915 8.58891 36.0895 12.1123C36.0895 12.9192 36.7881 13.5422 37.6027 13.503C38.4173 13.4631 38.9988 12.7763 38.9988 11.9688C38.8243 8.44018 38.6501 4.91216 38.4755 1.38413C38.4173 0.577224 37.719 -0.0417174 36.9044 0.00219986C36.1479 0.0461172 35.508 0.737085 35.5662 1.54341Z" fill="#665D99"/>
</g>
</svg>
