<svg width="127" height="50" viewBox="0 0 127 50" fill="none" xmlns="http://www.w3.org/2000/svg">
<g id="hng_internship_logo.svg" clip-path="url(#clip0_5761_43839)">
<g id="Vector">
<path fill-rule="evenodd" clip-rule="evenodd" d="M11.7578 10.0039H0.507812V40.0039H11.7578V34.7322H7.19254V15.2322H11.7578V10.0039Z" fill="white"/>
<path fill-rule="evenodd" clip-rule="evenodd" d="M19.2461 10.0039H30.4961V40.0039H19.2461V34.7322H23.8113V15.2322H19.2461V10.0039Z" fill="white"/>
<path d="M58.987 13.0034H64.937V37.5034H58.987V27.1434H48.907V37.5034H42.957V13.0034H48.907V22.4184H58.987V13.0034ZM87.2873 13.0034H93.2373V37.5034H85.0473L77.1723 19.2684V37.5034H71.2223V13.0034H80.0423L87.2873 29.8034V13.0034ZM123.392 24.1684V28.8934H118.912C120.207 29.6284 120.977 30.7134 120.977 32.1834C120.977 35.4034 117.092 38.0634 111.352 38.0634C103.477 38.0634 98.4716 32.9184 98.4716 25.1484C98.4716 17.5534 103.267 12.4434 111.002 12.4434C117.337 12.4434 121.992 15.8734 121.467 22.1734H115.342C115.622 19.0234 113.767 17.3434 110.897 17.3434C106.942 17.3434 104.597 20.4934 104.597 25.1484C104.597 29.9784 107.117 33.1634 111.212 33.1634C113.312 33.1634 114.852 32.3234 114.852 31.0984C114.852 29.8034 113.102 28.8934 110.302 28.8934V24.1684H123.392Z" fill="white"/>
</g>
</g>
<defs>
<clipPath id="clip0_5761_43839">
<rect width="126.25" height="50" fill="white" transform="translate(0.503906)"/>
</clipPath>
</defs>
</svg>
