<svg width="191" height="50" viewBox="0 0 191 50" fill="none" xmlns="http://www.w3.org/2000/svg">
<g id="vivo_logo.svg" clip-path="url(#clip0_5761_43845)">
<g id="&#230;&#181;&#183;&#229;&#164;&#150;&#228;&#184;&#128;&#230;&#156;&#159;">
<g id="F14-PC-&#232;&#191;&#148;&#229;&#155;&#158;&#233;&#161;&#182;&#233;&#131;&#168;Normal">
<g id="&#231;&#188;&#150;&#231;&#187;&#132;-6">
<g id="vivo">
<g id="vivo-LOGO">
<path id="Fill-1" fill-rule="evenodd" clip-rule="evenodd" d="M172.128 41.6908H155.814C146.643 41.6908 145.827 34.1421 145.827 31.8296C145.827 29.5241 146.643 21.9685 155.814 21.9685H172.128C181.298 21.9685 182.115 29.5171 182.115 31.8296C182.108 34.1421 181.298 41.6908 172.128 41.6908ZM172.128 13.6699H155.814C138.863 13.6699 137.355 27.5796 137.355 31.8366C137.355 36.0866 138.863 50.0033 155.814 50.0033H172.128C189.079 50.0033 190.593 36.0935 190.593 31.8366C190.586 27.5796 189.079 13.6699 172.128 13.6699Z" fill="#415FFF"/>
<path id="Fill-4" fill-rule="evenodd" clip-rule="evenodd" d="M134.086 14.5195H128.795C126.534 14.5195 126.063 14.9084 125.192 16.207C124.32 17.5056 109.196 40.6931 109.196 40.6931C108.712 41.4084 108.2 41.6931 107.563 41.6931C106.927 41.6931 106.415 41.4015 105.931 40.6931C105.931 40.6931 90.8065 17.5056 89.9351 16.207C89.0637 14.9084 88.5934 14.5195 86.332 14.5195H81.0414C79.8242 14.5195 79.2709 15.4779 80.0317 16.6445C80.7993 17.8112 98.0958 44.1862 98.0958 44.1862C100.897 48.3251 102.958 49.9987 107.563 49.9987C112.169 49.9987 114.223 48.3251 117.031 44.1862C117.031 44.1862 134.328 17.8112 135.095 16.6445C135.856 15.4779 135.303 14.5195 134.086 14.5195Z" fill="#415FFF"/>
<path id="Fill-7" fill-rule="evenodd" clip-rule="evenodd" d="M63.8594 16.7695C63.8594 15.1584 64.4956 14.5195 66.1001 14.5195H70.0974C71.7019 14.5195 72.3381 15.1584 72.3381 16.7695V47.7487C72.3381 49.3598 71.7019 49.9987 70.0974 49.9987H66.1001C64.4956 49.9987 63.8594 49.3598 63.8594 47.7487V16.7695Z" fill="#415FFF"/>
<path id="Fill-13" fill-rule="evenodd" clip-rule="evenodd" d="M55.1433 14.5195H49.8527C47.5913 14.5195 47.121 14.9084 46.2496 16.207C45.3782 17.5056 30.2533 40.6931 30.2533 40.6931C29.7692 41.4084 29.2575 41.6931 28.6212 41.6931C27.985 41.6931 27.4732 41.4015 26.9891 40.6931C26.9891 40.6931 11.8642 17.5056 10.9928 16.207C10.1214 14.9084 9.65116 14.5195 7.38969 14.5195H2.10602C0.750518 14.5195 0.33557 15.4779 1.09631 16.6445C1.86396 17.8112 19.1604 44.1862 19.1604 44.1862C21.9613 48.3251 24.0222 49.9987 28.6281 49.9987C33.2341 49.9987 35.288 48.3251 38.0959 44.1862C38.0959 44.1862 55.3923 17.8112 56.1599 16.6445C56.9207 15.4779 56.5057 14.5195 55.1433 14.5195Z" fill="#415FFF"/>
<path id="Fill-10" fill-rule="evenodd" clip-rule="evenodd" d="M63.4829 7.4286C62.1828 6.12305 62.1828 5.08138 63.4829 3.77582L66.27 0.977214C67.5702 -0.328342 68.6076 -0.328342 69.9077 0.977214L72.6948 3.77582C73.995 5.08138 73.995 6.12305 72.6948 7.4286L69.9077 10.2272C68.6076 11.5328 67.5702 11.5328 66.27 10.2272L63.4829 7.4286Z" fill="#415FFF"/>
</g>
</g>
</g>
</g>
</g>
</g>
<defs>
<clipPath id="clip0_5761_43845">
<rect width="189.873" height="50" fill="white" transform="translate(0.753906)"/>
</clipPath>
</defs>
</svg>
