<svg width="96" height="97" viewBox="0 0 96 97" fill="none" xmlns="http://www.w3.org/2000/svg">
<rect y="0.00195312" width="96" height="96" rx="48" fill="#F0EFF5"/>
<g clip-path="url(#clip0_4234_21444)">
<path d="M54 60.002C54.9 57.0113 56.7656 54.4613 58.6125 51.9207C59.1 51.2551 59.5875 50.5895 60.0563 49.9145C61.9125 47.2426 63 44.0082 63 40.5113C63 31.3895 55.6125 24.002 46.5 24.002C37.3875 24.002 30 31.3895 30 40.502C30 43.9988 31.0875 47.2426 32.9437 49.9051C33.4125 50.5801 33.9 51.2457 34.3875 51.9113C36.2344 54.4613 38.1 57.0113 39 60.002H54ZM46.5 72.002C50.6437 72.002 54 68.6457 54 64.502V63.002H39V64.502C39 68.6457 42.3562 72.002 46.5 72.002ZM39 40.502C39 41.327 38.325 42.002 37.5 42.002C36.675 42.002 36 41.327 36 40.502C36 34.6988 40.6969 30.002 46.5 30.002C47.325 30.002 48 30.677 48 31.502C48 32.327 47.325 33.002 46.5 33.002C42.3562 33.002 39 36.3582 39 40.502Z" fill="#403580"/>
</g>
<defs>
<clipPath id="clip0_4234_21444">
<rect width="36" height="48" fill="white" transform="translate(30 24.002)"/>
</clipPath>
</defs>
</svg>
