<svg width="96" height="97" viewBox="0 0 96 97" fill="none" xmlns="http://www.w3.org/2000/svg">
<rect y="0.00195312" width="96" height="96" rx="48" fill="#F0EFF5"/>
<g clip-path="url(#clip0_4234_21425)">
<path d="M37.7143 21.002C39.6107 21.002 41.1429 22.5381 41.1429 24.4395V27.877H54.8571V24.4395C54.8571 22.5381 56.3893 21.002 58.2857 21.002C60.1821 21.002 61.7143 22.5381 61.7143 24.4395V27.877H66.8571C69.6964 27.877 72 30.1865 72 33.0332V38.1895H24V33.0332C24 30.1865 26.3036 27.877 29.1429 27.877H34.2857V24.4395C34.2857 22.5381 35.8179 21.002 37.7143 21.002ZM24 41.627H72V70.8457C72 73.6924 69.6964 76.002 66.8571 76.002H29.1429C26.3036 76.002 24 73.6924 24 70.8457V41.627ZM30.8571 50.2207V53.6582C30.8571 54.6035 31.6286 55.377 32.5714 55.377H36C36.9429 55.377 37.7143 54.6035 37.7143 53.6582V50.2207C37.7143 49.2754 36.9429 48.502 36 48.502H32.5714C31.6286 48.502 30.8571 49.2754 30.8571 50.2207ZM44.5714 50.2207V53.6582C44.5714 54.6035 45.3429 55.377 46.2857 55.377H49.7143C50.6571 55.377 51.4286 54.6035 51.4286 53.6582V50.2207C51.4286 49.2754 50.6571 48.502 49.7143 48.502H46.2857C45.3429 48.502 44.5714 49.2754 44.5714 50.2207ZM60 48.502C59.0571 48.502 58.2857 49.2754 58.2857 50.2207V53.6582C58.2857 54.6035 59.0571 55.377 60 55.377H63.4286C64.3714 55.377 65.1429 54.6035 65.1429 53.6582V50.2207C65.1429 49.2754 64.3714 48.502 63.4286 48.502H60ZM30.8571 63.9707V67.4082C30.8571 68.3535 31.6286 69.127 32.5714 69.127H36C36.9429 69.127 37.7143 68.3535 37.7143 67.4082V63.9707C37.7143 63.0254 36.9429 62.252 36 62.252H32.5714C31.6286 62.252 30.8571 63.0254 30.8571 63.9707ZM46.2857 62.252C45.3429 62.252 44.5714 63.0254 44.5714 63.9707V67.4082C44.5714 68.3535 45.3429 69.127 46.2857 69.127H49.7143C50.6571 69.127 51.4286 68.3535 51.4286 67.4082V63.9707C51.4286 63.0254 50.6571 62.252 49.7143 62.252H46.2857ZM58.2857 63.9707V67.4082C58.2857 68.3535 59.0571 69.127 60 69.127H63.4286C64.3714 69.127 65.1429 68.3535 65.1429 67.4082V63.9707C65.1429 63.0254 64.3714 62.252 63.4286 62.252H60C59.0571 62.252 58.2857 63.0254 58.2857 63.9707Z" fill="#403580"/>
</g>
<defs>
<clipPath id="clip0_4234_21425">
<rect width="48" height="55" fill="white" transform="translate(24 21.002)"/>
</clipPath>
</defs>
</svg>
