<svg width="28" height="27" viewBox="0 0 28 27" fill="none" xmlns="http://www.w3.org/2000/svg">
<path d="M14 0.375C17.481 0.375 20.8194 1.75781 23.2808 4.21922C25.7422 6.68064 27.125 10.019 27.125 13.5C27.125 16.981 25.7422 20.3194 23.2808 22.7808C20.8194 25.2422 17.481 26.625 14 26.625C10.519 26.625 7.18064 25.2422 4.71922 22.7808C2.25781 20.3194 0.875 16.981 0.875 13.5C0.875 10.019 2.25781 6.68064 4.71922 4.21922C7.18064 1.75781 10.519 0.375 14 0.375ZM12.365 16.0894L9.44938 13.1719C9.34485 13.0674 9.22076 12.9844 9.0842 12.9279C8.94763 12.8713 8.80126 12.8422 8.65344 12.8422C8.50562 12.8422 8.35925 12.8713 8.22268 12.9279C8.08611 12.9844 7.96202 13.0674 7.8575 13.1719C7.6464 13.383 7.52781 13.6693 7.52781 13.9678C7.52781 14.2663 7.6464 14.5527 7.8575 14.7638L11.57 18.4762C11.6742 18.5813 11.7982 18.6647 11.9348 18.7216C12.0714 18.7785 12.218 18.8078 12.3659 18.8078C12.5139 18.8078 12.6604 18.7785 12.797 18.7216C12.9337 18.6647 13.0576 18.5813 13.1619 18.4762L20.8494 10.7869C20.9553 10.6828 21.0396 10.5588 21.0973 10.4219C21.1551 10.2851 21.1851 10.1382 21.1858 9.98971C21.1865 9.84121 21.1578 9.69404 21.1013 9.55669C21.0449 9.41934 20.9618 9.29453 20.8568 9.18945C20.7519 9.08438 20.6271 9.00113 20.4899 8.9445C20.3526 8.88786 20.2054 8.85897 20.0569 8.85949C19.9084 8.86 19.7615 8.88992 19.6246 8.9475C19.4877 9.00508 19.3636 9.0892 19.2594 9.195L12.365 16.0894Z" fill="#30C10B"/>
</svg>
