<svg width="18" height="23" viewBox="0 0 18 23" fill="none" xmlns="http://www.w3.org/2000/svg">
<path d="M2.2302 6.97058C1.90981 4.8604 3.39767 2.96493 5.67056 2.27049C6.0739 2.14717 6.50909 2.18227 6.88745 2.36865C7.26581 2.55502 7.55887 2.87864 7.70693 3.27358L8.4366 5.21937C8.55407 5.53239 8.57531 5.87338 8.4976 6.19857C8.41989 6.52375 8.24678 6.81829 8.00048 7.04439L5.82991 9.03212C5.72292 9.1303 5.6432 9.25453 5.59851 9.3927C5.55383 9.53087 5.54571 9.67826 5.57495 9.8205L5.59507 9.90772L5.64707 10.1258C5.91701 11.1853 6.32832 12.2037 6.8699 13.1535C7.45987 14.1628 8.19201 15.0819 9.04383 15.8826L9.11092 15.943C9.21928 16.0392 9.35072 16.1057 9.49241 16.136C9.6341 16.1662 9.78122 16.1593 9.91943 16.1158L12.7257 15.2318C13.0447 15.1317 13.3862 15.1291 13.7066 15.2245C14.027 15.3198 14.3116 15.5087 14.5239 15.7669L15.8524 17.3789C16.406 18.0499 16.3389 19.0362 15.7031 19.6283C13.9637 21.2504 11.5717 21.5825 9.90769 20.2456C7.86801 18.6003 6.14854 16.5937 4.83521 14.326C3.51122 12.0601 2.62684 9.56458 2.22852 6.97058H2.2302ZM7.33455 9.93121L9.13273 8.28064C9.62561 7.82864 9.97216 7.23964 10.1279 6.58926C10.2836 5.93889 10.2414 5.25681 10.0067 4.6306L9.27866 2.68481C8.98066 1.89013 8.39087 1.23898 7.62946 0.864045C6.86806 0.489108 5.99234 0.418599 5.18076 0.666884C2.35768 1.53075 0.0914997 4.06196 0.571238 7.22387C0.90672 9.43134 1.68001 12.2393 3.38593 15.1714C4.80285 17.6166 6.65764 19.7801 8.85763 21.554C11.3536 23.5585 14.6849 22.8741 16.8488 20.8578C17.468 20.2813 17.8438 19.4903 17.8996 18.6462C17.9554 17.802 17.6869 16.9684 17.1491 16.3154L15.8206 14.7018C15.3956 14.1859 14.8262 13.8088 14.1854 13.6187C13.5447 13.4286 12.8617 13.4343 12.2242 13.6349L9.89427 14.368C9.2927 13.7477 8.76577 13.0592 8.32422 12.3165C7.89769 11.5656 7.5653 10.765 7.33455 9.93288V9.93121Z" fill="#FFAD90"/>
</svg>
