<svg width="24" height="24" viewBox="0 0 24 24" fill="none" xmlns="http://www.w3.org/2000/svg">
<path d="M22.0002 10.9995V16.9995C22.0002 20.9995 21.0002 21.9995 17.0002 21.9995H7.00024C3.00024 21.9995 2.00024 20.9995 2.00024 16.9995V6.99951C2.00024 2.99951 3.00024 1.99951 7.00024 1.99951H8.50024C10.0002 1.99951 10.3302 2.43951 10.9002 3.19951L12.4002 5.19951C12.7802 5.69951 13.0002 5.99951 14.0002 5.99951H17.0002C21.0002 5.99951 22.0002 6.99951 22.0002 10.9995Z" fill="#1042F1"/>
<path d="M4.05591 10.6874H6.14841C6.49841 10.6874 6.83591 10.7424 7.16091 10.8524C7.48591 10.9574 7.77341 11.1199 8.02341 11.3399C8.27341 11.5599 8.47341 11.8374 8.62341 12.1724C8.77341 12.5024 8.84841 12.8924 8.84841 13.3424C8.84841 13.7974 8.76091 14.1924 8.58591 14.5274C8.41591 14.8574 8.19341 15.1324 7.91841 15.3524C7.64841 15.5674 7.34591 15.7299 7.01091 15.8399C6.68091 15.9449 6.35591 15.9974 6.03591 15.9974H4.05591V10.6874ZM5.70591 15.1424C6.00091 15.1424 6.27841 15.1099 6.53841 15.0449C6.80341 14.9749 7.03341 14.8699 7.22841 14.7299C7.42341 14.5849 7.57591 14.3999 7.68591 14.1749C7.80091 13.9449 7.85841 13.6674 7.85841 13.3424C7.85841 13.0224 7.80841 12.7474 7.70841 12.5174C7.60841 12.2874 7.46841 12.1024 7.28841 11.9624C7.11341 11.8174 6.90341 11.7124 6.65841 11.6474C6.41841 11.5774 6.15341 11.5424 5.86341 11.5424H5.00091V15.1424H5.70591Z" fill="#F5F5F5"/>
<path d="M9.46183 13.3649C9.46183 12.9399 9.53183 12.5549 9.67183 12.2099C9.81183 11.8599 10.0043 11.5624 10.2493 11.3174C10.4993 11.0724 10.7943 10.8849 11.1343 10.7549C11.4793 10.6199 11.8568 10.5524 12.2668 10.5524C12.6818 10.5474 13.0618 10.6099 13.4068 10.7399C13.7518 10.8649 14.0493 11.0499 14.2993 11.2949C14.5493 11.5399 14.7443 11.8349 14.8843 12.1799C15.0243 12.5249 15.0943 12.9099 15.0943 13.3349C15.0943 13.7499 15.0243 14.1274 14.8843 14.4674C14.7443 14.8074 14.5493 15.0999 14.2993 15.3449C14.0493 15.5899 13.7518 15.7824 13.4068 15.9224C13.0618 16.0574 12.6818 16.1274 12.2668 16.1324C11.8568 16.1324 11.4793 16.0674 11.1343 15.9374C10.7943 15.8024 10.4993 15.6149 10.2493 15.3749C10.0043 15.1299 9.81183 14.8374 9.67183 14.4974C9.53183 14.1574 9.46183 13.7799 9.46183 13.3649ZM10.4518 13.3049C10.4518 13.5899 10.4943 13.8524 10.5793 14.0924C10.6693 14.3324 10.7943 14.5399 10.9543 14.7149C11.1143 14.8899 11.3043 15.0274 11.5243 15.1274C11.7493 15.2274 11.9993 15.2774 12.2743 15.2774C12.5493 15.2774 12.7993 15.2274 13.0243 15.1274C13.2493 15.0274 13.4418 14.8899 13.6018 14.7149C13.7618 14.5399 13.8843 14.3324 13.9693 14.0924C14.0593 13.8524 14.1043 13.5899 14.1043 13.3049C14.1043 13.0399 14.0593 12.7924 13.9693 12.5624C13.8843 12.3324 13.7618 12.1324 13.6018 11.9624C13.4418 11.7874 13.2493 11.6524 13.0243 11.5574C12.7993 11.4574 12.5493 11.4074 12.2743 11.4074C11.9993 11.4074 11.7493 11.4574 11.5243 11.5574C11.3043 11.6524 11.1143 11.7874 10.9543 11.9624C10.7943 12.1324 10.6693 12.3324 10.5793 12.5624C10.4943 12.7924 10.4518 13.0399 10.4518 13.3049Z" fill="#F5F5F5"/>
<path d="M19.6394 11.9324C19.4444 11.7224 19.2544 11.5824 19.0694 11.5124C18.8894 11.4424 18.7069 11.4074 18.5219 11.4074C18.2469 11.4074 17.9969 11.4574 17.7719 11.5574C17.5519 11.6524 17.3619 11.7874 17.2019 11.9624C17.0419 12.1324 16.9169 12.3324 16.8269 12.5624C16.7419 12.7924 16.6994 13.0399 16.6994 13.3049C16.6994 13.5899 16.7419 13.8524 16.8269 14.0924C16.9169 14.3324 17.0419 14.5399 17.2019 14.7149C17.3619 14.8899 17.5519 15.0274 17.7719 15.1274C17.9969 15.2274 18.2469 15.2774 18.5219 15.2774C18.7369 15.2774 18.9444 15.2274 19.1444 15.1274C19.3494 15.0224 19.5394 14.8574 19.7144 14.6324L20.4944 15.1874C20.2544 15.5174 19.9619 15.7574 19.6169 15.9074C19.2719 16.0574 18.9044 16.1324 18.5144 16.1324C18.1044 16.1324 17.7269 16.0674 17.3819 15.9374C17.0419 15.8024 16.7469 15.6149 16.4969 15.3749C16.2519 15.1299 16.0594 14.8374 15.9194 14.4974C15.7794 14.1574 15.7094 13.7799 15.7094 13.3649C15.7094 12.9399 15.7794 12.5549 15.9194 12.2099C16.0594 11.8599 16.2519 11.5624 16.4969 11.3174C16.7469 11.0724 17.0419 10.8849 17.3819 10.7549C17.7269 10.6199 18.1044 10.5524 18.5144 10.5524C18.8744 10.5524 19.2069 10.6174 19.5119 10.7474C19.8219 10.8724 20.1094 11.0874 20.3744 11.3924L19.6394 11.9324Z" fill="#F5F5F5"/>
</svg>
