<svg width="18" height="24" viewBox="0 0 18 24" fill="none" xmlns="http://www.w3.org/2000/svg">
<path d="M4.125 0.445557C3.26305 0.445557 2.4364 0.787967 1.8269 1.39746C1.21741 2.00695 0.875 2.8336 0.875 3.69556V19.9456C0.875 20.8075 1.21741 21.6342 1.8269 22.2437C2.4364 22.8531 3.26305 23.1956 4.125 23.1956H13.875C14.737 23.1956 15.5636 22.8531 16.1731 22.2437C16.7826 21.6342 17.125 20.8075 17.125 19.9456V7.61831C17.1244 6.97206 16.8673 6.35249 16.41 5.89581L11.6764 1.15893C11.4499 0.932623 11.1811 0.753142 10.8853 0.63074C10.5894 0.508338 10.2724 0.445412 9.95225 0.445557H4.125ZM2.5 3.69556C2.5 3.26458 2.67121 2.85125 2.97595 2.54651C3.2807 2.24176 3.69402 2.07056 4.125 2.07056H9V6.13306C9 6.77952 9.25681 7.39951 9.71393 7.85663C10.171 8.31375 10.791 8.57056 11.4375 8.57056H15.5V19.9456C15.5 20.3765 15.3288 20.7899 15.024 21.0946C14.7193 21.3994 14.306 21.5706 13.875 21.5706H4.125C3.69402 21.5706 3.2807 21.3994 2.97595 21.0946C2.67121 20.7899 2.5 20.3765 2.5 19.9456V3.69556ZM15.1636 6.94556H11.4375C11.222 6.94556 11.0153 6.85995 10.863 6.70758C10.7106 6.55521 10.625 6.34855 10.625 6.13306V2.40693L15.1636 6.94556Z" fill="#191A1F"/>
</svg>
