<svg width="27" height="27" viewBox="0 0 27 27" fill="none" xmlns="http://www.w3.org/2000/svg">
<path d="M24.122 11.0616H23.2493V11.0166H13.4993V15.35H19.6218C18.7286 17.8725 16.3285 19.6833 13.4993 19.6833C9.90972 19.6833 6.99935 16.7729 6.99935 13.1833C6.99935 9.59368 9.90972 6.68331 13.4993 6.68331C15.1563 6.68331 16.6638 7.30839 17.8116 8.32943L20.8758 5.26523C18.9409 3.46202 16.3528 2.34998 13.4993 2.34998C7.51664 2.34998 2.66602 7.2006 2.66602 13.1833C2.66602 19.166 7.51664 24.0166 13.4993 24.0166C19.4821 24.0166 24.3327 19.166 24.3327 13.1833C24.3327 12.4569 24.2579 11.7479 24.122 11.0616Z" fill="#FFC107"/>
<path d="M3.91602 8.14093L7.47531 10.7512C8.43839 8.36681 10.7708 6.68331 13.5003 6.68331C15.1572 6.68331 16.6647 7.30839 17.8125 8.32943L20.8767 5.26523C18.9418 3.46202 16.3538 2.34998 13.5003 2.34998C9.33918 2.34998 5.7306 4.69918 3.91602 8.14093Z" fill="#FF3D00"/>
<path d="M13.4998 24.0167C16.2981 24.0167 18.8407 22.9458 20.7631 21.2044L17.4101 18.3671C16.2859 19.2221 14.9122 19.6845 13.4998 19.6834C10.6821 19.6834 8.28955 17.8866 7.38822 15.3793L3.85547 18.1011C5.64839 21.6095 9.28947 24.0167 13.4998 24.0167Z" fill="#4CAF50"/>
<path d="M24.1226 11.0617H23.25V11.0167H13.5V15.3501H19.6225C19.1952 16.5506 18.4256 17.5997 17.4087 18.3677L17.4103 18.3666L20.7632 21.2038C20.526 21.4194 24.3333 18.6001 24.3333 13.1834C24.3333 12.457 24.2586 11.748 24.1226 11.0617Z" fill="#1976D2"/>
</svg>
