<svg width="26" height="26" viewBox="0 0 26 26" fill="none" xmlns="http://www.w3.org/2000/svg">
<path d="M13.1123 0.000103506C13.5381 0.000103506 13.9573 0.0277285 14.3473 0.0927285C14.7314 0.143059 15.1104 0.226793 15.48 0.342978C15.8505 0.455103 16.2128 0.594854 16.5752 0.770354C16.9278 0.937729 17.2902 1.14248 17.6526 1.3651C18.2652 1.7551 18.8681 2.07035 19.4823 2.32223C20.6916 2.80621 21.9703 3.0942 23.2702 3.17535C23.93 3.22248 24.6076 3.2501 25.3128 3.2501V9.7501C25.3128 10.9851 25.1552 12.1551 24.84 13.2699C24.5371 14.3687 24.1068 15.4284 23.5578 16.4272C23.0112 17.4247 22.3643 18.3639 21.6273 19.2304C20.8791 20.1165 20.0689 20.9484 19.2028 21.7199C18.3254 22.4936 17.4012 23.2126 16.4355 23.873C15.4702 24.5425 14.4952 25.1649 13.5202 25.7304L13.1302 25.9627L12.7402 25.7304C11.7379 25.1501 10.7589 24.5305 9.80547 23.873C8.83436 23.2201 7.90969 22.5007 7.03809 21.7199C6.1726 20.9484 5.36294 20.1165 4.61522 19.2304C3.88022 18.3602 3.23049 17.4216 2.67497 16.4272C2.13536 15.4239 1.7055 14.3653 1.39284 13.2699C1.0756 12.1238 0.919182 10.9392 0.928095 9.7501V3.2501C1.63497 3.2501 2.31259 3.22248 2.97234 3.17535C3.62179 3.13024 4.26704 3.03737 4.90284 2.89748C5.52522 2.75773 6.14759 2.57248 6.76022 2.32223C7.39592 2.06566 8.00541 1.7484 8.58022 1.37485C9.29522 0.910103 10.02 0.567228 10.735 0.341353C11.505 0.105292 12.307 -0.00982769 13.1123 0.000103506ZM23.6781 4.84748C22.448 4.78779 21.2294 4.58214 20.0478 4.23485C18.8726 3.88427 17.7531 3.36831 16.7231 2.70248C16.1888 2.3518 15.6086 2.07673 14.999 1.8851C14.39 1.70105 13.7567 1.6101 13.1205 1.61535C12.4796 1.61121 11.8416 1.70211 11.2273 1.8851C10.6168 2.0705 10.0373 2.346 9.50809 2.70248C8.47631 3.37194 7.35396 3.89016 6.17522 4.24135C5.02309 4.5761 3.81734 4.78085 2.55309 4.8556V9.75823C2.55309 10.8356 2.69284 11.8659 2.97234 12.8587C3.25709 13.843 3.64946 14.7928 4.14234 15.6911C4.64114 16.5987 5.22904 17.4544 5.89734 18.2456C6.57497 19.0435 7.29809 19.7861 8.07809 20.4914C8.85809 21.1982 9.67547 21.8482 10.5302 22.4511C11.3931 23.0556 12.2576 23.6032 13.1205 24.1037C14.004 23.5894 14.8655 23.038 15.7026 22.4511C16.563 21.8501 17.3847 21.1956 18.1628 20.4914C18.9428 19.7861 19.6676 19.0435 20.3452 18.2456C21.0136 17.4545 21.6015 16.5988 22.1002 15.6911C22.5909 14.794 22.9775 13.8437 23.2523 12.8587C23.5403 11.8506 23.6837 10.8067 23.6781 9.75823V4.84748Z" fill="black"/>
<path fill-rule="evenodd" clip-rule="evenodd" d="M19.1706 7.65234L18.4556 7.03809L17.7958 7.09496L10.7108 15.4605L8.2977 12.0155L7.6477 11.905L6.89533 12.4428L6.7832 13.0928L9.88533 17.5226L10.238 17.7176L10.9806 17.7631L11.3608 17.5973L19.2177 8.31046L19.1706 7.65234Z" fill="black"/>
</svg>
