<svg width="20" height="20" viewBox="0 0 20 20" fill="none" xmlns="http://www.w3.org/2000/svg">
<path d="M10.0001 1.66663C5.39175 1.66663 1.66675 5.39163 1.66675 9.99996C1.66675 14.6083 5.39175 18.3333 10.0001 18.3333C14.6084 18.3333 18.3334 14.6083 18.3334 9.99996C18.3334 5.39163 14.6084 1.66663 10.0001 1.66663ZM13.5834 13.5833C13.5063 13.6605 13.4147 13.7218 13.3139 13.7637C13.2131 13.8055 13.1051 13.827 12.9959 13.827C12.8868 13.827 12.7787 13.8055 12.6779 13.7637C12.5771 13.7218 12.4855 13.6605 12.4084 13.5833L10.0001 11.175L7.59175 13.5833C7.43593 13.7391 7.2246 13.8266 7.00425 13.8266C6.78389 13.8266 6.57256 13.7391 6.41675 13.5833C6.26093 13.4275 6.1734 13.2161 6.1734 12.9958C6.1734 12.8867 6.19489 12.7786 6.23664 12.6778C6.2784 12.577 6.3396 12.4854 6.41675 12.4083L8.82508 9.99996L6.41675 7.59162C6.26093 7.43581 6.1734 7.22448 6.1734 7.00412C6.1734 6.78377 6.26093 6.57244 6.41675 6.41663C6.57256 6.26081 6.78389 6.17327 7.00425 6.17327C7.2246 6.17327 7.43593 6.26081 7.59175 6.41663L10.0001 8.82496L12.4084 6.41663C12.4856 6.33947 12.5772 6.27827 12.678 6.23652C12.7788 6.19477 12.8868 6.17327 12.9959 6.17327C13.105 6.17327 13.2131 6.19477 13.3139 6.23652C13.4147 6.27827 13.5063 6.33947 13.5834 6.41663C13.6606 6.49378 13.7218 6.58537 13.7635 6.68617C13.8053 6.78698 13.8268 6.89502 13.8268 7.00412C13.8268 7.11323 13.8053 7.22127 13.7635 7.32208C13.7218 7.42288 13.6606 7.51447 13.5834 7.59162L11.1751 9.99996L13.5834 12.4083C13.9001 12.725 13.9001 13.2583 13.5834 13.5833Z" fill="black"/>
</svg>
