<svg width="169" height="43" viewBox="0 0 169 43" fill="none" xmlns="http://www.w3.org/2000/svg">
<g id="Icon and wordmark white">
<path d="M22.6889 30.6231C22.4388 29.8676 22.3137 29.04 22.3137 28.1406C22.3137 27.2591 22.4388 26.4405 22.6889 25.685C22.9557 24.9294 23.3308 24.2818 23.8143 23.7421C24.2978 23.1844 24.8731 22.7527 25.54 22.4468C26.2236 22.141 26.9822 21.9881 27.8158 21.9881C28.6495 21.9881 29.3998 22.141 30.0667 22.4468C30.7503 22.7527 31.3339 23.1844 31.8174 23.7421C32.3009 24.2818 32.6677 24.9294 32.9178 25.685C33.1846 26.4405 33.318 27.2591 33.318 28.1406C33.318 29.04 33.1846 29.8676 32.9178 30.6231C32.6677 31.3607 32.3009 32.0083 31.8174 32.566C31.3339 33.1057 30.7503 33.5285 30.0667 33.8343C29.3998 34.1401 28.6495 34.293 27.8158 34.293C26.9822 34.293 26.2236 34.1401 25.54 33.8343C24.8731 33.5285 24.2978 33.1057 23.8143 32.566C23.3308 32.0083 22.9557 31.3607 22.6889 30.6231Z" fill="#F5F5F5"/>
<path fill-rule="evenodd" clip-rule="evenodd" d="M4.15217 0.415344C1.85899 0.415344 0 2.29575 0 4.61534V38.2153C0 40.5349 1.85899 42.4153 4.15217 42.4153H37.3695C39.6627 42.4153 41.5217 40.5349 41.5217 38.2153V4.61534C41.5217 2.29575 39.6627 0.415344 37.3695 0.415344H4.15217ZM17.4119 4.61534V6.86735C17.4119 15.2956 14.3139 19.9116 10.8712 22.2965L10.8338 22.3223C10.816 22.3345 10.7983 22.3466 10.7806 22.3587C10.8178 22.3846 10.8551 22.4108 10.8923 22.4373C14.3341 24.8857 17.4119 29.6055 17.4119 38.2153H13.2466C13.2466 30.9433 10.7428 27.7222 8.6031 26.2001C7.47134 25.395 6.32915 24.9864 5.46434 24.7814C5.03477 24.6795 4.6836 24.6303 4.45101 24.6066C4.33509 24.5948 4.24981 24.5895 4.20034 24.5872C4.18595 24.5865 4.17463 24.5861 4.16652 24.5858L4.15747 24.5855L4.16367 24.5855C4.16367 24.5855 4.16622 24.5855 4.16622 22.3335C4.16622 20.0815 4.16374 20.0815 4.16374 20.0815L4.1615 20.0815L4.15775 20.0815L4.15314 20.0815L4.15522 20.0815C4.16155 20.0813 4.1776 20.0809 4.20272 20.0797C4.25304 20.0774 4.33921 20.0722 4.45607 20.0606C4.69053 20.0374 5.04378 19.9891 5.4755 19.8895C6.34521 19.6886 7.49094 19.2891 8.62426 18.504C10.7631 17.0223 13.2466 13.9052 13.2466 6.86735V4.61534H17.4119ZM18.9625 23.985C18.4956 25.2262 18.2622 26.6114 18.2622 28.1406C18.2622 29.6697 18.4956 31.0549 18.9625 32.2962C19.446 33.5375 20.1129 34.5988 20.9632 35.4803C21.8136 36.3438 22.8223 37.0095 23.9894 37.4772C25.1565 37.9449 26.432 38.1788 27.8158 38.1788C29.1997 38.1788 30.4752 37.9449 31.6423 37.4772C32.8094 37.0095 33.8181 36.3438 34.6685 35.4803C35.5188 34.5988 36.1774 33.5375 36.6442 32.2962C37.1277 31.0549 37.3695 29.6697 37.3695 28.1406C37.3695 26.6114 37.1277 25.2262 36.6442 23.985C36.1774 22.7437 35.5188 21.6913 34.6685 20.8278C33.8181 19.9463 32.8094 19.2717 31.6423 18.8039C30.4752 18.3362 29.1997 18.1024 27.8158 18.1024C26.432 18.1024 25.1565 18.3362 23.9894 18.8039C22.8223 19.2717 21.8136 19.9463 20.9632 20.8278C20.1129 21.6913 19.446 22.7437 18.9625 23.985Z" fill="#F5F5F5"/>
<path d="M46.5769 41.1028V18.8008H50.5007V28.2508H50.6876L59.812 18.8008H65.106L54.7982 29.1013L65.7911 41.1028H60.2791L50.7187 30.1408H50.5007V41.1028H46.5769Z" fill="#F5F5F5"/>
<path d="M74.6218 25.6048C79.1996 25.6048 82.7497 28.8178 82.7497 33.5428C82.7497 38.2678 79.1996 41.4808 74.6218 41.4808C70.0441 41.4808 66.4939 38.2678 66.4939 33.5428C66.4939 28.8493 70.0752 25.6048 74.6218 25.6048ZM70.2309 33.5428C70.2309 36.1573 72.0994 38.0788 74.6218 38.0788C77.2377 38.0788 79.0127 36.0628 79.0127 33.5428C79.0127 30.9283 77.1443 29.0068 74.5907 29.0068C72.0994 29.0068 70.2309 30.9598 70.2309 33.5428Z" fill="#F5F5F5"/>
<path d="M89.674 41.1028H85.937V25.9828H89.4871V28.4083H89.5494C90.4525 26.4238 92.1653 25.6048 94.1272 25.6048C98.5804 25.6048 99.5769 29.1013 99.5769 31.4323V41.1028H95.84V33.2593C95.84 30.2353 94.8746 29.0068 93.0995 29.0068C90.7016 29.0068 89.674 30.7708 89.674 32.7868V41.1028Z" fill="#F5F5F5"/>
<path d="M110.888 25.6048C115.621 25.6048 117.895 29.2273 117.895 33.7948V34.8658H106.497C106.746 37.0393 108.366 38.4568 110.514 38.4568C112.196 38.4568 113.473 37.7323 114.532 36.4093L117.21 38.4568C115.59 40.4728 113.442 41.4808 110.888 41.4808C106.31 41.4808 102.76 38.2678 102.76 33.5428C102.76 28.8493 106.31 25.6048 110.888 25.6048ZM106.497 32.0308H114.158C114.127 29.6683 112.538 28.4398 110.327 28.4398C108.116 28.4398 106.777 29.8888 106.497 32.0308Z" fill="#F5F5F5"/>
<path d="M128.458 25.6048C130.483 25.6048 132.507 26.3608 133.877 27.9043L131.292 30.5188C130.545 29.7313 129.58 29.0068 128.458 29.0068C125.749 29.0068 124.068 31.1173 124.068 33.5428C124.068 36.1573 125.936 38.0788 128.458 38.0788C129.58 38.0788 130.669 37.5748 131.355 36.6613L133.846 39.3703C132.6 40.5988 130.389 41.4808 128.458 41.4808C123.881 41.4808 120.331 38.2363 120.331 33.5428C120.331 29.1013 123.632 25.6048 128.458 25.6048Z" fill="#F5F5F5"/>
<path d="M137.129 29.1958H134.046V25.9828H137.129V21.6043H140.866V25.9828H144.976V29.1958H140.866V35.9053C140.866 37.5118 141.489 38.2678 142.952 38.2678C143.887 38.2678 144.665 38.0473 144.976 37.7953V40.9768C144.26 41.3233 142.859 41.4808 142.018 41.4808C138.499 41.4808 137.129 40.0948 137.129 36.2833V29.1958Z" fill="#F5F5F5"/>
<path d="M149.482 18.5803C150.852 18.5803 151.911 19.5568 151.911 20.8483C151.911 22.2028 150.821 23.1163 149.482 23.1163C148.143 23.1163 147.115 22.0768 147.115 20.8483C147.115 19.6198 148.143 18.5803 149.482 18.5803ZM151.381 25.9828V41.1028H147.644V25.9828H151.381Z" fill="#F5F5F5"/>
<path d="M159.097 41.1028H155.36V25.9828H158.91V28.4083H158.973C159.876 26.4238 161.588 25.6048 163.55 25.6048C168.003 25.6048 169 29.1013 169 31.4323V41.1028H165.263V33.2593C165.263 30.2353 164.298 29.0068 162.523 29.0068C160.125 29.0068 159.097 30.7708 159.097 32.7868V41.1028Z" fill="#F5F5F5"/>
</g>
</svg>
