<svg width="98" height="35" viewBox="0 0 98 35" fill="none" xmlns="http://www.w3.org/2000/svg">
<mask id="path-1-outside-1_3936_23094" maskUnits="userSpaceOnUse" x="0" y="0" width="98" height="35" fill="black">
<rect fill="white" width="98" height="35"/>
<path d="M37.8203 23.0273V33H35.6523V20.3203H37.7031L37.8203 23.0273ZM37.3047 26.1797L36.4023 26.1445C36.4102 25.2773 36.5391 24.4766 36.7891 23.7422C37.0391 23 37.3906 22.3555 37.8438 21.8086C38.2969 21.2617 38.8359 20.8398 39.4609 20.543C40.0938 20.2383 40.793 20.0859 41.5586 20.0859C42.1836 20.0859 42.7461 20.1719 43.2461 20.3438C43.7461 20.5078 44.1719 20.7734 44.5234 21.1406C44.8828 21.5078 45.1562 21.9844 45.3438 22.5703C45.5312 23.1484 45.625 23.8555 45.625 24.6914V33H43.4453V24.668C43.4453 24.0039 43.3477 23.4727 43.1523 23.0742C42.957 22.668 42.6719 22.375 42.2969 22.1953C41.9219 22.0078 41.4609 21.9141 40.9141 21.9141C40.375 21.9141 39.8828 22.0273 39.4375 22.2539C39 22.4805 38.6211 22.793 38.3008 23.1914C37.9883 23.5898 37.7422 24.0469 37.5625 24.5625C37.3906 25.0703 37.3047 25.6094 37.3047 26.1797Z"/>
<path d="M54.1797 33.2344C53.2969 33.2344 52.4961 33.0859 51.7773 32.7891C51.0664 32.4844 50.4531 32.0586 49.9375 31.5117C49.4297 30.9648 49.0391 30.3164 48.7656 29.5664C48.4922 28.8164 48.3555 27.9961 48.3555 27.1055V26.6133C48.3555 25.582 48.5078 24.6641 48.8125 23.8594C49.1172 23.0469 49.5312 22.3594 50.0547 21.7969C50.5781 21.2344 51.1719 20.8086 51.8359 20.5195C52.5 20.2305 53.1875 20.0859 53.8984 20.0859C54.8047 20.0859 55.5859 20.2422 56.2422 20.5547C56.9062 20.8672 57.4492 21.3047 57.8711 21.8672C58.293 22.4219 58.6055 23.0781 58.8086 23.8359C59.0117 24.5859 59.1133 25.4062 59.1133 26.2969V27.2695H49.6445V25.5H56.9453V25.3359C56.9141 24.7734 56.7969 24.2266 56.5938 23.6953C56.3984 23.1641 56.0859 22.7266 55.6562 22.3828C55.2266 22.0391 54.6406 21.8672 53.8984 21.8672C53.4062 21.8672 52.9531 21.9727 52.5391 22.1836C52.125 22.3867 51.7695 22.6914 51.4727 23.0977C51.1758 23.5039 50.9453 24 50.7812 24.5859C50.6172 25.1719 50.5352 25.8477 50.5352 26.6133V27.1055C50.5352 27.707 50.6172 28.2734 50.7812 28.8047C50.9531 29.3281 51.1992 29.7891 51.5195 30.1875C51.8477 30.5859 52.2422 30.8984 52.7031 31.125C53.1719 31.3516 53.7031 31.4648 54.2969 31.4648C55.0625 31.4648 55.7109 31.3086 56.2422 30.9961C56.7734 30.6836 57.2383 30.2656 57.6367 29.7422L58.9492 30.7852C58.6758 31.1992 58.3281 31.5938 57.9062 31.9688C57.4844 32.3438 56.9648 32.6484 56.3477 32.8828C55.7383 33.1172 55.0156 33.2344 54.1797 33.2344Z"/>
<path d="M66.7188 31.4531C67.2344 31.4531 67.7109 31.3477 68.1484 31.1367C68.5859 30.9258 68.9453 30.6367 69.2266 30.2695C69.5078 29.8945 69.668 29.4688 69.707 28.9922H71.7695C71.7305 29.7422 71.4766 30.4414 71.0078 31.0898C70.5469 31.7305 69.9414 32.25 69.1914 32.6484C68.4414 33.0391 67.6172 33.2344 66.7188 33.2344C65.7656 33.2344 64.9336 33.0664 64.2227 32.7305C63.5195 32.3945 62.9336 31.9336 62.4648 31.3477C62.0039 30.7617 61.6562 30.0898 61.4219 29.332C61.1953 28.5664 61.082 27.7578 61.082 26.9062V26.4141C61.082 25.5625 61.1953 24.7578 61.4219 24C61.6562 23.2344 62.0039 22.5586 62.4648 21.9727C62.9336 21.3867 63.5195 20.9258 64.2227 20.5898C64.9336 20.2539 65.7656 20.0859 66.7188 20.0859C67.7109 20.0859 68.5781 20.2891 69.3203 20.6953C70.0625 21.0938 70.6445 21.6406 71.0664 22.3359C71.4961 23.0234 71.7305 23.8047 71.7695 24.6797H69.707C69.668 24.1562 69.5195 23.6836 69.2617 23.2617C69.0117 22.8398 68.668 22.5039 68.2305 22.2539C67.8008 21.9961 67.2969 21.8672 66.7188 21.8672C66.0547 21.8672 65.4961 22 65.043 22.2656C64.5977 22.5234 64.2422 22.875 63.9766 23.3203C63.7188 23.7578 63.5312 24.2461 63.4141 24.7852C63.3047 25.3164 63.25 25.8594 63.25 26.4141V26.9062C63.25 27.4609 63.3047 28.0078 63.4141 28.5469C63.5234 29.0859 63.707 29.5742 63.9648 30.0117C64.2305 30.4492 64.5859 30.8008 65.0312 31.0664C65.4844 31.3242 66.0469 31.4531 66.7188 31.4531Z"/>
<path d="M79.5156 20.3203V21.9844H72.6602V20.3203H79.5156ZM74.9805 17.2383H77.1484V29.8594C77.1484 30.2891 77.2148 30.6133 77.3477 30.832C77.4805 31.0508 77.6523 31.1953 77.8633 31.2656C78.0742 31.3359 78.3008 31.3711 78.543 31.3711C78.7227 31.3711 78.9102 31.3555 79.1055 31.3242C79.3086 31.2852 79.4609 31.2539 79.5625 31.2305L79.5742 33C79.4023 33.0547 79.1758 33.1055 78.8945 33.1523C78.6211 33.207 78.2891 33.2344 77.8984 33.2344C77.3672 33.2344 76.8789 33.1289 76.4336 32.918C75.9883 32.707 75.6328 32.3555 75.3672 31.8633C75.1094 31.3633 74.9805 30.6914 74.9805 29.8477V17.2383Z"/>
<path d="M84.4141 20.3203V33H82.2344V20.3203H84.4141ZM82.0703 16.957C82.0703 16.6055 82.1758 16.3086 82.3867 16.0664C82.6055 15.8242 82.9258 15.7031 83.3477 15.7031C83.7617 15.7031 84.0781 15.8242 84.2969 16.0664C84.5234 16.3086 84.6367 16.6055 84.6367 16.957C84.6367 17.293 84.5234 17.582 84.2969 17.8242C84.0781 18.0586 83.7617 18.1758 83.3477 18.1758C82.9258 18.1758 82.6055 18.0586 82.3867 17.8242C82.1758 17.582 82.0703 17.293 82.0703 16.957Z"/>
<path d="M90.0625 23.0273V33H87.8945V20.3203H89.9453L90.0625 23.0273ZM89.5469 26.1797L88.6445 26.1445C88.6523 25.2773 88.7812 24.4766 89.0312 23.7422C89.2812 23 89.6328 22.3555 90.0859 21.8086C90.5391 21.2617 91.0781 20.8398 91.7031 20.543C92.3359 20.2383 93.0352 20.0859 93.8008 20.0859C94.4258 20.0859 94.9883 20.1719 95.4883 20.3438C95.9883 20.5078 96.4141 20.7734 96.7656 21.1406C97.125 21.5078 97.3984 21.9844 97.5859 22.5703C97.7734 23.1484 97.8672 23.8555 97.8672 24.6914V33H95.6875V24.668C95.6875 24.0039 95.5898 23.4727 95.3945 23.0742C95.1992 22.668 94.9141 22.375 94.5391 22.1953C94.1641 22.0078 93.7031 21.9141 93.1562 21.9141C92.6172 21.9141 92.125 22.0273 91.6797 22.2539C91.2422 22.4805 90.8633 22.793 90.543 23.1914C90.2305 23.5898 89.9844 24.0469 89.8047 24.5625C89.6328 25.0703 89.5469 25.6094 89.5469 26.1797Z"/>
<path fill-rule="evenodd" clip-rule="evenodd" d="M1 3C1 1.89543 1.89543 1 3 1H32C33.1046 1 34 1.89543 34 3V32C34 33.1046 33.1046 34 32 34H3C1.89543 34 1 33.1046 1 32V3ZM15.5 4L12 3C11.053 10.1589 7.12188 15.6893 3 15.5V19.5C8.55553 20.5725 10.7355 21.916 12 32L15.5 31.5C15.3995 31.0098 15.3033 30.5365 15.2104 30.0792C13.6371 22.3336 13.0036 19.2151 8 17.5C12.3799 14.5015 13.4633 11.0227 15.5 4ZM20.332 31.6016C21.2773 32.0312 22.3242 32.2461 23.4727 32.2461C24.6289 32.2461 25.6797 32.0312 26.625 31.6016C27.5781 31.1719 28.3984 30.5703 29.0859 29.7969C29.7734 29.0156 30.3008 28.1016 30.668 27.0547C31.043 26 31.2305 24.8477 31.2305 23.5977V23.3398C31.2305 22.0977 31.043 20.9531 30.668 19.9062C30.3008 18.8516 29.7734 17.9336 29.0859 17.1523C28.3984 16.3711 27.5781 15.7656 26.625 15.3359C25.6719 14.9062 24.6172 14.6914 23.4609 14.6914C22.3125 14.6914 21.2656 14.9062 20.3203 15.3359C19.375 15.7656 18.5625 16.3711 17.8828 17.1523C17.2031 17.9336 16.6797 18.8516 16.3125 19.9062C15.9453 20.9531 15.7617 22.0977 15.7617 23.3398V23.5977C15.7617 24.8477 15.9453 26 16.3125 27.0547C16.6797 28.1016 17.2031 29.0156 17.8828 29.7969C18.5703 30.5703 19.3867 31.1719 20.332 31.6016ZM25.8867 28.8359C25.2461 29.3359 24.4414 29.5859 23.4727 29.5859C22.5195 29.5859 21.7227 29.3359 21.082 28.8359C20.4492 28.3359 19.9727 27.6367 19.6523 26.7383C19.3398 25.8398 19.1836 24.793 19.1836 23.5977V23.3164C19.1836 22.1211 19.3398 21.0781 19.6523 20.1875C19.9727 19.2969 20.4492 18.6055 21.082 18.1133C21.7148 17.6133 22.5078 17.3633 23.4609 17.3633C24.4219 17.3633 25.2227 17.6133 25.8633 18.1133C26.5117 18.6133 27 19.3125 27.3281 20.2109C27.6562 21.1016 27.8203 22.1367 27.8203 23.3164V23.5977C27.8203 24.793 27.6562 25.8398 27.3281 26.7383C27.0078 27.6367 26.5273 28.3359 25.8867 28.8359Z"/>
</mask>
<path d="M37.8203 23.0273V33H35.6523V20.3203H37.7031L37.8203 23.0273ZM37.3047 26.1797L36.4023 26.1445C36.4102 25.2773 36.5391 24.4766 36.7891 23.7422C37.0391 23 37.3906 22.3555 37.8438 21.8086C38.2969 21.2617 38.8359 20.8398 39.4609 20.543C40.0938 20.2383 40.793 20.0859 41.5586 20.0859C42.1836 20.0859 42.7461 20.1719 43.2461 20.3438C43.7461 20.5078 44.1719 20.7734 44.5234 21.1406C44.8828 21.5078 45.1562 21.9844 45.3438 22.5703C45.5312 23.1484 45.625 23.8555 45.625 24.6914V33H43.4453V24.668C43.4453 24.0039 43.3477 23.4727 43.1523 23.0742C42.957 22.668 42.6719 22.375 42.2969 22.1953C41.9219 22.0078 41.4609 21.9141 40.9141 21.9141C40.375 21.9141 39.8828 22.0273 39.4375 22.2539C39 22.4805 38.6211 22.793 38.3008 23.1914C37.9883 23.5898 37.7422 24.0469 37.5625 24.5625C37.3906 25.0703 37.3047 25.6094 37.3047 26.1797Z" fill="#403580"/>
<path d="M54.1797 33.2344C53.2969 33.2344 52.4961 33.0859 51.7773 32.7891C51.0664 32.4844 50.4531 32.0586 49.9375 31.5117C49.4297 30.9648 49.0391 30.3164 48.7656 29.5664C48.4922 28.8164 48.3555 27.9961 48.3555 27.1055V26.6133C48.3555 25.582 48.5078 24.6641 48.8125 23.8594C49.1172 23.0469 49.5312 22.3594 50.0547 21.7969C50.5781 21.2344 51.1719 20.8086 51.8359 20.5195C52.5 20.2305 53.1875 20.0859 53.8984 20.0859C54.8047 20.0859 55.5859 20.2422 56.2422 20.5547C56.9062 20.8672 57.4492 21.3047 57.8711 21.8672C58.293 22.4219 58.6055 23.0781 58.8086 23.8359C59.0117 24.5859 59.1133 25.4062 59.1133 26.2969V27.2695H49.6445V25.5H56.9453V25.3359C56.9141 24.7734 56.7969 24.2266 56.5938 23.6953C56.3984 23.1641 56.0859 22.7266 55.6562 22.3828C55.2266 22.0391 54.6406 21.8672 53.8984 21.8672C53.4062 21.8672 52.9531 21.9727 52.5391 22.1836C52.125 22.3867 51.7695 22.6914 51.4727 23.0977C51.1758 23.5039 50.9453 24 50.7812 24.5859C50.6172 25.1719 50.5352 25.8477 50.5352 26.6133V27.1055C50.5352 27.707 50.6172 28.2734 50.7812 28.8047C50.9531 29.3281 51.1992 29.7891 51.5195 30.1875C51.8477 30.5859 52.2422 30.8984 52.7031 31.125C53.1719 31.3516 53.7031 31.4648 54.2969 31.4648C55.0625 31.4648 55.7109 31.3086 56.2422 30.9961C56.7734 30.6836 57.2383 30.2656 57.6367 29.7422L58.9492 30.7852C58.6758 31.1992 58.3281 31.5938 57.9062 31.9688C57.4844 32.3438 56.9648 32.6484 56.3477 32.8828C55.7383 33.1172 55.0156 33.2344 54.1797 33.2344Z" fill="#403580"/>
<path d="M66.7188 31.4531C67.2344 31.4531 67.7109 31.3477 68.1484 31.1367C68.5859 30.9258 68.9453 30.6367 69.2266 30.2695C69.5078 29.8945 69.668 29.4688 69.707 28.9922H71.7695C71.7305 29.7422 71.4766 30.4414 71.0078 31.0898C70.5469 31.7305 69.9414 32.25 69.1914 32.6484C68.4414 33.0391 67.6172 33.2344 66.7188 33.2344C65.7656 33.2344 64.9336 33.0664 64.2227 32.7305C63.5195 32.3945 62.9336 31.9336 62.4648 31.3477C62.0039 30.7617 61.6562 30.0898 61.4219 29.332C61.1953 28.5664 61.082 27.7578 61.082 26.9062V26.4141C61.082 25.5625 61.1953 24.7578 61.4219 24C61.6562 23.2344 62.0039 22.5586 62.4648 21.9727C62.9336 21.3867 63.5195 20.9258 64.2227 20.5898C64.9336 20.2539 65.7656 20.0859 66.7188 20.0859C67.7109 20.0859 68.5781 20.2891 69.3203 20.6953C70.0625 21.0938 70.6445 21.6406 71.0664 22.3359C71.4961 23.0234 71.7305 23.8047 71.7695 24.6797H69.707C69.668 24.1562 69.5195 23.6836 69.2617 23.2617C69.0117 22.8398 68.668 22.5039 68.2305 22.2539C67.8008 21.9961 67.2969 21.8672 66.7188 21.8672C66.0547 21.8672 65.4961 22 65.043 22.2656C64.5977 22.5234 64.2422 22.875 63.9766 23.3203C63.7188 23.7578 63.5312 24.2461 63.4141 24.7852C63.3047 25.3164 63.25 25.8594 63.25 26.4141V26.9062C63.25 27.4609 63.3047 28.0078 63.4141 28.5469C63.5234 29.0859 63.707 29.5742 63.9648 30.0117C64.2305 30.4492 64.5859 30.8008 65.0312 31.0664C65.4844 31.3242 66.0469 31.4531 66.7188 31.4531Z" fill="#403580"/>
<path d="M79.5156 20.3203V21.9844H72.6602V20.3203H79.5156ZM74.9805 17.2383H77.1484V29.8594C77.1484 30.2891 77.2148 30.6133 77.3477 30.832C77.4805 31.0508 77.6523 31.1953 77.8633 31.2656C78.0742 31.3359 78.3008 31.3711 78.543 31.3711C78.7227 31.3711 78.9102 31.3555 79.1055 31.3242C79.3086 31.2852 79.4609 31.2539 79.5625 31.2305L79.5742 33C79.4023 33.0547 79.1758 33.1055 78.8945 33.1523C78.6211 33.207 78.2891 33.2344 77.8984 33.2344C77.3672 33.2344 76.8789 33.1289 76.4336 32.918C75.9883 32.707 75.6328 32.3555 75.3672 31.8633C75.1094 31.3633 74.9805 30.6914 74.9805 29.8477V17.2383Z" fill="#403580"/>
<path d="M84.4141 20.3203V33H82.2344V20.3203H84.4141ZM82.0703 16.957C82.0703 16.6055 82.1758 16.3086 82.3867 16.0664C82.6055 15.8242 82.9258 15.7031 83.3477 15.7031C83.7617 15.7031 84.0781 15.8242 84.2969 16.0664C84.5234 16.3086 84.6367 16.6055 84.6367 16.957C84.6367 17.293 84.5234 17.582 84.2969 17.8242C84.0781 18.0586 83.7617 18.1758 83.3477 18.1758C82.9258 18.1758 82.6055 18.0586 82.3867 17.8242C82.1758 17.582 82.0703 17.293 82.0703 16.957Z" fill="#403580"/>
<path d="M90.0625 23.0273V33H87.8945V20.3203H89.9453L90.0625 23.0273ZM89.5469 26.1797L88.6445 26.1445C88.6523 25.2773 88.7812 24.4766 89.0312 23.7422C89.2812 23 89.6328 22.3555 90.0859 21.8086C90.5391 21.2617 91.0781 20.8398 91.7031 20.543C92.3359 20.2383 93.0352 20.0859 93.8008 20.0859C94.4258 20.0859 94.9883 20.1719 95.4883 20.3438C95.9883 20.5078 96.4141 20.7734 96.7656 21.1406C97.125 21.5078 97.3984 21.9844 97.5859 22.5703C97.7734 23.1484 97.8672 23.8555 97.8672 24.6914V33H95.6875V24.668C95.6875 24.0039 95.5898 23.4727 95.3945 23.0742C95.1992 22.668 94.9141 22.375 94.5391 22.1953C94.1641 22.0078 93.7031 21.9141 93.1562 21.9141C92.6172 21.9141 92.125 22.0273 91.6797 22.2539C91.2422 22.4805 90.8633 22.793 90.543 23.1914C90.2305 23.5898 89.9844 24.0469 89.8047 24.5625C89.6328 25.0703 89.5469 25.6094 89.5469 26.1797Z" fill="#403580"/>
<path fill-rule="evenodd" clip-rule="evenodd" d="M1 3C1 1.89543 1.89543 1 3 1H32C33.1046 1 34 1.89543 34 3V32C34 33.1046 33.1046 34 32 34H3C1.89543 34 1 33.1046 1 32V3ZM15.5 4L12 3C11.053 10.1589 7.12188 15.6893 3 15.5V19.5C8.55553 20.5725 10.7355 21.916 12 32L15.5 31.5C15.3995 31.0098 15.3033 30.5365 15.2104 30.0792C13.6371 22.3336 13.0036 19.2151 8 17.5C12.3799 14.5015 13.4633 11.0227 15.5 4ZM20.332 31.6016C21.2773 32.0312 22.3242 32.2461 23.4727 32.2461C24.6289 32.2461 25.6797 32.0312 26.625 31.6016C27.5781 31.1719 28.3984 30.5703 29.0859 29.7969C29.7734 29.0156 30.3008 28.1016 30.668 27.0547C31.043 26 31.2305 24.8477 31.2305 23.5977V23.3398C31.2305 22.0977 31.043 20.9531 30.668 19.9062C30.3008 18.8516 29.7734 17.9336 29.0859 17.1523C28.3984 16.3711 27.5781 15.7656 26.625 15.3359C25.6719 14.9062 24.6172 14.6914 23.4609 14.6914C22.3125 14.6914 21.2656 14.9062 20.3203 15.3359C19.375 15.7656 18.5625 16.3711 17.8828 17.1523C17.2031 17.9336 16.6797 18.8516 16.3125 19.9062C15.9453 20.9531 15.7617 22.0977 15.7617 23.3398V23.5977C15.7617 24.8477 15.9453 26 16.3125 27.0547C16.6797 28.1016 17.2031 29.0156 17.8828 29.7969C18.5703 30.5703 19.3867 31.1719 20.332 31.6016ZM25.8867 28.8359C25.2461 29.3359 24.4414 29.5859 23.4727 29.5859C22.5195 29.5859 21.7227 29.3359 21.082 28.8359C20.4492 28.3359 19.9727 27.6367 19.6523 26.7383C19.3398 25.8398 19.1836 24.793 19.1836 23.5977V23.3164C19.1836 22.1211 19.3398 21.0781 19.6523 20.1875C19.9727 19.2969 20.4492 18.6055 21.082 18.1133C21.7148 17.6133 22.5078 17.3633 23.4609 17.3633C24.4219 17.3633 25.2227 17.6133 25.8633 18.1133C26.5117 18.6133 27 19.3125 27.3281 20.2109C27.6562 21.1016 27.8203 22.1367 27.8203 23.3164V23.5977C27.8203 24.793 27.6562 25.8398 27.3281 26.7383C27.0078 27.6367 26.5273 28.3359 25.8867 28.8359Z" fill="#403580"/>
<path d="M37.8203 23.0273V33H35.6523V20.3203H37.7031L37.8203 23.0273ZM37.3047 26.1797L36.4023 26.1445C36.4102 25.2773 36.5391 24.4766 36.7891 23.7422C37.0391 23 37.3906 22.3555 37.8438 21.8086C38.2969 21.2617 38.8359 20.8398 39.4609 20.543C40.0938 20.2383 40.793 20.0859 41.5586 20.0859C42.1836 20.0859 42.7461 20.1719 43.2461 20.3438C43.7461 20.5078 44.1719 20.7734 44.5234 21.1406C44.8828 21.5078 45.1562 21.9844 45.3438 22.5703C45.5312 23.1484 45.625 23.8555 45.625 24.6914V33H43.4453V24.668C43.4453 24.0039 43.3477 23.4727 43.1523 23.0742C42.957 22.668 42.6719 22.375 42.2969 22.1953C41.9219 22.0078 41.4609 21.9141 40.9141 21.9141C40.375 21.9141 39.8828 22.0273 39.4375 22.2539C39 22.4805 38.6211 22.793 38.3008 23.1914C37.9883 23.5898 37.7422 24.0469 37.5625 24.5625C37.3906 25.0703 37.3047 25.6094 37.3047 26.1797Z" stroke="#F5F5F5" stroke-width="0.2" mask="url(#path-1-outside-1_3936_23094)"/>
<path d="M54.1797 33.2344C53.2969 33.2344 52.4961 33.0859 51.7773 32.7891C51.0664 32.4844 50.4531 32.0586 49.9375 31.5117C49.4297 30.9648 49.0391 30.3164 48.7656 29.5664C48.4922 28.8164 48.3555 27.9961 48.3555 27.1055V26.6133C48.3555 25.582 48.5078 24.6641 48.8125 23.8594C49.1172 23.0469 49.5312 22.3594 50.0547 21.7969C50.5781 21.2344 51.1719 20.8086 51.8359 20.5195C52.5 20.2305 53.1875 20.0859 53.8984 20.0859C54.8047 20.0859 55.5859 20.2422 56.2422 20.5547C56.9062 20.8672 57.4492 21.3047 57.8711 21.8672C58.293 22.4219 58.6055 23.0781 58.8086 23.8359C59.0117 24.5859 59.1133 25.4062 59.1133 26.2969V27.2695H49.6445V25.5H56.9453V25.3359C56.9141 24.7734 56.7969 24.2266 56.5938 23.6953C56.3984 23.1641 56.0859 22.7266 55.6562 22.3828C55.2266 22.0391 54.6406 21.8672 53.8984 21.8672C53.4062 21.8672 52.9531 21.9727 52.5391 22.1836C52.125 22.3867 51.7695 22.6914 51.4727 23.0977C51.1758 23.5039 50.9453 24 50.7812 24.5859C50.6172 25.1719 50.5352 25.8477 50.5352 26.6133V27.1055C50.5352 27.707 50.6172 28.2734 50.7812 28.8047C50.9531 29.3281 51.1992 29.7891 51.5195 30.1875C51.8477 30.5859 52.2422 30.8984 52.7031 31.125C53.1719 31.3516 53.7031 31.4648 54.2969 31.4648C55.0625 31.4648 55.7109 31.3086 56.2422 30.9961C56.7734 30.6836 57.2383 30.2656 57.6367 29.7422L58.9492 30.7852C58.6758 31.1992 58.3281 31.5938 57.9062 31.9688C57.4844 32.3438 56.9648 32.6484 56.3477 32.8828C55.7383 33.1172 55.0156 33.2344 54.1797 33.2344Z" stroke="#F5F5F5" stroke-width="0.2" mask="url(#path-1-outside-1_3936_23094)"/>
<path d="M66.7188 31.4531C67.2344 31.4531 67.7109 31.3477 68.1484 31.1367C68.5859 30.9258 68.9453 30.6367 69.2266 30.2695C69.5078 29.8945 69.668 29.4688 69.707 28.9922H71.7695C71.7305 29.7422 71.4766 30.4414 71.0078 31.0898C70.5469 31.7305 69.9414 32.25 69.1914 32.6484C68.4414 33.0391 67.6172 33.2344 66.7188 33.2344C65.7656 33.2344 64.9336 33.0664 64.2227 32.7305C63.5195 32.3945 62.9336 31.9336 62.4648 31.3477C62.0039 30.7617 61.6562 30.0898 61.4219 29.332C61.1953 28.5664 61.082 27.7578 61.082 26.9062V26.4141C61.082 25.5625 61.1953 24.7578 61.4219 24C61.6562 23.2344 62.0039 22.5586 62.4648 21.9727C62.9336 21.3867 63.5195 20.9258 64.2227 20.5898C64.9336 20.2539 65.7656 20.0859 66.7188 20.0859C67.7109 20.0859 68.5781 20.2891 69.3203 20.6953C70.0625 21.0938 70.6445 21.6406 71.0664 22.3359C71.4961 23.0234 71.7305 23.8047 71.7695 24.6797H69.707C69.668 24.1562 69.5195 23.6836 69.2617 23.2617C69.0117 22.8398 68.668 22.5039 68.2305 22.2539C67.8008 21.9961 67.2969 21.8672 66.7188 21.8672C66.0547 21.8672 65.4961 22 65.043 22.2656C64.5977 22.5234 64.2422 22.875 63.9766 23.3203C63.7188 23.7578 63.5312 24.2461 63.4141 24.7852C63.3047 25.3164 63.25 25.8594 63.25 26.4141V26.9062C63.25 27.4609 63.3047 28.0078 63.4141 28.5469C63.5234 29.0859 63.707 29.5742 63.9648 30.0117C64.2305 30.4492 64.5859 30.8008 65.0312 31.0664C65.4844 31.3242 66.0469 31.4531 66.7188 31.4531Z" stroke="#F5F5F5" stroke-width="0.2" mask="url(#path-1-outside-1_3936_23094)"/>
<path d="M79.5156 20.3203V21.9844H72.6602V20.3203H79.5156ZM74.9805 17.2383H77.1484V29.8594C77.1484 30.2891 77.2148 30.6133 77.3477 30.832C77.4805 31.0508 77.6523 31.1953 77.8633 31.2656C78.0742 31.3359 78.3008 31.3711 78.543 31.3711C78.7227 31.3711 78.9102 31.3555 79.1055 31.3242C79.3086 31.2852 79.4609 31.2539 79.5625 31.2305L79.5742 33C79.4023 33.0547 79.1758 33.1055 78.8945 33.1523C78.6211 33.207 78.2891 33.2344 77.8984 33.2344C77.3672 33.2344 76.8789 33.1289 76.4336 32.918C75.9883 32.707 75.6328 32.3555 75.3672 31.8633C75.1094 31.3633 74.9805 30.6914 74.9805 29.8477V17.2383Z" stroke="#F5F5F5" stroke-width="0.2" mask="url(#path-1-outside-1_3936_23094)"/>
<path d="M84.4141 20.3203V33H82.2344V20.3203H84.4141ZM82.0703 16.957C82.0703 16.6055 82.1758 16.3086 82.3867 16.0664C82.6055 15.8242 82.9258 15.7031 83.3477 15.7031C83.7617 15.7031 84.0781 15.8242 84.2969 16.0664C84.5234 16.3086 84.6367 16.6055 84.6367 16.957C84.6367 17.293 84.5234 17.582 84.2969 17.8242C84.0781 18.0586 83.7617 18.1758 83.3477 18.1758C82.9258 18.1758 82.6055 18.0586 82.3867 17.8242C82.1758 17.582 82.0703 17.293 82.0703 16.957Z" stroke="#F5F5F5" stroke-width="0.2" mask="url(#path-1-outside-1_3936_23094)"/>
<path d="M90.0625 23.0273V33H87.8945V20.3203H89.9453L90.0625 23.0273ZM89.5469 26.1797L88.6445 26.1445C88.6523 25.2773 88.7812 24.4766 89.0312 23.7422C89.2812 23 89.6328 22.3555 90.0859 21.8086C90.5391 21.2617 91.0781 20.8398 91.7031 20.543C92.3359 20.2383 93.0352 20.0859 93.8008 20.0859C94.4258 20.0859 94.9883 20.1719 95.4883 20.3438C95.9883 20.5078 96.4141 20.7734 96.7656 21.1406C97.125 21.5078 97.3984 21.9844 97.5859 22.5703C97.7734 23.1484 97.8672 23.8555 97.8672 24.6914V33H95.6875V24.668C95.6875 24.0039 95.5898 23.4727 95.3945 23.0742C95.1992 22.668 94.9141 22.375 94.5391 22.1953C94.1641 22.0078 93.7031 21.9141 93.1562 21.9141C92.6172 21.9141 92.125 22.0273 91.6797 22.2539C91.2422 22.4805 90.8633 22.793 90.543 23.1914C90.2305 23.5898 89.9844 24.0469 89.8047 24.5625C89.6328 25.0703 89.5469 25.6094 89.5469 26.1797Z" stroke="#F5F5F5" stroke-width="0.2" mask="url(#path-1-outside-1_3936_23094)"/>
<path fill-rule="evenodd" clip-rule="evenodd" d="M1 3C1 1.89543 1.89543 1 3 1H32C33.1046 1 34 1.89543 34 3V32C34 33.1046 33.1046 34 32 34H3C1.89543 34 1 33.1046 1 32V3ZM15.5 4L12 3C11.053 10.1589 7.12188 15.6893 3 15.5V19.5C8.55553 20.5725 10.7355 21.916 12 32L15.5 31.5C15.3995 31.0098 15.3033 30.5365 15.2104 30.0792C13.6371 22.3336 13.0036 19.2151 8 17.5C12.3799 14.5015 13.4633 11.0227 15.5 4ZM20.332 31.6016C21.2773 32.0312 22.3242 32.2461 23.4727 32.2461C24.6289 32.2461 25.6797 32.0312 26.625 31.6016C27.5781 31.1719 28.3984 30.5703 29.0859 29.7969C29.7734 29.0156 30.3008 28.1016 30.668 27.0547C31.043 26 31.2305 24.8477 31.2305 23.5977V23.3398C31.2305 22.0977 31.043 20.9531 30.668 19.9062C30.3008 18.8516 29.7734 17.9336 29.0859 17.1523C28.3984 16.3711 27.5781 15.7656 26.625 15.3359C25.6719 14.9062 24.6172 14.6914 23.4609 14.6914C22.3125 14.6914 21.2656 14.9062 20.3203 15.3359C19.375 15.7656 18.5625 16.3711 17.8828 17.1523C17.2031 17.9336 16.6797 18.8516 16.3125 19.9062C15.9453 20.9531 15.7617 22.0977 15.7617 23.3398V23.5977C15.7617 24.8477 15.9453 26 16.3125 27.0547C16.6797 28.1016 17.2031 29.0156 17.8828 29.7969C18.5703 30.5703 19.3867 31.1719 20.332 31.6016ZM25.8867 28.8359C25.2461 29.3359 24.4414 29.5859 23.4727 29.5859C22.5195 29.5859 21.7227 29.3359 21.082 28.8359C20.4492 28.3359 19.9727 27.6367 19.6523 26.7383C19.3398 25.8398 19.1836 24.793 19.1836 23.5977V23.3164C19.1836 22.1211 19.3398 21.0781 19.6523 20.1875C19.9727 19.2969 20.4492 18.6055 21.082 18.1133C21.7148 17.6133 22.5078 17.3633 23.4609 17.3633C24.4219 17.3633 25.2227 17.6133 25.8633 18.1133C26.5117 18.6133 27 19.3125 27.3281 20.2109C27.6562 21.1016 27.8203 22.1367 27.8203 23.3164V23.5977C27.8203 24.793 27.6562 25.8398 27.3281 26.7383C27.0078 27.6367 26.5273 28.3359 25.8867 28.8359Z" stroke="#F5F5F5" stroke-width="0.2" mask="url(#path-1-outside-1_3936_23094)"/>
</svg>
