<svg xmlns="http://www.w3.org/2000/svg" width="48" height="49" viewBox="0 0 48 49" fill="none">
  <path d="M32 34.5V28.5H18V20.5H32V14.5L42 24.5L32 34.5ZM28 4.5C29.0609 4.5 30.0783 4.92143 30.8284 5.67157C31.5786 6.42172 32 7.43913 32 8.5V12.5H28V8.5H10V40.5H28V36.5H32V40.5C32 41.5609 31.5786 42.5783 30.8284 43.3284C30.0783 44.0786 29.0609 44.5 28 44.5H10C8.93913 44.5 7.92172 44.0786 7.17157 43.3284C6.42143 42.5783 6 41.5609 6 40.5V8.5C6 7.43913 6.42143 6.42172 7.17157 5.67157C7.92172 4.92143 8.93913 4.5 10 4.5H28Z" fill="#F5F5F5"/>
</svg>