<svg width="25" height="19" viewBox="0 0 25 19" fill="none" xmlns="http://www.w3.org/2000/svg">
<path d="M23.3227 0.0214844H1.51644C1.05253 0.0214844 0.677734 0.39628 0.677734 0.860188V17.6343C0.677734 18.0982 1.05253 18.473 1.51644 18.473H23.3227C23.7866 18.473 24.1614 18.0982 24.1614 17.6343V0.860188C24.1614 0.39628 23.7866 0.0214844 23.3227 0.0214844ZM22.2744 2.9255V16.5859H2.56482V2.9255L1.84144 2.36199L2.87147 1.03841L3.99324 1.91119H20.8486L21.9703 1.03841L23.0004 2.36199L22.2744 2.9255ZM20.8486 1.90857L12.4196 8.46094L3.99061 1.90857L2.86885 1.03579L1.83882 2.35937L2.5622 2.92288L11.5154 9.88412C11.7728 10.0842 12.0896 10.1927 12.4157 10.1927C12.7417 10.1927 13.0585 10.0842 13.316 9.88412L22.2744 2.9255L22.9977 2.36199L21.9677 1.03841L20.8486 1.90857Z" fill="#FFAD90"/>
</svg>
