<svg width="43" height="25" viewBox="0 0 43 25" fill="none" xmlns="http://www.w3.org/2000/svg">
<path fill-rule="evenodd" clip-rule="evenodd" d="M29.8749 5.29583C31.1052 4.70781 32.2606 3.94116 33.3746 3.18989C33.614 3.02734 33.6818 2.70089 33.5109 2.47534C33.3552 2.2361 33.0305 2.17751 32.8066 2.32653C31.7276 3.05553 30.6102 3.80285 29.4352 4.36065C29.1839 4.47851 29.0734 4.78775 29.1927 5.04772C29.3119 5.30752 29.6235 5.41354 29.8749 5.29583Z" fill="white"/>
<path fill-rule="evenodd" clip-rule="evenodd" d="M30.3547 11.8681C33.3728 12.1028 36.4069 11.9518 39.4326 12.2573C39.7086 12.2917 39.9623 12.0835 39.9881 11.8022C40.0138 11.5209 39.8134 11.2619 39.522 11.2411C36.4921 10.9308 33.4539 11.0771 30.4316 10.8376C30.1435 10.8205 29.8953 11.0348 29.8731 11.3202C29.8663 11.5919 30.0666 11.851 30.3547 11.8681Z" fill="white"/>
<path fill-rule="evenodd" clip-rule="evenodd" d="M32.89 20.7467C32.0242 19.8549 31.1585 18.9631 30.2926 18.0711C30.1049 17.8576 29.775 17.8552 29.5686 18.0551C29.3622 18.2552 29.3681 18.5723 29.556 18.786C30.4231 19.6793 31.29 20.5725 32.157 21.4657C32.3601 21.6657 32.689 21.667 32.8943 21.4659C33.0843 21.2783 33.0929 20.9465 32.89 20.7467Z" fill="white"/>
<path d="M15.2622 3.41103L8.60946 6.60452C8.09745 6.85029 7.55037 6.91187 6.99269 6.78693C6.62771 6.70517 6.4452 6.66429 6.29824 6.64751C4.47337 6.43912 3.33594 7.88342 3.33594 9.54427V10.4557C3.33594 12.1166 4.47337 13.5609 6.29824 13.3525C6.4452 13.3357 6.62772 13.2948 6.99269 13.2131C7.55037 13.0881 8.09745 13.1497 8.60946 13.3955L15.2622 16.589C16.7893 17.3221 17.5529 17.6886 18.4043 17.4029C19.2556 17.1172 19.5478 16.5041 20.1323 15.278C21.7371 11.9112 21.7371 8.08885 20.1323 4.72196C19.5478 3.49586 19.2556 2.88281 18.4043 2.5971C17.5529 2.3114 16.7893 2.67794 15.2622 3.41103Z" stroke="white" stroke-width="2" stroke-linecap="round" stroke-linejoin="round"/>
<path d="M11.794 21.2709L10.3027 22.5C6.94109 19.8339 7.35177 18.5625 7.35177 13.5H8.4856C8.94572 16.3609 10.0311 17.716 11.5286 18.697C12.4511 19.3012 12.6413 20.5725 11.794 21.2709Z" stroke="white" stroke-width="2" stroke-linecap="round" stroke-linejoin="round"/>
<path d="M7.83594 13V7" stroke="white" stroke-width="1.5" stroke-linecap="round" stroke-linejoin="round"/>
</svg>
