<svg width="24" height="24" viewBox="0 0 24 24" fill="none" xmlns="http://www.w3.org/2000/svg">
<path d="M17.5391 8.30867C18.8977 8.30867 19.9991 7.20729 19.9991 5.84867C19.9991 4.49005 18.8977 3.38867 17.5391 3.38867C16.1805 3.38867 15.0791 4.49005 15.0791 5.84867C15.0791 7.20729 16.1805 8.30867 17.5391 8.30867Z" stroke="#191A1F" stroke-width="2" stroke-miterlimit="10" stroke-linecap="round" stroke-linejoin="round"/>
<path d="M6.45903 8.30867C7.81765 8.30867 8.91902 7.20729 8.91902 5.84867C8.91902 4.49005 7.81765 3.38867 6.45903 3.38867C5.10041 3.38867 3.99902 4.49005 3.99902 5.84867C3.99902 7.20729 5.10041 8.30867 6.45903 8.30867Z" stroke="#191A1F" stroke-width="2" stroke-miterlimit="10" stroke-linecap="round" stroke-linejoin="round"/>
<path d="M17.5391 20.6055C18.8977 20.6055 19.9991 19.5042 19.9991 18.1455C19.9991 16.7869 18.8977 15.6855 17.5391 15.6855C16.1805 15.6855 15.0791 16.7869 15.0791 18.1455C15.0791 19.5042 16.1805 20.6055 17.5391 20.6055Z" stroke="#191A1F" stroke-width="2" stroke-miterlimit="10" stroke-linecap="round" stroke-linejoin="round"/>
<path d="M6.45903 20.6055C7.81765 20.6055 8.91902 19.5042 8.91902 18.1455C8.91902 16.7869 7.81765 15.6855 6.45903 15.6855C5.10041 15.6855 3.99902 16.7869 3.99902 18.1455C3.99902 19.5042 5.10041 20.6055 6.45903 20.6055Z" stroke="#191A1F" stroke-width="2" stroke-miterlimit="10" stroke-linecap="round" stroke-linejoin="round"/>
</svg>
