<svg width="24" height="24" viewBox="0 0 24 24" fill="none" xmlns="http://www.w3.org/2000/svg">
<path d="M22 11V17C22 21 21 22 17 22H7C3 22 2 21 2 17V7C2 3 3 2 7 2H8.5C10 2 10.33 2.44 10.9 3.2L12.4 5.2C12.78 5.7 13 6 14 6H17C21 6 22 7 22 11Z" fill="#F11010"/>
<path d="M4.85186 11.0808H6.75586C7.02786 11.0808 7.2892 11.1075 7.53986 11.1608C7.79586 11.2141 8.01986 11.3048 8.21186 11.4328C8.40386 11.5555 8.55586 11.7235 8.66786 11.9368C8.7852 12.1448 8.84386 12.4061 8.84386 12.7208C8.84386 13.0781 8.78253 13.3661 8.65986 13.5848C8.5372 13.8035 8.37186 13.9741 8.16386 14.0968C7.95586 14.2141 7.71319 14.2941 7.43586 14.3368C7.16386 14.3795 6.87853 14.4008 6.57986 14.4008H5.85986V16.7448H4.85186V11.0808ZM6.46786 13.5368C6.61186 13.5368 6.7612 13.5315 6.91586 13.5208C7.07053 13.5101 7.21186 13.4781 7.33986 13.4248C7.47319 13.3715 7.57986 13.2915 7.65986 13.1848C7.74519 13.0781 7.78786 12.9288 7.78786 12.7368C7.78786 12.5608 7.75053 12.4221 7.67586 12.3208C7.60119 12.2141 7.5052 12.1341 7.38786 12.0808C7.27053 12.0221 7.13986 11.9848 6.99586 11.9688C6.85186 11.9528 6.71319 11.9448 6.57986 11.9448H5.85986V13.5368H6.46786Z" fill="#F5F5F5"/>
<path d="M9.74249 11.0808H11.9745C12.3478 11.0808 12.7078 11.1395 13.0545 11.2568C13.4012 11.3688 13.7078 11.5421 13.9745 11.7768C14.2412 12.0115 14.4545 12.3075 14.6145 12.6648C14.7745 13.0168 14.8545 13.4328 14.8545 13.9128C14.8545 14.3981 14.7612 14.8195 14.5745 15.1768C14.3932 15.5288 14.1558 15.8221 13.8625 16.0568C13.5745 16.2861 13.2518 16.4595 12.8945 16.5768C12.5425 16.6888 12.1958 16.7448 11.8545 16.7448H9.74249V11.0808ZM11.5025 15.8328C11.8172 15.8328 12.1132 15.7981 12.3905 15.7288C12.6732 15.6541 12.9185 15.5421 13.1265 15.3928C13.3345 15.2381 13.4972 15.0408 13.6145 14.8008C13.7372 14.5555 13.7985 14.2595 13.7985 13.9128C13.7985 13.5715 13.7452 13.2781 13.6385 13.0328C13.5318 12.7875 13.3825 12.5901 13.1905 12.4408C13.0038 12.2861 12.7798 12.1741 12.5185 12.1048C12.2625 12.0301 11.9798 11.9928 11.6705 11.9928H10.7505V15.8328H11.5025Z" fill="#F5F5F5"/>
<path d="M15.8128 11.0808H19.4688V11.9928H16.8208V13.4808H19.3168V14.3928H16.8208V16.7448H15.8128V11.0808Z" fill="#F5F5F5"/>
</svg>
