<svg width="24" height="24" viewBox="0 0 24 24" fill="none" xmlns="http://www.w3.org/2000/svg">
<g id="Product &#38; Services">
<path id="Vector" d="M2.00183 10.96C1.50183 10.68 1.35183 10.07 1.63183 9.59L3.13183 7C3.24183 6.8 3.41183 6.66 3.60183 6.58L11.4318 2.18C11.5918 2.06 11.7918 2 12.0018 2C12.2118 2 12.4118 2.06 12.5718 2.18L20.4718 6.62C20.6618 6.72 20.8218 6.88 20.9118 7.08L22.3618 9.6C22.6418 10.08 22.4718 10.69 22.0018 10.96L21.0018 11.54V16.5C21.0018 16.88 20.7918 17.21 20.4718 17.38L12.5718 21.82C12.4118 21.94 12.2118 22 12.0018 22C11.7918 22 11.5918 21.94 11.4318 21.82L3.53183 17.38C3.21183 17.21 3.00183 16.88 3.00183 16.5V10.96C2.70183 11.13 2.32183 11.14 2.00183 10.96ZM12.0018 4.15V10.85L17.9618 7.5L12.0018 4.15ZM5.00183 15.91L11.0018 19.29V12.58L5.00183 9.21V15.91ZM19.0018 15.91V12.69L14.0018 15.59C13.6718 15.77 13.3018 15.76 13.0018 15.6V19.29L19.0018 15.91ZM13.8518 13.36L20.1318 9.73L19.5518 8.72L13.2718 12.35L13.8518 13.36Z" fill="black"/>
</g>
</svg>
