<svg width="96" height="97" viewBox="0 0 96 97" fill="none" xmlns="http://www.w3.org/2000/svg">
<rect y="0.00195312" width="96" height="96" rx="48" fill="#F0EFF5"/>
<path d="M48.255 35.3908L40.995 41.2708C39.7875 42.2458 39.555 44.0008 40.47 45.2533C41.4375 46.5883 43.32 46.8508 44.6175 45.8383L52.065 40.0483C52.59 39.6433 53.34 39.7333 53.7525 40.2583C54.165 40.7833 54.0675 41.5333 53.5425 41.9458L51.975 43.1608L62.4 52.7608V38.6008H62.3475L62.055 38.4133L56.61 34.9258C55.4625 34.1908 54.12 33.8008 52.755 33.8008C51.12 33.8008 49.53 34.3633 48.255 35.3908ZM49.965 44.7208L46.0875 47.7358C43.725 49.5808 40.2975 49.1008 38.5275 46.6708C36.8625 44.3833 37.2825 41.1883 39.48 39.4108L45.72 34.3633C44.85 33.9958 43.9125 33.8083 42.96 33.8083C41.55 33.8008 40.1775 34.2208 39 35.0008L33.6 38.6008V55.4008H35.715L42.57 61.6558C44.04 62.9983 46.3125 62.8933 47.655 61.4233C48.0675 60.9658 48.345 60.4333 48.4875 59.8783L49.7625 61.0483C51.225 62.3908 53.505 62.2933 54.8475 60.8308C55.185 60.4633 55.4325 60.0358 55.59 59.5933C57.045 60.5683 59.025 60.3658 60.2475 59.0308C61.59 57.5683 61.4925 55.2883 60.03 53.9458L49.965 44.7208ZM25.2 38.6008C24.54 38.6008 24 39.1408 24 39.8008V55.4008C24 56.7283 25.0725 57.8008 26.4 57.8008H28.8C30.1275 57.8008 31.2 56.7283 31.2 55.4008V38.6008H25.2ZM27.6 53.0008C27.9183 53.0008 28.2235 53.1272 28.4485 53.3523C28.6736 53.5773 28.8 53.8825 28.8 54.2008C28.8 54.519 28.6736 54.8243 28.4485 55.0493C28.2235 55.2744 27.9183 55.4008 27.6 55.4008C27.2817 55.4008 26.9765 55.2744 26.7515 55.0493C26.5264 54.8243 26.4 54.519 26.4 54.2008C26.4 53.8825 26.5264 53.5773 26.7515 53.3523C26.9765 53.1272 27.2817 53.0008 27.6 53.0008ZM64.8 38.6008V55.4008C64.8 56.7283 65.8725 57.8008 67.2 57.8008H69.6C70.9275 57.8008 72 56.7283 72 55.4008V39.8008C72 39.1408 71.46 38.6008 70.8 38.6008H64.8ZM67.2 54.2008C67.2 53.8825 67.3264 53.5773 67.5515 53.3523C67.7765 53.1272 68.0817 53.0008 68.4 53.0008C68.7183 53.0008 69.0235 53.1272 69.2485 53.3523C69.4736 53.5773 69.6 53.8825 69.6 54.2008C69.6 54.519 69.4736 54.8243 69.2485 55.0493C69.0235 55.2744 68.7183 55.4008 68.4 55.4008C68.0817 55.4008 67.7765 55.2744 67.5515 55.0493C67.3264 54.8243 67.2 54.519 67.2 54.2008Z" fill="#403580"/>
</svg>
