<svg width="27" height="21" viewBox="0 0 27 21" fill="none" xmlns="http://www.w3.org/2000/svg">
<path d="M20.0764 3.39787C20.0859 3.5077 20.1027 3.63187 20.125 3.76574L18.7318 4.78473C18.5108 4.78993 17.4592 5.05183 15.7262 4.56765C15.2868 4.44486 14.8741 4.41337 14.4968 4.48435C14.1555 4.54906 13.8344 4.69376 13.5598 4.90659C13.143 4.89529 12.5244 4.78185 12.1872 4.84611C11.4246 4.99371 9.80598 5.94185 9.33527 6.08538C8.87465 6.22536 8.4147 6.44582 7.96598 6.74355C7.03153 6.6523 5.84159 6.44005 5.20292 6.31921L0.474609 4.0708L2.30805 13.8164L5.63743 14.6956C5.67198 14.6353 5.70766 14.5459 5.74413 14.4366L5.84702 14.4627C5.91586 14.5737 5.98942 14.6835 6.06762 14.7916C5.83846 15.4192 5.91819 16.0627 6.29011 16.5652C6.60868 16.9952 7.09877 17.2469 7.59257 17.2503C7.67395 17.5401 7.82659 17.8065 8.03997 18.0222C8.42255 18.4079 8.9481 18.5823 9.44676 18.4884C9.49188 18.48 9.53662 18.4695 9.58035 18.4559C9.68755 18.6345 9.8254 18.7938 9.98989 18.9232C10.356 19.2128 10.815 19.3319 11.2486 19.2503C11.2805 19.2443 11.3115 19.2376 11.3426 19.2293C11.437 19.4281 11.5681 19.6085 11.7323 19.7603C12.1103 20.1109 12.621 20.2657 13.0993 20.1757C13.3964 20.1198 13.6631 19.9754 13.8813 19.7578C14.4237 19.9774 14.8856 20.1166 15.2841 20.1806C15.4857 20.2216 15.6879 20.2241 15.8867 20.1867C16.357 20.0982 16.772 19.7927 17.0256 19.3474C17.1197 19.1817 17.1878 19.0035 17.2275 18.8191C17.3763 18.8352 17.5266 18.8295 17.6737 18.8021C18.1735 18.7081 18.6014 18.3742 18.8487 17.8846C18.9662 17.6524 19.0352 17.3988 19.0515 17.1391C19.0863 17.135 19.1205 17.1299 19.1544 17.1235C19.7321 17.0148 20.2213 16.5718 20.4296 15.9675C20.5393 15.653 20.5654 15.3153 20.5053 14.9876C21.0602 14.7952 21.4865 14.2946 21.6199 13.6565C21.7513 13.0278 21.5647 12.3965 21.1272 11.9233L22.5174 10.7544C22.583 10.8834 22.6458 11.0018 22.7029 11.0969L26.0892 8.38674L24.5527 0.219755L20.0764 3.39787ZM20.3041 4.61046C20.4101 5.03779 20.5471 5.51758 20.7013 6.01645C20.281 5.53995 19.8317 5.37107 19.3081 5.34349L20.3041 4.61046ZM20.0012 14.4876C19.0881 14.3539 16.9083 12.5913 16.9083 12.5913L16.9434 12.5847C17.1227 12.5377 17.4792 12.2727 17.9367 12.2812C17.1335 11.8173 16.4675 12.463 15.8917 12.2526C16.0844 12.6153 16.6849 12.6279 16.834 12.6049L18.9185 14.2721C19.8624 15.0267 19.5326 16.2421 18.7894 16.5655C18.2207 16.41 16.4203 14.9368 16.4203 14.9368C16.4689 14.9182 16.7495 14.7687 17.0609 14.7514C16.2607 14.3588 15.551 14.9635 15.0171 14.7229C15.4089 15.3334 16.2582 14.9983 16.3475 14.965L17.4823 15.961C18.3903 16.7575 18.018 17.9449 17.2677 18.2374C16.5326 18.1247 15.9229 17.3466 15.9229 17.3466C15.9902 17.3223 16.2031 17.1752 16.5427 17.1609C15.8577 16.7561 15.2609 17.3525 14.7941 17.1365C15.1527 17.6428 15.7629 17.3973 15.7977 17.3866C16.6196 18.2659 16.1579 19.4308 15.378 19.6098L15.3772 19.6099L15.3765 19.6105C14.8892 19.6174 14.324 19.3331 13.6929 19.0509C13.8446 18.8024 13.9437 18.3973 13.9437 18.3973C14.3133 17.2769 13.417 16.5163 12.6805 16.7346C13.3211 16.7865 13.9242 17.4783 13.6111 18.4313L13.4684 18.8219C13.3194 19.2778 13.0122 19.594 12.7461 19.6122C12.3361 19.6389 11.661 19.1599 11.7433 18.2895C11.8193 18.1884 12.45 16.6672 12.45 16.6672C12.8744 15.5721 12.0143 14.7621 11.2673 14.9357C11.9051 15.0253 12.4767 15.7502 12.1167 16.6819L11.608 17.9396C11.4371 18.3827 11.1616 18.6673 10.8508 18.6827C10.3684 18.7073 9.93072 18.1957 9.89479 17.5894C9.89148 17.5937 10.3038 16.9114 10.3038 16.9114C10.8271 15.8742 10.0426 14.9734 9.28079 15.0618C9.90913 15.2222 10.4128 16.0054 9.96831 16.8881L9.77233 17.2482C9.56181 17.6673 9.26032 17.9171 8.95185 17.8991C8.41336 17.8668 7.96485 16.955 8.15865 16.6469C8.31105 16.4046 8.72509 15.65 8.72509 15.65C9.24793 14.6124 8.46424 13.7119 7.70152 13.7996C8.33041 13.9607 8.83409 14.744 8.38967 15.6271L8.19353 15.9864C7.98202 16.409 7.67918 16.6582 7.36834 16.6385C6.72087 16.5983 6.23274 15.7022 6.67831 14.8164C6.67831 14.8164 6.35746 14.2162 6.21553 13.9605L5.89171 13.8784C6.28391 12.1201 6.66318 8.33087 6.48746 7.12876C7.03616 7.21528 8.46706 7.35036 8.61134 7.32405L8.61069 7.325C9.98555 6.59096 11.5266 6.35354 12.1745 5.95221C12.3847 5.82338 12.834 5.73307 13.3628 5.91632C13.1138 6.23394 12.8905 6.59838 12.6525 6.94368C12.0836 7.76957 9.68661 9.34159 10.4023 10.3859C11.0199 11.287 12.4279 12.063 14.1756 10.1002L15.2956 9.72574L17.2499 10.2717L19.9843 12.1941C20.9592 12.8779 20.7103 14.1021 20.0012 14.4876M20.0883 11.7864C19.7332 11.3447 18.7628 10.6935 17.866 10.1805L17.8603 10.1767C18.2196 10.124 18.4856 9.47946 18.9608 9.34418C18.5745 9.14981 18.0708 9.55295 17.9052 9.63289C16.9921 10.0725 15.2696 9.14364 15.2696 9.14364L13.8783 9.61869C13.8783 9.61869 12.568 12.0143 10.8134 10.5739C9.86058 9.79168 12.4523 8.04827 13.0171 7.22728C13.7406 6.17553 14.33 4.94441 15.9327 5.40599C17.2642 5.79044 17.7361 5.66238 19.4208 5.63935C19.9231 5.6329 20.302 5.79229 20.7451 6.15909C21.1844 7.55799 21.758 9.09325 22.2297 10.1479C22.1151 10.2881 21.0958 11.2926 20.0883 11.7864" fill="#191A1F"/>
</svg>
