<svg width="24" height="24" viewBox="0 0 24 24" fill="none" xmlns="http://www.w3.org/2000/svg">
<path d="M12.9998 3C16.8998 3 19.9998 6.1 19.9998 10C19.9998 12.8 18.3998 15.2 15.9998 16.3V21H8.99977V18H7.99977C6.89977 18 5.99977 17.1 5.99977 16V13H4.49977C4.09977 13 3.79977 12.5 4.09977 12.2L5.99977 9.7C6.19977 5.9 9.19977 3 12.9998 3ZM12.9998 1C8.39977 1 4.59977 4.4 4.09977 8.9L2.49977 11C1.89977 11.8 1.89977 12.8 2.29977 13.6C2.69977 14.3 3.29977 14.8 3.99977 14.9V16C3.99977 17.9 5.29977 19.4 6.99977 19.9V23H17.9998V17.5C20.4998 15.8 21.9998 13.1 21.9998 10C21.9998 5 17.9998 1 12.9998 1ZM13.9998 14H11.9998V13H13.9998V14ZM15.5998 9.5C15.2998 9.9 14.9998 10.3 14.4998 10.6V12H11.4998V10.6C10.0998 9.8 9.59977 7.9 10.3998 6.5C11.1998 5.1 13.0998 4.6 14.4998 5.4C15.8998 6.2 16.3998 8.1 15.5998 9.5Z" fill="#191A1F"/>
</svg>
