<svg width="96" height="97" viewBox="0 0 96 97" fill="none" xmlns="http://www.w3.org/2000/svg">
<rect y="0.00195312" width="96" height="96" rx="48" fill="#F0EFF5"/>
<g clip-path="url(#clip0_4234_21416)">
<path d="M69 27.0013C69 25.7919 68.2688 24.6951 67.1438 24.2263C66.0188 23.7576 64.7344 24.0201 63.8719 24.8732L59.7844 28.9701C55.2844 33.4701 49.1812 36.0013 42.8156 36.0013H42H39H30C26.6906 36.0013 24 38.6919 24 42.0013V51.0013C24 54.3107 26.6906 57.0013 30 57.0013V69.0013C30 70.6607 31.3406 72.0013 33 72.0013H39C40.6594 72.0013 42 70.6607 42 69.0013V57.0013H42.8156C49.1812 57.0013 55.2844 59.5326 59.7844 64.0326L63.8719 68.1201C64.7344 68.9826 66.0188 69.2357 67.1438 68.7669C68.2688 68.2982 69 67.2107 69 65.9919V52.1638C70.7438 51.3388 72 49.1169 72 46.5013C72 43.8857 70.7438 41.6638 69 40.8388V27.0013ZM63 34.1919V46.5013V58.8107C57.4875 53.7951 50.2969 51.0013 42.8156 51.0013H42V42.0013H42.8156C50.2969 42.0013 57.4875 39.2076 63 34.1919Z" fill="#403580"/>
</g>
<defs>
<clipPath id="clip0_4234_21416">
<rect width="48" height="48" fill="white" transform="translate(24 24.002)"/>
</clipPath>
</defs>
</svg>
