<svg width="24" height="25" viewBox="0 0 24 25" fill="none" xmlns="http://www.w3.org/2000/svg">
<path d="M3.33366 6.32064C3.90829 6.32064 4.45939 6.09237 4.86572 5.68604C5.27205 5.27971 5.50033 4.72861 5.50033 4.15397C5.50033 3.57934 5.27205 3.02824 4.86572 2.62191C4.45939 2.21558 3.90829 1.9873 3.33366 1.9873C2.75902 1.9873 2.20792 2.21558 1.80159 2.62191C1.39527 3.02824 1.16699 3.57934 1.16699 4.15397C1.16699 4.72861 1.39527 5.27971 1.80159 5.68604C2.20792 6.09237 2.75902 6.32064 3.33366 6.32064V6.32064ZM4.41699 22.5706C5.27895 22.5706 6.1056 22.2282 6.71509 21.6187C7.32458 21.0092 7.66699 20.1826 7.66699 19.3206C7.66699 18.4587 7.32458 17.632 6.71509 17.0225C6.1056 16.413 5.27895 16.0706 4.41699 16.0706C3.55504 16.0706 2.72839 16.413 2.1189 17.0225C1.5094 17.632 1.16699 18.4587 1.16699 19.3206C1.16699 20.1826 1.5094 21.0092 2.1189 21.6187C2.72839 22.2282 3.55504 22.5706 4.41699 22.5706V22.5706ZM19.5837 23.654C20.4456 23.654 21.2723 23.3116 21.8818 22.7021C22.4913 22.0926 22.8337 21.2659 22.8337 20.404C22.8337 19.542 22.4913 18.7154 21.8818 18.1059C21.2723 17.4964 20.4456 17.154 19.5837 17.154C18.7217 17.154 17.8951 17.4964 17.2856 18.1059C16.6761 18.7154 16.3337 19.542 16.3337 20.404C16.3337 21.2659 16.6761 22.0926 17.2856 22.7021C17.8951 23.3116 18.7217 23.654 19.5837 23.654ZM10.917 14.9873C12.0663 14.9873 13.1685 14.5308 13.9811 13.7181C14.7938 12.9054 15.2503 11.8032 15.2503 10.654C15.2503 9.5047 14.7938 8.4025 13.9811 7.58984C13.1685 6.77718 12.0663 6.32064 10.917 6.32064C9.76772 6.32064 8.66552 6.77718 7.85286 7.58984C7.04021 8.4025 6.58366 9.5047 6.58366 10.654C6.58366 11.8032 7.04021 12.9054 7.85286 13.7181C8.66552 14.5308 9.76772 14.9873 10.917 14.9873V14.9873ZM17.417 6.32064C17.9916 6.32064 18.5427 6.09237 18.9491 5.68604C19.3554 5.27971 19.5837 4.72861 19.5837 4.15397C19.5837 3.57934 19.3554 3.02824 18.9491 2.62191C18.5427 2.21558 17.9916 1.9873 17.417 1.9873C16.8424 1.9873 16.2913 2.21558 15.8849 2.62191C15.4786 3.02824 15.2503 3.57934 15.2503 4.15397C15.2503 4.72861 15.4786 5.27971 15.8849 5.68604C16.2913 6.09237 16.8424 6.32064 17.417 6.32064V6.32064Z" stroke="#191A1F" stroke-width="2.16667" stroke-linecap="round" stroke-linejoin="round"/>
</svg>
