<svg width="31" height="31" viewBox="0 0 31 31" fill="none" xmlns="http://www.w3.org/2000/svg">
<g id="Frame">
<path id="Vector" d="M14.8341 18.9812C15.6966 19.3225 16.4841 19.7762 17.1928 20.3406C17.9016 20.9031 18.5072 21.5593 19.0116 22.3018C20.0403 23.8001 20.5943 25.5732 20.6016 27.3906V28.21H18.961V27.3887C18.9645 26.419 18.7748 25.4583 18.403 24.5627C18.0311 23.6671 17.4846 22.8545 16.7953 22.1725C16.1188 21.5055 15.3231 20.9713 14.4497 20.5975C13.542 20.2085 12.5648 20.0076 11.5772 20.0068C10.6075 20.0033 9.64681 20.193 8.75121 20.5648C7.85561 20.9367 7.04305 21.4832 6.36097 22.1725C5.6942 22.8492 5.16 23.6448 4.78597 24.5181C4.39972 25.4068 4.20472 26.365 4.19534 27.3887V28.21H2.55472V27.3887C2.54992 25.5701 3.10506 23.794 4.14472 22.3018C5.18027 20.8078 6.6343 19.6532 8.32409 18.9831C7.94022 18.7193 7.59065 18.4088 7.28347 18.0587C6.97993 17.7141 6.71754 17.3353 6.50159 16.93C6.2865 16.525 6.12274 16.0948 6.01409 15.6493C5.9033 15.1955 5.84356 14.7308 5.83597 14.2637C5.83597 13.4706 5.98597 12.7262 6.28597 12.0343C6.87258 10.6636 7.9643 9.57116 9.33472 8.98371C10.0417 8.68274 10.8019 8.52652 11.5703 8.52426C12.3387 8.52201 13.0997 8.67377 13.8085 8.97059C15.1796 9.55764 16.272 10.6501 16.8591 12.0212C17.3446 13.1629 17.4479 14.431 17.1535 15.6362C17.041 16.0806 16.876 16.5081 16.6547 16.9187C16.4349 17.3251 16.1728 17.7072 15.8728 18.0587C15.5728 18.4093 15.226 18.715 14.8341 18.9812ZM11.5772 18.3662C12.1416 18.3662 12.6722 18.2593 13.1672 18.0475C14.1486 17.6304 14.9298 16.8486 15.346 15.8668C15.5691 15.3625 15.6797 14.8281 15.6797 14.2656C15.6821 13.7287 15.5766 13.1967 15.3695 12.7014C15.1624 12.206 14.8579 11.7573 14.4741 11.3818C14.0944 11.0116 13.6519 10.7119 13.1672 10.4968C12.6671 10.2735 12.125 10.1597 11.5772 10.1631C11.0147 10.1631 10.4841 10.27 9.98909 10.4818C9.00225 10.9027 8.21625 11.6887 7.79534 12.6756C7.58347 13.1706 7.47659 13.7012 7.47659 14.2656C7.47659 14.8281 7.58347 15.3587 7.79534 15.8537C8.01097 16.3487 8.30159 16.7856 8.66909 17.1606C9.04954 17.545 9.50289 17.8497 10.0026 18.0567C10.5023 18.2637 11.0382 18.369 11.5791 18.3662H11.5772ZM28.8047 1.95996V15.085H25.5235L20.6016 20.0068V15.085H18.961V13.4443H22.2422V16.0468L24.8447 13.4443H27.1641V3.60059H10.7578V6.54809C10.4828 6.58283 10.209 6.62598 9.93659 6.67746C9.65731 6.73048 9.38316 6.80765 9.11722 6.90809V1.95996H28.8047Z" fill="#26204D"/>
</g>
</svg>
