<svg width="96" height="97" viewBox="0 0 96 97" fill="none" xmlns="http://www.w3.org/2000/svg">
<rect y="0.00195312" width="96" height="96" rx="48" fill="#F0EFF5"/>
<g clip-path="url(#clip0_4234_21435)">
<path d="M34.8 29.002C36.3913 29.002 37.9174 29.644 39.0426 30.7868C40.1679 31.9296 40.8 33.4795 40.8 35.0957C40.8 36.7119 40.1679 38.2618 39.0426 39.4046C37.9174 40.5474 36.3913 41.1895 34.8 41.1895C33.2087 41.1895 31.6826 40.5474 30.5574 39.4046C29.4321 38.2618 28.8 36.7119 28.8 35.0957C28.8 33.4795 29.4321 31.9296 30.5574 30.7868C31.6826 29.644 33.2087 29.002 34.8 29.002ZM62.4 29.002C63.9913 29.002 65.5174 29.644 66.6426 30.7868C67.7679 31.9296 68.4 33.4795 68.4 35.0957C68.4 36.7119 67.7679 38.2618 66.6426 39.4046C65.5174 40.5474 63.9913 41.1895 62.4 41.1895C60.8087 41.1895 59.2826 40.5474 58.1574 39.4046C57.0321 38.2618 56.4 36.7119 56.4 35.0957C56.4 33.4795 57.0321 31.9296 58.1574 30.7868C59.2826 29.644 60.8087 29.002 62.4 29.002ZM24 51.7545C24 47.268 27.585 43.627 32.0025 43.627H35.205C36.3975 43.627 37.53 43.8936 38.55 44.3658C38.4525 44.9143 38.4075 45.4855 38.4075 46.0645C38.4075 48.9742 39.6675 51.5869 41.655 53.377C41.64 53.377 41.625 53.377 41.6025 53.377H25.5975C24.72 53.377 24 52.6457 24 51.7545ZM54.3975 53.377C54.3825 53.377 54.3675 53.377 54.345 53.377C56.34 51.5869 57.5925 48.9742 57.5925 46.0645C57.5925 45.4855 57.54 44.9219 57.45 44.3658C58.47 43.8859 59.6025 43.627 60.795 43.627H63.9975C68.415 43.627 72 47.268 72 51.7545C72 52.6533 71.28 53.377 70.4025 53.377H54.3975ZM40.8 46.0645C40.8 44.1251 41.5586 42.2651 42.9088 40.8937C44.2591 39.5224 46.0904 38.752 48 38.752C49.9096 38.752 51.7409 39.5224 53.0912 40.8937C54.4414 42.2651 55.2 44.1251 55.2 46.0645C55.2 48.0038 54.4414 49.8638 53.0912 51.2352C51.7409 52.6065 49.9096 53.377 48 53.377C46.0904 53.377 44.2591 52.6065 42.9088 51.2352C41.5586 49.8638 40.8 48.0038 40.8 46.0645ZM33.6 65.9682C33.6 60.3619 38.0775 55.8145 43.5975 55.8145H52.4025C57.9225 55.8145 62.4 60.3619 62.4 65.9682C62.4 67.0879 61.5075 68.002 60.3975 68.002H35.6025C34.5 68.002 33.6 67.0955 33.6 65.9682Z" fill="#403580"/>
</g>
<defs>
<clipPath id="clip0_4234_21435">
<rect width="48" height="39" fill="white" transform="translate(24 29.002)"/>
</clipPath>
</defs>
</svg>
