<svg width="32" height="32" viewBox="0 0 32 32" fill="none" xmlns="http://www.w3.org/2000/svg">
<path d="M3.19823 14.4C3.60603 14.4005 3.99828 14.5566 4.29482 14.8366C4.59135 15.1165 4.7698 15.4991 4.7937 15.9062C4.8176 16.3133 4.68515 16.7142 4.4234 17.0269C4.16166 17.3397 3.79038 17.5406 3.38543 17.5888L3.19823 17.6H1.59823C1.19042 17.5995 0.798176 17.4434 0.501638 17.1634C0.2051 16.8835 0.0266514 16.5009 0.00275206 16.0938C-0.0211473 15.6867 0.111307 15.2858 0.373051 14.9731C0.634796 14.6603 1.00607 14.4594 1.41103 14.4112L1.59823 14.4H3.19823ZM15.9982 0C16.3901 5.16969e-05 16.7684 0.14393 17.0612 0.404345C17.3541 0.664759 17.5412 1.0236 17.587 1.4128L17.5982 1.6V3.2C17.5978 3.60781 17.4416 4.00005 17.1617 4.29659C16.8817 4.59313 16.4991 4.77158 16.092 4.79548C15.6849 4.81937 15.284 4.68692 14.9713 4.42518C14.6586 4.16343 14.4576 3.79215 14.4094 3.3872L14.3982 3.2V1.6C14.3982 1.17565 14.5668 0.768687 14.8669 0.468629C15.1669 0.168571 15.5739 0 15.9982 0ZM30.3982 14.4C30.806 14.4005 31.1983 14.5566 31.4948 14.8366C31.7914 15.1165 31.9698 15.4991 31.9937 15.9062C32.0176 16.3133 31.8851 16.7142 31.6234 17.0269C31.3617 17.3397 30.9904 17.5406 30.5854 17.5888L30.3982 17.6H28.7982C28.3904 17.5995 27.9982 17.4434 27.7016 17.1634C27.4051 16.8835 27.2267 16.5009 27.2028 16.0938C27.1789 15.6867 27.3113 15.2858 27.573 14.9731C27.8348 14.6603 28.2061 14.4594 28.611 14.4112L28.7982 14.4H30.3982ZM4.62703 4.6288C4.90254 4.35332 5.2691 4.18783 5.65794 4.16338C6.04678 4.13893 6.43118 4.2572 6.73903 4.496L6.88943 4.6288L8.00943 5.7488C8.29638 6.03673 8.46299 6.4231 8.47539 6.82941C8.4878 7.23573 8.34508 7.63154 8.07623 7.93645C7.80738 8.24135 7.43255 8.43249 7.02787 8.47104C6.62319 8.50959 6.21901 8.39266 5.89743 8.144L5.74703 8.0112L4.62703 6.8912C4.32707 6.59116 4.15857 6.18426 4.15857 5.76C4.15857 5.33574 4.32707 4.92884 4.62703 4.6288ZM25.107 4.6288C25.395 4.34184 25.7813 4.17524 26.1876 4.16284C26.594 4.15043 26.9898 4.29314 27.2947 4.562C27.5996 4.83085 27.7907 5.20568 27.8293 5.61036C27.8678 6.01504 27.7509 6.41921 27.5022 6.7408L27.3694 6.8912L26.2494 8.0112C25.9615 8.29816 25.5751 8.46476 25.1688 8.47717C24.7625 8.48957 24.3667 8.34686 24.0618 8.078C23.7569 7.80915 23.5657 7.43432 23.5272 7.02964C23.4886 6.62496 23.6056 6.22079 23.8542 5.8992L23.987 5.7488L25.107 4.6288ZM19.1982 25.6C19.6226 25.6 20.0295 25.7686 20.3296 26.0686C20.6297 26.3687 20.7982 26.7757 20.7982 27.2C20.7982 28.473 20.2925 29.6939 19.3923 30.5941C18.4922 31.4943 17.2713 32 15.9982 32C14.7252 32 13.5043 31.4943 12.6041 30.5941C11.7039 29.6939 11.1982 28.473 11.1982 27.2C11.1983 26.8081 11.3422 26.4299 11.6026 26.137C11.863 25.8442 12.2218 25.6571 12.611 25.6112L12.7982 25.6H19.1982ZM15.9982 6.4C18.0131 6.4 19.9769 7.03396 21.6114 8.21208C23.246 9.39019 24.4684 11.0527 25.1056 12.9642C25.7427 14.8757 25.7623 16.9392 25.1616 18.8624C24.5608 20.7856 23.3701 22.4711 21.7582 23.68C21.5377 23.8456 21.2781 23.9515 21.0046 23.9872L20.7982 24H11.1982C10.852 24 10.5152 23.8877 10.2382 23.68C8.62633 22.4711 7.43567 20.7856 6.8349 18.8624C6.23413 16.9392 6.25371 14.8757 6.89087 12.9642C7.52803 11.0527 8.75046 9.39019 10.385 8.21208C12.0196 7.03396 13.9834 6.4 15.9982 6.4Z" fill="#FC670B"/>
</svg>
