<svg width="266" height="167" viewBox="0 0 266 167" fill="none" xmlns="http://www.w3.org/2000/svg">
<path d="M179.733 159.059L180.885 75.486L223.796 88.0359L179.733 159.059Z" fill="#403580"/>
<rect y="0.152344" width="265.5" height="103.25" rx="14.75" fill="#403580"/>
<path d="M36.0732 30.4076H50.6226C52.5342 30.4076 54.3396 30.6023 56.0388 30.9917C57.7734 31.3457 59.2779 31.9652 60.5523 32.8502C61.8621 33.6998 62.8887 34.868 63.6321 36.3548C64.4109 37.8062 64.8003 39.6293 64.8003 41.8241C64.8003 44.4791 64.11 46.7447 62.7294 48.6209C61.3488 50.4617 59.331 51.6299 56.676 52.1255L66.234 68.0024H56.3043L48.4455 52.9751H44.3568V68.0024H36.0732V30.4076ZM44.3568 45.9659H49.242C49.9854 45.9659 50.7642 45.9482 51.5784 45.9128C52.428 45.842 53.1891 45.6827 53.8617 45.4349C54.5343 45.1517 55.083 44.7269 55.5078 44.1605C55.968 43.5941 56.1981 42.7976 56.1981 41.771C56.1981 40.8152 56.0034 40.0541 55.614 39.4877C55.2246 38.9213 54.729 38.4965 54.1272 38.2133C53.5254 37.8947 52.8351 37.6823 52.0563 37.5761C51.2775 37.4699 50.5164 37.4168 49.773 37.4168H44.3568V45.9659ZM93.9223 63.542C92.6479 65.1704 91.0372 66.4271 89.0902 67.3121C87.1432 68.1971 85.1254 68.6396 83.0368 68.6396C81.0544 68.6396 79.1782 68.321 77.4082 67.6838C75.6736 67.0466 74.1514 66.1439 72.8416 64.9757C71.5672 63.7721 70.5583 62.3384 69.8149 60.6746C69.0715 59.0108 68.6998 57.1523 68.6998 55.0991C68.6998 53.0459 69.0715 51.1874 69.8149 49.5236C70.5583 47.8598 71.5672 46.4438 72.8416 45.2756C74.1514 44.072 75.6736 43.1516 77.4082 42.5144C79.1782 41.8772 81.0544 41.5586 83.0368 41.5586C84.8776 41.5586 86.5414 41.8772 88.0282 42.5144C89.5504 43.1516 90.8248 44.072 91.8514 45.2756C92.9134 46.4438 93.7276 47.8598 94.294 49.5236C94.8604 51.1874 95.1436 53.0459 95.1436 55.0991V57.5948H76.6648C76.9834 59.117 77.6737 60.3383 78.7357 61.2587C79.7977 62.1437 81.1075 62.5862 82.6651 62.5862C83.9749 62.5862 85.0723 62.303 85.9573 61.7366C86.8777 61.1348 87.6742 60.3737 88.3468 59.4533L93.9223 63.542ZM87.1786 52.1786C87.214 50.8334 86.7715 49.6829 85.8511 48.7271C84.9307 47.7713 83.7448 47.2934 82.2934 47.2934C81.4084 47.2934 80.6296 47.435 79.957 47.7182C79.2844 48.0014 78.7003 48.3731 78.2047 48.8333C77.7445 49.2581 77.3728 49.7714 77.0896 50.3732C76.8418 50.9396 76.7002 51.5414 76.6648 52.1786H87.1786ZM114.59 49.7891C113.422 48.3377 111.882 47.612 109.97 47.612C109.298 47.612 108.643 47.7713 108.005 48.0899C107.368 48.4085 107.05 48.9572 107.05 49.736C107.05 50.3732 107.368 50.8511 108.005 51.1697C108.678 51.4529 109.51 51.7184 110.501 51.9662C111.528 52.1786 112.607 52.4264 113.74 52.7096C114.908 52.9574 115.988 53.3645 116.979 53.9309C118.006 54.4973 118.838 55.2761 119.475 56.2673C120.148 57.2231 120.484 58.5152 120.484 60.1436C120.484 61.8074 120.112 63.188 119.369 64.2854C118.661 65.3474 117.74 66.2147 116.608 66.8873C115.475 67.5245 114.2 67.967 112.784 68.2148C111.368 68.498 109.97 68.6396 108.59 68.6396C106.784 68.6396 104.961 68.3918 103.12 67.8962C101.279 67.3652 99.7219 66.4448 98.4474 65.135L103.28 59.7719C104.023 60.6923 104.837 61.4003 105.722 61.8959C106.643 62.3561 107.705 62.5862 108.908 62.5862C109.829 62.5862 110.66 62.4623 111.404 62.2145C112.147 61.9313 112.519 61.4357 112.519 60.7277C112.519 60.0551 112.183 59.5595 111.51 59.2409C110.873 58.8869 110.041 58.6037 109.014 58.3913C108.023 58.1435 106.943 57.8957 105.775 57.6479C104.642 57.3647 103.563 56.9576 102.536 56.4266C101.545 55.8956 100.713 55.1522 100.04 54.1964C99.4033 53.2052 99.0847 51.8954 99.0847 50.267C99.0847 48.7448 99.3856 47.435 99.9874 46.3376C100.625 45.2402 101.439 44.3375 102.43 43.6295C103.457 42.9215 104.625 42.4082 105.935 42.0896C107.244 41.7356 108.572 41.5586 109.917 41.5586C111.616 41.5586 113.333 41.8064 115.068 42.302C116.802 42.7976 118.271 43.6826 119.475 44.957L114.59 49.7891ZM125.31 42.1958H132.638V45.5942H132.744C133.063 45.134 133.47 44.6738 133.966 44.2136C134.497 43.718 135.098 43.2755 135.771 42.8861C136.479 42.4967 137.24 42.1781 138.054 41.9303C138.868 41.6825 139.736 41.5586 140.656 41.5586C142.568 41.5586 144.302 41.8949 145.86 42.5675C147.418 43.2047 148.745 44.1251 149.842 45.3287C150.975 46.4969 151.843 47.8952 152.444 49.5236C153.046 51.152 153.347 52.9397 153.347 54.8867C153.347 56.6921 153.064 58.4267 152.497 60.0905C151.966 61.7189 151.188 63.1703 150.161 64.4447C149.17 65.7191 147.949 66.7457 146.497 67.5245C145.046 68.2679 143.4 68.6396 141.559 68.6396C139.895 68.6396 138.337 68.3918 136.886 67.8962C135.47 67.3652 134.302 66.4802 133.381 65.2412H133.275V80.1092H125.31V42.1958ZM132.638 55.0991C132.638 57.0461 133.187 58.6214 134.284 59.825C135.417 61.0286 136.992 61.6304 139.01 61.6304C141.028 61.6304 142.585 61.0286 143.683 59.825C144.816 58.6214 145.382 57.0461 145.382 55.0991C145.382 53.1521 144.816 51.5768 143.683 50.3732C142.585 49.1696 141.028 48.5678 139.01 48.5678C136.992 48.5678 135.417 49.1696 134.284 50.3732C133.187 51.5768 132.638 53.1521 132.638 55.0991ZM182.44 63.542C181.165 65.1704 179.555 66.4271 177.608 67.3121C175.661 68.1971 173.643 68.6396 171.554 68.6396C169.572 68.6396 167.696 68.321 165.926 67.6838C164.191 67.0466 162.669 66.1439 161.359 64.9757C160.085 63.7721 159.076 62.3384 158.332 60.6746C157.589 59.0108 157.217 57.1523 157.217 55.0991C157.217 53.0459 157.589 51.1874 158.332 49.5236C159.076 47.8598 160.085 46.4438 161.359 45.2756C162.669 44.072 164.191 43.1516 165.926 42.5144C167.696 41.8772 169.572 41.5586 171.554 41.5586C173.395 41.5586 175.059 41.8772 176.546 42.5144C178.068 43.1516 179.342 44.072 180.369 45.2756C181.431 46.4438 182.245 47.8598 182.811 49.5236C183.378 51.1874 183.661 53.0459 183.661 55.0991V57.5948H165.182C165.501 59.117 166.191 60.3383 167.253 61.2587C168.315 62.1437 169.625 62.5862 171.182 62.5862C172.492 62.5862 173.59 62.303 174.475 61.7366C175.395 61.1348 176.192 60.3737 176.864 59.4533L182.44 63.542ZM175.696 52.1786C175.731 50.8334 175.289 49.6829 174.368 48.7271C173.448 47.7713 172.262 47.2934 170.811 47.2934C169.926 47.2934 169.147 47.435 168.474 47.7182C167.802 48.0014 167.218 48.3731 166.722 48.8333C166.262 49.2581 165.89 49.7714 165.607 50.3732C165.359 50.9396 165.218 51.5414 165.182 52.1786H175.696ZM205.975 50.5325C205.585 49.9661 205.036 49.5059 204.328 49.1519C203.62 48.7625 202.859 48.5678 202.045 48.5678C200.027 48.5678 198.452 49.1696 197.319 50.3732C196.222 51.5768 195.673 53.1521 195.673 55.0991C195.673 57.0461 196.222 58.6214 197.319 59.825C198.452 61.0286 200.027 61.6304 202.045 61.6304C202.93 61.6304 203.691 61.4357 204.328 61.0463C204.966 60.6569 205.514 60.1967 205.975 59.6657L211.231 65.1881C209.992 66.4625 208.523 67.3652 206.824 67.8962C205.16 68.3918 203.567 68.6396 202.045 68.6396C200.063 68.6396 198.187 68.321 196.417 67.6838C194.682 67.0466 193.16 66.1439 191.85 64.9757C190.576 63.7721 189.567 62.3384 188.823 60.6746C188.08 59.0108 187.708 57.1523 187.708 55.0991C187.708 53.0459 188.08 51.1874 188.823 49.5236C189.567 47.8598 190.576 46.4438 191.85 45.2756C193.16 44.072 194.682 43.1516 196.417 42.5144C198.187 41.8772 200.063 41.5586 202.045 41.5586C203.567 41.5586 205.16 41.8241 206.824 42.3551C208.523 42.8507 209.992 43.7357 211.231 45.0101L205.975 50.5325ZM231.697 48.5678H224.688V57.17C224.688 57.878 224.724 58.5329 224.794 59.1347C224.865 59.7011 225.024 60.1967 225.272 60.6215C225.52 61.0463 225.892 61.3826 226.387 61.6304C226.918 61.8428 227.609 61.949 228.458 61.949C228.883 61.949 229.432 61.9136 230.104 61.8428C230.812 61.7366 231.343 61.5242 231.697 61.2056V67.8431C230.812 68.1617 229.892 68.3741 228.936 68.4803C227.98 68.5865 227.042 68.6396 226.122 68.6396C224.777 68.6396 223.538 68.498 222.405 68.2148C221.272 67.9316 220.281 67.4891 219.431 66.8873C218.582 66.2501 217.909 65.4359 217.413 64.4447C216.953 63.4535 216.723 62.2499 216.723 60.8339V48.5678H211.626V42.1958H216.723V34.5494H224.688V42.1958H231.697V48.5678Z" fill="white"/>
</svg>
