<svg width="427" height="275" viewBox="0 0 427 275" fill="none" xmlns="http://www.w3.org/2000/svg">
<path d="M247.088 272.887L236.212 86.1746L280.836 88.928L247.088 272.887Z" fill="#665D99"/>
<rect y="0.738281" width="426.275" height="103.25" rx="14.75" fill="#665D99"/>
<path d="M41.4599 30.9936H56.0093C57.9209 30.9936 59.7263 31.1883 61.4255 31.5777C63.1601 31.9317 64.6646 32.5512 65.939 33.4362C67.2488 34.2858 68.2754 35.454 69.0188 36.9408C69.7976 38.3922 70.187 40.2153 70.187 42.4101C70.187 45.0651 69.4967 47.3307 68.1161 49.2069C66.7355 51.0477 64.7177 52.2159 62.0627 52.7115L71.6207 68.5884H61.691L53.8322 53.5611H49.7435V68.5884H41.4599V30.9936ZM49.7435 46.5519H54.6287C55.3721 46.5519 56.1509 46.5342 56.9651 46.4988C57.8147 46.428 58.5758 46.2687 59.2484 46.0209C59.921 45.7377 60.4697 45.3129 60.8945 44.7465C61.3547 44.1801 61.5848 43.3836 61.5848 42.357C61.5848 41.4012 61.3901 40.6401 61.0007 40.0737C60.6113 39.5073 60.1157 39.0825 59.5139 38.7993C58.9121 38.4807 58.2218 38.2683 57.443 38.1621C56.6642 38.0559 55.9031 38.0028 55.1597 38.0028H49.7435V46.5519ZM99.3091 64.128C98.0347 65.7564 96.424 67.0131 94.477 67.8981C92.53 68.7831 90.5122 69.2256 88.4236 69.2256C86.4412 69.2256 84.565 68.907 82.795 68.2698C81.0604 67.6326 79.5382 66.7299 78.2284 65.5617C76.954 64.3581 75.9451 62.9244 75.2017 61.2606C74.4583 59.5968 74.0866 57.7383 74.0866 55.6851C74.0866 53.6319 74.4583 51.7734 75.2017 50.1096C75.9451 48.4458 76.954 47.0298 78.2284 45.8616C79.5382 44.658 81.0604 43.7376 82.795 43.1004C84.565 42.4632 86.4412 42.1446 88.4236 42.1446C90.2644 42.1446 91.9282 42.4632 93.415 43.1004C94.9372 43.7376 96.2116 44.658 97.2382 45.8616C98.3002 47.0298 99.1144 48.4458 99.6808 50.1096C100.247 51.7734 100.53 53.6319 100.53 55.6851V58.1808H82.0516C82.3702 59.703 83.0605 60.9243 84.1225 61.8447C85.1845 62.7297 86.4943 63.1722 88.0519 63.1722C89.3617 63.1722 90.4591 62.889 91.3441 62.3226C92.2645 61.7208 93.061 60.9597 93.7336 60.0393L99.3091 64.128ZM92.5654 52.7646C92.6008 51.4194 92.1583 50.2689 91.2379 49.3131C90.3175 48.3573 89.1316 47.8794 87.6802 47.8794C86.7952 47.8794 86.0164 48.021 85.3438 48.3042C84.6712 48.5874 84.0871 48.9591 83.5915 49.4193C83.1313 49.8441 82.7596 50.3574 82.4764 50.9592C82.2286 51.5256 82.087 52.1274 82.0516 52.7646H92.5654ZM119.977 50.3751C118.808 48.9237 117.268 48.198 115.357 48.198C114.684 48.198 114.029 48.3573 113.392 48.6759C112.755 48.9945 112.436 49.5432 112.436 50.322C112.436 50.9592 112.755 51.4371 113.392 51.7557C114.065 52.0389 114.897 52.3044 115.888 52.5522C116.914 52.7646 117.994 53.0124 119.127 53.2956C120.295 53.5434 121.375 53.9505 122.366 54.5169C123.393 55.0833 124.225 55.8621 124.862 56.8533C125.534 57.8091 125.871 59.1012 125.871 60.7296C125.871 62.3934 125.499 63.774 124.756 64.8714C124.048 65.9334 123.127 66.8007 121.994 67.4733C120.862 68.1105 119.587 68.553 118.171 68.8008C116.755 69.084 115.357 69.2256 113.976 69.2256C112.171 69.2256 110.348 68.9778 108.507 68.4822C106.666 67.9512 105.109 67.0308 103.834 65.721L108.666 60.3579C109.41 61.2783 110.224 61.9863 111.109 62.4819C112.029 62.9421 113.091 63.1722 114.295 63.1722C115.215 63.1722 116.047 63.0483 116.791 62.8005C117.534 62.5173 117.906 62.0217 117.906 61.3137C117.906 60.6411 117.569 60.1455 116.897 59.8269C116.26 59.4729 115.428 59.1897 114.401 58.9773C113.41 58.7295 112.33 58.4817 111.162 58.2339C110.029 57.9507 108.949 57.5436 107.923 57.0126C106.932 56.4816 106.1 55.7382 105.427 54.7824C104.79 53.7912 104.471 52.4814 104.471 50.853C104.471 49.3308 104.772 48.021 105.374 46.9236C106.011 45.8262 106.825 44.9235 107.817 44.2155C108.843 43.5075 110.011 42.9942 111.321 42.6756C112.631 42.3216 113.959 42.1446 115.304 42.1446C117.003 42.1446 118.72 42.3924 120.454 42.888C122.189 43.3836 123.658 44.2686 124.862 45.543L119.977 50.3751ZM130.697 42.7818H138.025V46.1802H138.131C138.45 45.72 138.857 45.2598 139.352 44.7996C139.883 44.304 140.485 43.8615 141.158 43.4721C141.866 43.0827 142.627 42.7641 143.441 42.5163C144.255 42.2685 145.122 42.1446 146.043 42.1446C147.954 42.1446 149.689 42.4809 151.247 43.1535C152.804 43.7907 154.132 44.7111 155.229 45.9147C156.362 47.0829 157.229 48.4812 157.831 50.1096C158.433 51.738 158.734 53.5257 158.734 55.4727C158.734 57.2781 158.451 59.0127 157.884 60.6765C157.353 62.3049 156.574 63.7563 155.548 65.0307C154.557 66.3051 153.335 67.3317 151.884 68.1105C150.432 68.8539 148.786 69.2256 146.946 69.2256C145.282 69.2256 143.724 68.9778 142.273 68.4822C140.857 67.9512 139.689 67.0662 138.768 65.8272H138.662V80.6952H130.697V42.7818ZM138.025 55.6851C138.025 57.6321 138.573 59.2074 139.671 60.411C140.804 61.6146 142.379 62.2164 144.397 62.2164C146.415 62.2164 147.972 61.6146 149.07 60.411C150.202 59.2074 150.769 57.6321 150.769 55.6851C150.769 53.7381 150.202 52.1628 149.07 50.9592C147.972 49.7556 146.415 49.1538 144.397 49.1538C142.379 49.1538 140.804 49.7556 139.671 50.9592C138.573 52.1628 138.025 53.7381 138.025 55.6851ZM162.445 55.6851C162.445 53.6319 162.816 51.7734 163.56 50.1096C164.303 48.4458 165.312 47.0298 166.586 45.8616C167.896 44.658 169.418 43.7376 171.153 43.1004C172.923 42.4632 174.799 42.1446 176.782 42.1446C178.764 42.1446 180.622 42.4632 182.357 43.1004C184.127 43.7376 185.649 44.658 186.924 45.8616C188.233 47.0298 189.26 48.4458 190.003 50.1096C190.747 51.7734 191.119 53.6319 191.119 55.6851C191.119 57.7383 190.747 59.5968 190.003 61.2606C189.26 62.9244 188.233 64.3581 186.924 65.5617C185.649 66.7299 184.127 67.6326 182.357 68.2698C180.622 68.907 178.764 69.2256 176.782 69.2256C174.799 69.2256 172.923 68.907 171.153 68.2698C169.418 67.6326 167.896 66.7299 166.586 65.5617C165.312 64.3581 164.303 62.9244 163.56 61.2606C162.816 59.5968 162.445 57.7383 162.445 55.6851ZM170.41 55.6851C170.41 57.6321 170.958 59.2074 172.056 60.411C173.188 61.6146 174.764 62.2164 176.782 62.2164C178.799 62.2164 180.357 61.6146 181.454 60.411C182.587 59.2074 183.154 57.6321 183.154 55.6851C183.154 53.7381 182.587 52.1628 181.454 50.9592C180.357 49.7556 178.799 49.1538 176.782 49.1538C174.764 49.1538 173.188 49.7556 172.056 50.9592C170.958 52.1628 170.41 53.7381 170.41 55.6851ZM195.81 42.7818H203.456V46.2864H203.563C203.81 45.7908 204.164 45.2952 204.625 44.7996C205.085 44.304 205.634 43.8615 206.271 43.4721C206.908 43.0827 207.634 42.7641 208.448 42.5163C209.262 42.2685 210.147 42.1446 211.103 42.1446C213.121 42.1446 214.749 42.4632 215.988 43.1004C217.227 43.7022 218.183 44.5518 218.855 45.6492C219.563 46.7466 220.041 48.0387 220.289 49.5255C220.537 51.0123 220.661 52.623 220.661 54.3576V68.5884H212.696V55.9506C212.696 55.2072 212.66 54.4461 212.59 53.6673C212.554 52.8531 212.395 52.1097 212.112 51.4371C211.864 50.7645 211.457 50.2158 210.89 49.791C210.359 49.3662 209.581 49.1538 208.554 49.1538C207.527 49.1538 206.696 49.3485 206.058 49.7379C205.421 50.0919 204.926 50.5875 204.572 51.2247C204.253 51.8265 204.041 52.5168 203.934 53.2956C203.828 54.0744 203.775 54.8886 203.775 55.7382V68.5884H195.81V42.7818ZM240.904 50.3751C239.735 48.9237 238.195 48.198 236.284 48.198C235.611 48.198 234.956 48.3573 234.319 48.6759C233.682 48.9945 233.363 49.5432 233.363 50.322C233.363 50.9592 233.682 51.4371 234.319 51.7557C234.992 52.0389 235.824 52.3044 236.815 52.5522C237.841 52.7646 238.921 53.0124 240.054 53.2956C241.222 53.5434 242.302 53.9505 243.293 54.5169C244.32 55.0833 245.152 55.8621 245.789 56.8533C246.461 57.8091 246.798 59.1012 246.798 60.7296C246.798 62.3934 246.426 63.774 245.683 64.8714C244.975 65.9334 244.054 66.8007 242.921 67.4733C241.789 68.1105 240.514 68.553 239.098 68.8008C237.682 69.084 236.284 69.2256 234.903 69.2256C233.098 69.2256 231.275 68.9778 229.434 68.4822C227.593 67.9512 226.036 67.0308 224.761 65.721L229.593 60.3579C230.337 61.2783 231.151 61.9863 232.036 62.4819C232.956 62.9421 234.018 63.1722 235.222 63.1722C236.142 63.1722 236.974 63.0483 237.718 62.8005C238.461 62.5173 238.833 62.0217 238.833 61.3137C238.833 60.6411 238.496 60.1455 237.824 59.8269C237.187 59.4729 236.355 59.1897 235.328 58.9773C234.337 58.7295 233.257 58.4817 232.089 58.2339C230.956 57.9507 229.876 57.5436 228.85 57.0126C227.859 56.4816 227.027 55.7382 226.354 54.7824C225.717 53.7912 225.398 52.4814 225.398 50.853C225.398 49.3308 225.699 48.021 226.301 46.9236C226.938 45.8262 227.752 44.9235 228.744 44.2155C229.77 43.5075 230.938 42.9942 232.248 42.6756C233.558 42.3216 234.886 42.1446 236.231 42.1446C237.93 42.1446 239.647 42.3924 241.381 42.888C243.116 43.3836 244.585 44.2686 245.789 45.543L240.904 50.3751ZM250.987 42.7818H258.952V68.5884H250.987V42.7818ZM250.35 34.6575C250.35 33.3831 250.792 32.3034 251.677 31.4184C252.597 30.498 253.695 30.0378 254.969 30.0378C256.244 30.0378 257.323 30.498 258.208 31.4184C259.129 32.3034 259.589 33.3831 259.589 34.6575C259.589 35.9319 259.129 37.0293 258.208 37.9497C257.323 38.8347 256.244 39.2772 254.969 39.2772C253.695 39.2772 252.597 38.8347 251.677 37.9497C250.792 37.0293 250.35 35.9319 250.35 34.6575ZM265.417 28.4448H273.382V45.543H273.489C274.409 44.304 275.577 43.4367 276.993 42.9411C278.445 42.4101 280.002 42.1446 281.666 42.1446C283.507 42.1446 285.153 42.534 286.604 43.3128C288.056 44.0562 289.277 45.0651 290.268 46.3395C291.295 47.6139 292.074 49.083 292.605 50.7468C293.171 52.3752 293.454 54.0921 293.454 55.8975C293.454 57.8445 293.153 59.6322 292.552 61.2606C291.95 62.889 291.082 64.305 289.95 65.5086C288.852 66.6768 287.525 67.5972 285.967 68.2698C284.41 68.907 282.675 69.2256 280.763 69.2256C279.843 69.2256 278.976 69.1017 278.161 68.8539C277.347 68.6061 276.586 68.2875 275.878 67.8981C275.206 67.5087 274.604 67.0839 274.073 66.6237C273.577 66.1281 273.17 65.6502 272.851 65.19H272.745V68.5884H265.417V28.4448ZM272.745 55.6851C272.745 57.6321 273.294 59.2074 274.391 60.411C275.524 61.6146 277.099 62.2164 279.117 62.2164C281.135 62.2164 282.693 61.6146 283.79 60.411C284.923 59.2074 285.489 57.6321 285.489 55.6851C285.489 53.7381 284.923 52.1628 283.79 50.9592C282.693 49.7556 281.135 49.1538 279.117 49.1538C277.099 49.1538 275.524 49.7556 274.391 50.9592C273.294 52.1628 272.745 53.7381 272.745 55.6851ZM298.227 42.7818H306.192V68.5884H298.227V42.7818ZM297.59 34.6575C297.59 33.3831 298.032 32.3034 298.917 31.4184C299.838 30.498 300.935 30.0378 302.21 30.0378C303.484 30.0378 304.564 30.498 305.449 31.4184C306.369 32.3034 306.829 33.3831 306.829 34.6575C306.829 35.9319 306.369 37.0293 305.449 37.9497C304.564 38.8347 303.484 39.2772 302.21 39.2772C300.935 39.2772 299.838 38.8347 298.917 37.9497C298.032 37.0293 297.59 35.9319 297.59 34.6575ZM312.021 28.4448H319.986V68.5884H312.021V28.4448ZM325.814 42.7818H333.779V68.5884H325.814V42.7818ZM325.177 34.6575C325.177 33.3831 325.619 32.3034 326.504 31.4184C327.425 30.498 328.522 30.0378 329.797 30.0378C331.071 30.0378 332.151 30.498 333.036 31.4184C333.956 32.3034 334.416 33.3831 334.416 34.6575C334.416 35.9319 333.956 37.0293 333.036 37.9497C332.151 38.8347 331.071 39.2772 329.797 39.2772C328.522 39.2772 327.425 38.8347 326.504 37.9497C325.619 37.0293 325.177 35.9319 325.177 34.6575ZM357.078 49.1538H350.068V57.756C350.068 58.464 350.104 59.1189 350.175 59.7207C350.245 60.2871 350.405 60.7827 350.653 61.2075C350.9 61.6323 351.272 61.9686 351.768 62.2164C352.299 62.4288 352.989 62.535 353.839 62.535C354.263 62.535 354.812 62.4996 355.485 62.4288C356.193 62.3226 356.724 62.1102 357.078 61.7916V68.4291C356.193 68.7477 355.272 68.9601 354.316 69.0663C353.361 69.1725 352.423 69.2256 351.502 69.2256C350.157 69.2256 348.918 69.084 347.785 68.8008C346.652 68.5176 345.661 68.0751 344.812 67.4733C343.962 66.8361 343.289 66.0219 342.794 65.0307C342.334 64.0395 342.103 62.8359 342.103 61.4199V49.1538H337.006V42.7818H342.103V35.1354H350.068V42.7818H357.078V49.1538ZM375.993 72.7833C375.462 74.1639 374.949 75.3852 374.453 76.4472C373.958 77.5092 373.321 78.3942 372.542 79.1022C371.798 79.8456 370.843 80.3943 369.674 80.7483C368.506 81.1377 366.966 81.3324 365.055 81.3324C363.001 81.3324 361.019 81.0138 359.107 80.3766L360.169 73.8453C361.373 74.3763 362.612 74.6418 363.886 74.6418C364.771 74.6418 365.497 74.5356 366.064 74.3232C366.63 74.1462 367.09 73.863 367.444 73.4736C367.834 73.1196 368.152 72.6771 368.4 72.1461C368.648 71.6151 368.913 70.9956 369.196 70.2876L369.781 68.8008L358.47 42.7818H367.072L373.71 59.8269H373.816L379.498 42.7818H387.675L375.993 72.7833Z" fill="white"/>
</svg>
