<svg width="402" height="283" viewBox="0 0 402 283" fill="none" xmlns="http://www.w3.org/2000/svg">
<path d="M184.749 268.246L278.644 79.0156L316.365 103.014L184.749 268.246Z" fill="#FC670B"/>
<rect y="0.550781" width="401.2" height="103.25" rx="14.75" fill="#FC670B"/>
<path d="M74.5237 38.1339H63.7975V30.8061H93.5335V38.1339H82.8073V68.4009H74.5237V38.1339ZM115.246 63.9405C113.971 65.5689 112.36 66.8256 110.413 67.7106C108.466 68.5956 106.449 69.0381 104.36 69.0381C102.378 69.0381 100.501 68.7195 98.7315 68.0823C96.9969 67.4451 95.4747 66.5424 94.1649 65.3742C92.8905 64.1706 91.8816 62.7369 91.1382 61.0731C90.3948 59.4093 90.0231 57.5508 90.0231 55.4976C90.0231 53.4444 90.3948 51.5859 91.1382 49.9221C91.8816 48.2583 92.8905 46.8423 94.1649 45.6741C95.4747 44.4705 96.9969 43.5501 98.7315 42.9129C100.501 42.2757 102.378 41.9571 104.36 41.9571C106.201 41.9571 107.865 42.2757 109.351 42.9129C110.874 43.5501 112.148 44.4705 113.175 45.6741C114.237 46.8423 115.051 48.2583 115.617 49.9221C116.184 51.5859 116.467 53.4444 116.467 55.4976V57.9933H97.9881C98.3067 59.5155 98.997 60.7368 100.059 61.6572C101.121 62.5422 102.431 62.9847 103.988 62.9847C105.298 62.9847 106.396 62.7015 107.281 62.1351C108.201 61.5333 108.997 60.7722 109.67 59.8518L115.246 63.9405ZM108.502 52.5771C108.537 51.2319 108.095 50.0814 107.174 49.1256C106.254 48.1698 105.068 47.6919 103.617 47.6919C102.732 47.6919 101.953 47.8335 101.28 48.1167C100.608 48.3999 100.024 48.7716 99.528 49.2318C99.0678 49.6566 98.6961 50.1699 98.4129 50.7717C98.1651 51.3381 98.0235 51.9399 97.9881 52.5771H108.502ZM137.506 65.1618H137.4C136.515 66.5424 135.329 67.5336 133.842 68.1354C132.391 68.7372 130.851 69.0381 129.222 69.0381C128.019 69.0381 126.851 68.8611 125.718 68.5071C124.62 68.1885 123.647 67.6929 122.797 67.0203C121.948 66.3477 121.275 65.5158 120.78 64.5246C120.284 63.5334 120.036 62.3829 120.036 61.0731C120.036 59.5863 120.302 58.3296 120.833 57.303C121.399 56.2764 122.142 55.4268 123.063 54.7542C124.019 54.0816 125.098 53.5683 126.302 53.2143C127.506 52.8249 128.745 52.5417 130.019 52.3647C131.329 52.1877 132.621 52.0815 133.895 52.0461C135.205 52.0107 136.409 51.993 137.506 51.993C137.506 50.577 136.993 49.4619 135.966 48.6477C134.975 47.7981 133.789 47.3733 132.408 47.3733C131.099 47.3733 129.895 47.6565 128.798 48.2229C127.736 48.7539 126.78 49.4973 125.93 50.4531L121.682 46.0989C123.169 44.7183 124.904 43.6917 126.886 43.0191C128.868 42.3111 130.922 41.9571 133.046 41.9571C135.382 41.9571 137.294 42.258 138.78 42.8598C140.303 43.4262 141.506 44.2758 142.391 45.4086C143.312 46.5414 143.949 47.9397 144.303 49.6035C144.657 51.2319 144.834 53.1258 144.834 55.2852V68.4009H137.506V65.1618ZM135.541 57.0906C134.94 57.0906 134.178 57.126 133.258 57.1968C132.373 57.2322 131.506 57.3738 130.656 57.6216C129.842 57.8694 129.134 58.2411 128.532 58.7367C127.966 59.2323 127.683 59.9226 127.683 60.8076C127.683 61.7634 128.09 62.4714 128.904 62.9316C129.718 63.3918 130.568 63.6219 131.453 63.6219C132.231 63.6219 132.975 63.5157 133.683 63.3033C134.426 63.0909 135.081 62.79 135.648 62.4006C136.214 62.0112 136.656 61.5156 136.975 60.9138C137.329 60.312 137.506 59.604 137.506 58.7898V57.0906H135.541ZM149.831 42.5943H157.478V46.0989H157.584C157.832 45.6033 158.186 45.1077 158.646 44.6121C159.106 44.1165 159.655 43.674 160.292 43.2846C160.929 42.8952 161.655 42.5766 162.469 42.3288C163.283 42.081 164.168 41.9571 165.124 41.9571C166.929 41.9571 168.522 42.3288 169.903 43.0722C171.319 43.8156 172.381 44.9838 173.089 46.5768C174.009 44.913 175.124 43.7271 176.434 43.0191C177.744 42.3111 179.355 41.9571 181.266 41.9571C183.001 41.9571 184.452 42.258 185.621 42.8598C186.824 43.4262 187.762 44.2227 188.435 45.2493C189.143 46.2405 189.638 47.4264 189.922 48.807C190.24 50.1522 190.4 51.6036 190.4 53.1612V68.4009H182.435V53.3736C182.435 52.17 182.169 51.1434 181.638 50.2938C181.142 49.4088 180.24 48.9663 178.93 48.9663C178.01 48.9663 177.231 49.1256 176.594 49.4442C175.992 49.7274 175.496 50.1345 175.107 50.6655C174.753 51.1965 174.487 51.816 174.31 52.524C174.169 53.232 174.098 53.9754 174.098 54.7542V68.4009H166.133V54.7542C166.133 54.294 166.115 53.7276 166.08 53.055C166.044 52.3824 165.92 51.7452 165.708 51.1434C165.496 50.5416 165.142 50.0283 164.646 49.6035C164.186 49.1787 163.496 48.9663 162.575 48.9663C161.549 48.9663 160.717 49.161 160.079 49.5504C159.442 49.9044 158.947 50.4 158.593 51.0372C158.274 51.639 158.062 52.3293 157.955 53.1081C157.849 53.8869 157.796 54.7011 157.796 55.5507V68.4009H149.831V42.5943ZM208.667 42.5943H217.163L222.42 58.7898H222.526L226.933 42.5943H235.642L240.421 58.7898H240.527L245.359 42.5943H253.43L244.244 68.4009H236.385L231.022 51.2496H230.916L226.137 68.4009H218.119L208.667 42.5943ZM255.023 55.4976C255.023 53.4444 255.395 51.5859 256.139 49.9221C256.882 48.2583 257.891 46.8423 259.165 45.6741C260.475 44.4705 261.997 43.5501 263.732 42.9129C265.502 42.2757 267.378 41.9571 269.36 41.9571C271.343 41.9571 273.201 42.2757 274.936 42.9129C276.706 43.5501 278.228 44.4705 279.503 45.6741C280.812 46.8423 281.839 48.2583 282.582 49.9221C283.326 51.5859 283.697 53.4444 283.697 55.4976C283.697 57.5508 283.326 59.4093 282.582 61.0731C281.839 62.7369 280.812 64.1706 279.503 65.3742C278.228 66.5424 276.706 67.4451 274.936 68.0823C273.201 68.7195 271.343 69.0381 269.36 69.0381C267.378 69.0381 265.502 68.7195 263.732 68.0823C261.997 67.4451 260.475 66.5424 259.165 65.3742C257.891 64.1706 256.882 62.7369 256.139 61.0731C255.395 59.4093 255.023 57.5508 255.023 55.4976ZM262.988 55.4976C262.988 57.4446 263.537 59.0199 264.635 60.2235C265.767 61.4271 267.343 62.0289 269.36 62.0289C271.378 62.0289 272.936 61.4271 274.033 60.2235C275.166 59.0199 275.732 57.4446 275.732 55.4976C275.732 53.5506 275.166 51.9753 274.033 50.7717C272.936 49.5681 271.378 48.9663 269.36 48.9663C267.343 48.9663 265.767 49.5681 264.635 50.7717C263.537 51.9753 262.988 53.5506 262.988 55.4976ZM288.389 42.5943H296.354V46.7361H296.46C297.31 45.1431 298.319 43.9572 299.487 43.1784C300.655 42.3642 302.124 41.9571 303.894 41.9571C304.354 41.9571 304.815 41.9748 305.275 42.0102C305.735 42.0456 306.16 42.1164 306.549 42.2226V49.4973C305.983 49.3203 305.416 49.1964 304.85 49.1256C304.319 49.0194 303.753 48.9663 303.151 48.9663C301.629 48.9663 300.425 49.1787 299.54 49.6035C298.655 50.0283 297.965 50.6301 297.469 51.4089C297.009 52.1523 296.708 53.055 296.566 54.117C296.425 55.179 296.354 56.3472 296.354 57.6216V68.4009H288.389V42.5943ZM310.013 28.2573H317.978V52.7895L326.792 42.5943H336.563L326.314 54.2232L336.828 68.4009H326.792L318.084 55.3383H317.978V68.4009H310.013V28.2573Z" fill="white"/>
</svg>
