<svg width="461" height="404" viewBox="0 0 461 404" fill="none" xmlns="http://www.w3.org/2000/svg">
<path d="M280.001 401.206L227.684 105.16L272.167 100.675L280.001 401.206Z" fill="#CA5209"/>
<rect y="69.4409" width="460.2" height="103.25" rx="14.75" fill="#CA5209"/>
<path d="M64.0081 109.467C63.1939 108.475 62.185 107.714 60.9814 107.183C59.8132 106.652 58.4503 106.387 56.8927 106.387C55.3351 106.387 53.8837 106.688 52.5385 107.29C51.2287 107.891 50.0782 108.741 49.087 109.838C48.1312 110.9 47.3701 112.175 46.8037 113.662C46.2727 115.148 46.0072 116.759 46.0072 118.494C46.0072 120.264 46.2727 121.892 46.8037 123.379C47.3701 124.83 48.1312 126.105 49.087 127.202C50.0428 128.264 51.1579 129.096 52.4323 129.698C53.7421 130.3 55.1404 130.6 56.6272 130.6C58.3264 130.6 59.8309 130.246 61.1407 129.538C62.4505 128.83 63.5302 127.839 64.3798 126.565L71.2828 131.716C69.6898 133.946 67.672 135.592 65.2294 136.654C62.7868 137.716 60.2734 138.247 57.6892 138.247C54.751 138.247 52.0429 137.787 49.5649 136.866C47.0869 135.946 44.9452 134.636 43.1398 132.937C41.3344 131.202 39.9184 129.114 38.8918 126.671C37.9006 124.228 37.405 121.503 37.405 118.494C37.405 115.485 37.9006 112.759 38.8918 110.316C39.9184 107.874 41.3344 105.803 43.1398 104.104C44.9452 102.369 47.0869 101.041 49.5649 100.121C52.0429 99.2006 54.751 98.7404 57.6892 98.7404C58.7512 98.7404 59.8486 98.8466 60.9814 99.059C62.1496 99.236 63.2824 99.5369 64.3798 99.9617C65.5126 100.387 66.5923 100.953 67.6189 101.661C68.6455 102.369 69.5659 103.236 70.3801 104.263L64.0081 109.467ZM73.8088 124.388C73.8088 122.335 74.1805 120.476 74.9239 118.812C75.6673 117.148 76.6762 115.732 77.9506 114.564C79.2604 113.361 80.7826 112.44 82.5172 111.803C84.2872 111.166 86.1634 110.847 88.1458 110.847C90.1282 110.847 91.9867 111.166 93.7213 111.803C95.4913 112.44 97.0135 113.361 98.2879 114.564C99.5977 115.732 100.624 117.148 101.368 118.812C102.111 120.476 102.483 122.335 102.483 124.388C102.483 126.441 102.111 128.299 101.368 129.963C100.624 131.627 99.5977 133.061 98.2879 134.264C97.0135 135.433 95.4913 136.335 93.7213 136.972C91.9867 137.61 90.1282 137.928 88.1458 137.928C86.1634 137.928 84.2872 137.61 82.5172 136.972C80.7826 136.335 79.2604 135.433 77.9506 134.264C76.6762 133.061 75.6673 131.627 74.9239 129.963C74.1805 128.299 73.8088 126.441 73.8088 124.388ZM81.7738 124.388C81.7738 126.335 82.3225 127.91 83.4199 129.114C84.5527 130.317 86.128 130.919 88.1458 130.919C90.1636 130.919 91.7212 130.317 92.8186 129.114C93.9514 127.91 94.5178 126.335 94.5178 124.388C94.5178 122.441 93.9514 120.865 92.8186 119.662C91.7212 118.458 90.1636 117.856 88.1458 117.856C86.128 117.856 84.5527 118.458 83.4199 119.662C82.3225 120.865 81.7738 122.441 81.7738 124.388ZM107.174 111.484H114.821V114.989H114.927C115.175 114.493 115.529 113.998 115.989 113.502C116.449 113.007 116.998 112.564 117.635 112.175C118.272 111.785 118.998 111.467 119.812 111.219C120.626 110.971 121.511 110.847 122.467 110.847C124.272 110.847 125.865 111.219 127.246 111.962C128.662 112.706 129.724 113.874 130.432 115.467C131.352 113.803 132.468 112.617 133.777 111.909C135.087 111.201 136.698 110.847 138.609 110.847C140.344 110.847 141.795 111.148 142.964 111.75C144.167 112.316 145.105 113.113 145.778 114.139C146.486 115.131 146.982 116.317 147.265 117.697C147.583 119.042 147.743 120.494 147.743 122.051V137.291H139.778V122.264C139.778 121.06 139.512 120.034 138.981 119.184C138.486 118.299 137.583 117.856 136.273 117.856C135.353 117.856 134.574 118.016 133.937 118.334C133.335 118.618 132.839 119.025 132.45 119.556C132.096 120.087 131.83 120.706 131.653 121.414C131.512 122.122 131.441 122.866 131.441 123.644V137.291H123.476V123.644C123.476 123.184 123.458 122.618 123.423 121.945C123.387 121.273 123.264 120.635 123.051 120.034C122.839 119.432 122.485 118.918 121.989 118.494C121.529 118.069 120.839 117.856 119.918 117.856C118.892 117.856 118.06 118.051 117.423 118.441C116.785 118.795 116.29 119.29 115.936 119.927C115.617 120.529 115.405 121.219 115.299 121.998C115.192 122.777 115.139 123.591 115.139 124.441V137.291H107.174V111.484ZM153.377 111.484H161.024V114.989H161.13C161.378 114.493 161.732 113.998 162.192 113.502C162.652 113.007 163.201 112.564 163.838 112.175C164.475 111.785 165.201 111.467 166.015 111.219C166.829 110.971 167.714 110.847 168.67 110.847C170.476 110.847 172.069 111.219 173.449 111.962C174.865 112.706 175.927 113.874 176.635 115.467C177.556 113.803 178.671 112.617 179.981 111.909C181.29 111.201 182.901 110.847 184.813 110.847C186.547 110.847 187.999 111.148 189.167 111.75C190.37 112.316 191.309 113.113 191.981 114.139C192.689 115.131 193.185 116.317 193.468 117.697C193.787 119.042 193.946 120.494 193.946 122.051V137.291H185.981V122.264C185.981 121.06 185.715 120.034 185.184 119.184C184.689 118.299 183.786 117.856 182.476 117.856C181.556 117.856 180.777 118.016 180.14 118.334C179.538 118.618 179.042 119.025 178.653 119.556C178.299 120.087 178.034 120.706 177.857 121.414C177.715 122.122 177.644 122.866 177.644 123.644V137.291H169.679V123.644C169.679 123.184 169.661 122.618 169.626 121.945C169.591 121.273 169.467 120.635 169.254 120.034C169.042 119.432 168.688 118.918 168.192 118.494C167.732 118.069 167.042 117.856 166.121 117.856C165.095 117.856 164.263 118.051 163.626 118.441C162.989 118.795 162.493 119.29 162.139 119.927C161.82 120.529 161.608 121.219 161.502 121.998C161.396 122.777 161.342 123.591 161.342 124.441V137.291H153.377V111.484ZM224.432 137.291H216.785V133.786H216.679C216.396 134.282 216.024 134.778 215.564 135.273C215.139 135.769 214.608 136.211 213.971 136.601C213.334 136.99 212.608 137.309 211.794 137.557C210.98 137.804 210.095 137.928 209.139 137.928C207.121 137.928 205.475 137.627 204.2 137.026C202.961 136.388 201.988 135.521 201.28 134.424C200.607 133.326 200.147 132.034 199.899 130.547C199.687 129.061 199.581 127.45 199.581 125.715V111.484H207.546V124.122C207.546 124.866 207.563 125.644 207.599 126.459C207.67 127.237 207.829 127.963 208.077 128.636C208.36 129.308 208.767 129.857 209.298 130.282C209.864 130.707 210.661 130.919 211.688 130.919C212.714 130.919 213.546 130.742 214.183 130.388C214.82 129.999 215.298 129.503 215.617 128.901C215.971 128.264 216.201 127.556 216.307 126.777C216.413 125.998 216.467 125.184 216.467 124.335V111.484H224.432V137.291ZM230.072 111.484H237.718V114.989H237.824C238.072 114.493 238.426 113.998 238.886 113.502C239.347 113.007 239.895 112.564 240.532 112.175C241.17 111.785 241.895 111.467 242.71 111.219C243.524 110.971 244.409 110.847 245.365 110.847C247.382 110.847 249.011 111.166 250.25 111.803C251.489 112.405 252.445 113.254 253.117 114.352C253.825 115.449 254.303 116.741 254.551 118.228C254.799 119.715 254.923 121.326 254.923 123.06V137.291H246.958V124.653C246.958 123.91 246.922 123.149 246.851 122.37C246.816 121.556 246.657 120.812 246.373 120.14C246.126 119.467 245.719 118.918 245.152 118.494C244.621 118.069 243.842 117.856 242.816 117.856C241.789 117.856 240.957 118.051 240.32 118.441C239.683 118.795 239.187 119.29 238.833 119.927C238.515 120.529 238.302 121.219 238.196 121.998C238.09 122.777 238.037 123.591 238.037 124.441V137.291H230.072V111.484ZM260.669 111.484H268.634V137.291H260.669V111.484ZM260.032 103.36C260.032 102.086 260.474 101.006 261.359 100.121C262.28 99.2006 263.377 98.7404 264.651 98.7404C265.926 98.7404 267.006 99.2006 267.891 100.121C268.811 101.006 269.271 102.086 269.271 103.36C269.271 104.635 268.811 105.732 267.891 106.652C267.006 107.537 265.926 107.98 264.651 107.98C263.377 107.98 262.28 107.537 261.359 106.652C260.474 105.732 260.032 104.635 260.032 103.36ZM291.826 119.821C291.437 119.255 290.888 118.795 290.18 118.441C289.472 118.051 288.711 117.856 287.897 117.856C285.879 117.856 284.304 118.458 283.171 119.662C282.073 120.865 281.525 122.441 281.525 124.388C281.525 126.335 282.073 127.91 283.171 129.114C284.304 130.317 285.879 130.919 287.897 130.919C288.782 130.919 289.543 130.724 290.18 130.335C290.817 129.946 291.366 129.485 291.826 128.954L297.083 134.477C295.844 135.751 294.375 136.654 292.676 137.185C291.012 137.68 289.419 137.928 287.897 137.928C285.914 137.928 284.038 137.61 282.268 136.972C280.534 136.335 279.011 135.433 277.702 134.264C276.427 133.061 275.418 131.627 274.675 129.963C273.931 128.299 273.56 126.441 273.56 124.388C273.56 122.335 273.931 120.476 274.675 118.812C275.418 117.148 276.427 115.732 277.702 114.564C279.011 113.361 280.534 112.44 282.268 111.803C284.038 111.166 285.914 110.847 287.897 110.847C289.419 110.847 291.012 111.113 292.676 111.644C294.375 112.139 295.844 113.024 297.083 114.299L291.826 119.821ZM316.168 134.052H316.062C315.177 135.433 313.991 136.424 312.505 137.026C311.053 137.627 309.513 137.928 307.885 137.928C306.681 137.928 305.513 137.751 304.38 137.397C303.283 137.079 302.309 136.583 301.46 135.91C300.61 135.238 299.938 134.406 299.442 133.415C298.946 132.424 298.698 131.273 298.698 129.963C298.698 128.476 298.964 127.22 299.495 126.193C300.061 125.167 300.805 124.317 301.725 123.644C302.681 122.972 303.761 122.458 304.964 122.104C306.168 121.715 307.407 121.432 308.681 121.255C309.991 121.078 311.283 120.972 312.558 120.936C313.867 120.901 315.071 120.883 316.168 120.883C316.168 119.467 315.655 118.352 314.629 117.538C313.637 116.688 312.451 116.263 311.071 116.263C309.761 116.263 308.557 116.547 307.46 117.113C306.398 117.644 305.442 118.387 304.593 119.343L300.345 114.989C301.831 113.608 303.566 112.582 305.548 111.909C307.531 111.201 309.584 110.847 311.708 110.847C314.044 110.847 315.956 111.148 317.443 111.75C318.965 112.316 320.169 113.166 321.054 114.299C321.974 115.432 322.611 116.83 322.965 118.494C323.319 120.122 323.496 122.016 323.496 124.175V137.291H316.168V134.052ZM314.204 125.981C313.602 125.981 312.841 126.016 311.92 126.087C311.035 126.122 310.168 126.264 309.319 126.512C308.504 126.76 307.796 127.131 307.195 127.627C306.628 128.122 306.345 128.813 306.345 129.698C306.345 130.654 306.752 131.362 307.566 131.822C308.38 132.282 309.23 132.512 310.115 132.512C310.894 132.512 311.637 132.406 312.345 132.193C313.089 131.981 313.744 131.68 314.31 131.291C314.876 130.901 315.319 130.406 315.637 129.804C315.991 129.202 316.168 128.494 316.168 127.68V125.981H314.204ZM346.07 117.856H339.06V126.459C339.06 127.167 339.096 127.822 339.167 128.423C339.237 128.99 339.397 129.485 339.644 129.91C339.892 130.335 340.264 130.671 340.76 130.919C341.291 131.131 341.981 131.238 342.83 131.238C343.255 131.238 343.804 131.202 344.477 131.131C345.185 131.025 345.716 130.813 346.07 130.494V137.132C345.185 137.45 344.264 137.663 343.308 137.769C342.353 137.875 341.414 137.928 340.494 137.928C339.149 137.928 337.91 137.787 336.777 137.503C335.644 137.22 334.653 136.778 333.803 136.176C332.954 135.539 332.281 134.725 331.786 133.733C331.325 132.742 331.095 131.539 331.095 130.123V117.856H325.998V111.484H331.095V103.838H339.06V111.484H346.07V117.856ZM350.223 111.484H358.188V137.291H350.223V111.484ZM349.586 103.36C349.586 102.086 350.029 101.006 350.914 100.121C351.834 99.2006 352.931 98.7404 354.206 98.7404C355.48 98.7404 356.56 99.2006 357.445 100.121C358.365 101.006 358.826 102.086 358.826 103.36C358.826 104.635 358.365 105.732 357.445 106.652C356.56 107.537 355.48 107.98 354.206 107.98C352.931 107.98 351.834 107.537 350.914 106.652C350.029 105.732 349.586 104.635 349.586 103.36ZM362.955 124.388C362.955 122.335 363.327 120.476 364.07 118.812C364.813 117.148 365.822 115.732 367.097 114.564C368.407 113.361 369.929 112.44 371.663 111.803C373.433 111.166 375.31 110.847 377.292 110.847C379.274 110.847 381.133 111.166 382.867 111.803C384.637 112.44 386.16 113.361 387.434 114.564C388.744 115.732 389.77 117.148 390.514 118.812C391.257 120.476 391.629 122.335 391.629 124.388C391.629 126.441 391.257 128.299 390.514 129.963C389.77 131.627 388.744 133.061 387.434 134.264C386.16 135.433 384.637 136.335 382.867 136.972C381.133 137.61 379.274 137.928 377.292 137.928C375.31 137.928 373.433 137.61 371.663 136.972C369.929 136.335 368.407 135.433 367.097 134.264C365.822 133.061 364.813 131.627 364.07 129.963C363.327 128.299 362.955 126.441 362.955 124.388ZM370.92 124.388C370.92 126.335 371.469 127.91 372.566 129.114C373.699 130.317 375.274 130.919 377.292 130.919C379.31 130.919 380.867 130.317 381.965 129.114C383.098 127.91 383.664 126.335 383.664 124.388C383.664 122.441 383.098 120.865 381.965 119.662C380.867 118.458 379.31 117.856 377.292 117.856C375.274 117.856 373.699 118.458 372.566 119.662C371.469 120.865 370.92 122.441 370.92 124.388ZM396.32 111.484H403.967V114.989H404.073C404.321 114.493 404.675 113.998 405.135 113.502C405.595 113.007 406.144 112.564 406.781 112.175C407.418 111.785 408.144 111.467 408.958 111.219C409.772 110.971 410.657 110.847 411.613 110.847C413.631 110.847 415.259 111.166 416.498 111.803C417.737 112.405 418.693 113.254 419.366 114.352C420.074 115.449 420.552 116.741 420.799 118.228C421.047 119.715 421.171 121.326 421.171 123.06V137.291H413.206V124.653C413.206 123.91 413.171 123.149 413.1 122.37C413.065 121.556 412.905 120.812 412.622 120.14C412.374 119.467 411.967 118.918 411.401 118.494C410.87 118.069 410.091 117.856 409.064 117.856C408.038 117.856 407.206 118.051 406.569 118.441C405.931 118.795 405.436 119.29 405.082 119.927C404.763 120.529 404.551 121.219 404.445 121.998C404.338 122.777 404.285 123.591 404.285 124.441V137.291H396.32V111.484Z" fill="white"/>
</svg>
