<svg width="393" height="433" viewBox="0 0 393 433" fill="none" xmlns="http://www.w3.org/2000/svg">
<path d="M148.166 423.743L232.762 105.365L275.092 119.752L148.166 423.743Z" fill="#26204D"/>
<rect y="81.2144" width="392.35" height="103.25" rx="14.75" fill="#26204D"/>
<path d="M67.1428 111.47H75.4264V149.064H67.1428V111.47ZM81.9523 123.258H89.5987V126.762H89.7049C89.9527 126.267 90.3067 125.771 90.7669 125.276C91.2271 124.78 91.7758 124.338 92.413 123.948C93.0502 123.559 93.7759 123.24 94.5901 122.992C95.4043 122.745 96.2893 122.621 97.2451 122.621C99.2629 122.621 100.891 122.939 102.13 123.576C103.369 124.178 104.325 125.028 104.998 126.125C105.706 127.223 106.184 128.515 106.431 130.002C106.679 131.488 106.803 133.099 106.803 134.834V149.064H98.8381V136.427C98.8381 135.683 98.8027 134.922 98.7319 134.143C98.6965 133.329 98.5372 132.586 98.254 131.913C98.0062 131.241 97.5991 130.692 97.0327 130.267C96.5017 129.842 95.7229 129.63 94.6963 129.63C93.6697 129.63 92.8378 129.825 92.2006 130.214C91.5634 130.568 91.0678 131.064 90.7138 131.701C90.3952 132.303 90.1828 132.993 90.0766 133.772C89.9704 134.55 89.9173 135.365 89.9173 136.214V149.064H81.9523V123.258ZM112.443 123.258H120.09V126.762H120.196C120.444 126.267 120.798 125.771 121.258 125.276C121.718 124.78 122.267 124.338 122.904 123.948C123.541 123.559 124.267 123.24 125.081 122.992C125.895 122.745 126.78 122.621 127.736 122.621C129.754 122.621 131.382 122.939 132.621 123.576C133.86 124.178 134.816 125.028 135.489 126.125C136.197 127.223 136.675 128.515 136.922 130.002C137.17 131.488 137.294 133.099 137.294 134.834V149.064H129.329V136.427C129.329 135.683 129.294 134.922 129.223 134.143C129.188 133.329 129.028 132.586 128.745 131.913C128.497 131.241 128.09 130.692 127.524 130.267C126.993 129.842 126.214 129.63 125.187 129.63C124.161 129.63 123.329 129.825 122.692 130.214C122.054 130.568 121.559 131.064 121.205 131.701C120.886 132.303 120.674 132.993 120.568 133.772C120.461 134.55 120.408 135.365 120.408 136.214V149.064H112.443V123.258ZM141.979 136.161C141.979 134.108 142.35 132.249 143.094 130.586C143.837 128.922 144.846 127.506 146.12 126.338C147.43 125.134 148.952 124.214 150.687 123.576C152.457 122.939 154.333 122.621 156.316 122.621C158.298 122.621 160.156 122.939 161.891 123.576C163.661 124.214 165.183 125.134 166.458 126.338C167.767 127.506 168.794 128.922 169.537 130.586C170.281 132.249 170.653 134.108 170.653 136.161C170.653 138.214 170.281 140.073 169.537 141.737C168.794 143.4 167.767 144.834 166.458 146.038C165.183 147.206 163.661 148.109 161.891 148.746C160.156 149.383 158.298 149.702 156.316 149.702C154.333 149.702 152.457 149.383 150.687 148.746C148.952 148.109 147.43 147.206 146.12 146.038C144.846 144.834 143.837 143.4 143.094 141.737C142.35 140.073 141.979 138.214 141.979 136.161ZM149.944 136.161C149.944 138.108 150.492 139.683 151.59 140.887C152.722 142.091 154.298 142.692 156.316 142.692C158.333 142.692 159.891 142.091 160.988 140.887C162.121 139.683 162.688 138.108 162.688 136.161C162.688 134.214 162.121 132.639 160.988 131.435C159.891 130.232 158.333 129.63 156.316 129.63C154.298 129.63 152.722 130.232 151.59 131.435C150.492 132.639 149.944 134.214 149.944 136.161ZM172.636 123.258H181.238L187.769 140.781H187.876L193.929 123.258H201.947L191.752 149.064H183.309L172.636 123.258ZM221.045 145.825H220.939C220.054 147.206 218.868 148.197 217.381 148.799C215.93 149.401 214.39 149.702 212.762 149.702C211.558 149.702 210.39 149.525 209.257 149.171C208.16 148.852 207.186 148.356 206.337 147.684C205.487 147.011 204.814 146.179 204.319 145.188C203.823 144.197 203.575 143.046 203.575 141.737C203.575 140.25 203.841 138.993 204.372 137.967C204.938 136.94 205.682 136.09 206.602 135.418C207.558 134.745 208.638 134.232 209.841 133.878C211.045 133.488 212.284 133.205 213.558 133.028C214.868 132.851 216.16 132.745 217.434 132.71C218.744 132.674 219.948 132.657 221.045 132.657C221.045 131.241 220.532 130.125 219.505 129.311C218.514 128.462 217.328 128.037 215.948 128.037C214.638 128.037 213.434 128.32 212.337 128.886C211.275 129.417 210.319 130.161 209.469 131.117L205.221 126.762C206.708 125.382 208.443 124.355 210.425 123.683C212.408 122.975 214.461 122.621 216.585 122.621C218.921 122.621 220.833 122.922 222.32 123.523C223.842 124.09 225.045 124.939 225.93 126.072C226.851 127.205 227.488 128.603 227.842 130.267C228.196 131.895 228.373 133.789 228.373 135.949V149.064H221.045V145.825ZM219.081 137.754C218.479 137.754 217.718 137.79 216.797 137.86C215.912 137.896 215.045 138.037 214.195 138.285C213.381 138.533 212.673 138.905 212.071 139.4C211.505 139.896 211.222 140.586 211.222 141.471C211.222 142.427 211.629 143.135 212.443 143.595C213.257 144.055 214.107 144.285 214.992 144.285C215.771 144.285 216.514 144.179 217.222 143.967C217.965 143.754 218.62 143.454 219.187 143.064C219.753 142.675 220.196 142.179 220.514 141.577C220.868 140.976 221.045 140.268 221.045 139.453V137.754H219.081ZM250.946 129.63H243.937V138.232C243.937 138.94 243.973 139.595 244.043 140.197C244.114 140.763 244.273 141.259 244.521 141.684C244.769 142.108 245.141 142.445 245.636 142.692C246.167 142.905 246.858 143.011 247.707 143.011C248.132 143.011 248.681 142.976 249.353 142.905C250.061 142.799 250.592 142.586 250.946 142.268V148.905C250.061 149.224 249.141 149.436 248.185 149.542C247.229 149.649 246.291 149.702 245.371 149.702C244.026 149.702 242.787 149.56 241.654 149.277C240.521 148.994 239.53 148.551 238.68 147.949C237.831 147.312 237.158 146.498 236.662 145.507C236.202 144.516 235.972 143.312 235.972 141.896V129.63H230.875V123.258H235.972V115.611H243.937V123.258H250.946V129.63ZM255.1 123.258H263.065V149.064H255.1V123.258ZM254.463 115.134C254.463 113.859 254.905 112.779 255.79 111.894C256.711 110.974 257.808 110.514 259.083 110.514C260.357 110.514 261.437 110.974 262.322 111.894C263.242 112.779 263.702 113.859 263.702 115.134C263.702 116.408 263.242 117.505 262.322 118.426C261.437 119.311 260.357 119.753 259.083 119.753C257.808 119.753 256.711 119.311 255.79 118.426C254.905 117.505 254.463 116.408 254.463 115.134ZM267.832 136.161C267.832 134.108 268.203 132.249 268.947 130.586C269.69 128.922 270.699 127.506 271.974 126.338C273.283 125.134 274.806 124.214 276.54 123.576C278.31 122.939 280.186 122.621 282.169 122.621C284.151 122.621 286.01 122.939 287.744 123.576C289.514 124.214 291.036 125.134 292.311 126.338C293.621 127.506 294.647 128.922 295.391 130.586C296.134 132.249 296.506 134.108 296.506 136.161C296.506 138.214 296.134 140.073 295.391 141.737C294.647 143.4 293.621 144.834 292.311 146.038C291.036 147.206 289.514 148.109 287.744 148.746C286.01 149.383 284.151 149.702 282.169 149.702C280.186 149.702 278.31 149.383 276.54 148.746C274.806 148.109 273.283 147.206 271.974 146.038C270.699 144.834 269.69 143.4 268.947 141.737C268.203 140.073 267.832 138.214 267.832 136.161ZM275.797 136.161C275.797 138.108 276.345 139.683 277.443 140.887C278.576 142.091 280.151 142.692 282.169 142.692C284.187 142.692 285.744 142.091 286.842 140.887C287.974 139.683 288.541 138.108 288.541 136.161C288.541 134.214 287.974 132.639 286.842 131.435C285.744 130.232 284.187 129.63 282.169 129.63C280.151 129.63 278.576 130.232 277.443 131.435C276.345 132.639 275.797 134.214 275.797 136.161ZM301.197 123.258H308.844V126.762H308.95C309.198 126.267 309.552 125.771 310.012 125.276C310.472 124.78 311.021 124.338 311.658 123.948C312.295 123.559 313.021 123.24 313.835 122.992C314.649 122.745 315.534 122.621 316.49 122.621C318.508 122.621 320.136 122.939 321.375 123.576C322.614 124.178 323.57 125.028 324.243 126.125C324.951 127.223 325.429 128.515 325.676 130.002C325.924 131.488 326.048 133.099 326.048 134.834V149.064H318.083V136.427C318.083 135.683 318.048 134.922 317.977 134.143C317.941 133.329 317.782 132.586 317.499 131.913C317.251 131.241 316.844 130.692 316.278 130.267C315.747 129.842 314.968 129.63 313.941 129.63C312.915 129.63 312.083 129.825 311.446 130.214C310.808 130.568 310.313 131.064 309.959 131.701C309.64 132.303 309.428 132.993 309.322 133.772C309.215 134.55 309.162 135.365 309.162 136.214V149.064H301.197V123.258Z" fill="white"/>
</svg>
