<svg width="54" height="54" viewBox="0 0 54 54" fill="none" xmlns="http://www.w3.org/2000/svg">
<g id="Main Logo State 1" clip-path="url(#clip0_5665_10737)">
<path id="Vector" d="M0 5.4C0 2.41766 2.41766 0 5.4 0H48.6C51.5824 0 54 2.41766 54 5.4V48.6C54 51.5824 51.5824 54 48.6 54H5.4C2.41766 54 0 51.5824 0 48.6V5.4Z" fill="#403580"/>
<path id="Vector_2" d="M22.643 8.29582V5.40039H17.2259V8.29582C17.2259 17.3445 13.9961 21.3522 11.2145 23.2572C9.74058 24.2666 8.25056 24.7803 7.11947 25.0385C6.55798 25.1667 6.0986 25.2288 5.79366 25.2586C5.64171 25.2735 5.5296 25.2802 5.46421 25.2832C5.43154 25.2846 5.41064 25.2852 5.40238 25.2854C5.39973 25.2855 5.39844 25.2855 5.39844 25.2855L5.39968 25.2855L5.40567 25.2854H5.41059H5.4135C5.41507 25.2854 5.41674 25.2854 5.41674 28.1808C5.41674 31.0763 5.41502 31.0763 5.4134 31.0763H5.41037H5.40535L5.39898 31.0762L5.40092 31.0763C5.40864 31.0764 5.42895 31.077 5.46108 31.0785C5.52545 31.0815 5.63636 31.0883 5.78708 31.1035C6.08958 31.1339 6.54626 31.1972 7.10495 31.3281C8.22966 31.5918 9.71509 32.1171 11.187 33.1522C13.9697 35.1092 17.2259 39.2507 17.2259 48.6004H22.643C22.643 37.5306 18.6404 31.4622 14.1642 28.3144C14.1158 28.2802 14.0673 28.2465 14.0188 28.2132C14.0581 28.1868 14.0974 28.1602 14.1367 28.1333C18.614 25.067 22.643 19.1321 22.643 8.29582Z" fill="#F5F5F5"/>
<path id="Vector_3" d="M23.75 35.6465C23.75 33.6805 24.0536 31.8996 24.6607 30.3036C25.2895 28.7077 26.1569 27.3546 27.2628 26.2443C28.3686 25.111 29.6805 24.2436 31.1984 23.6423C32.7162 23.0409 34.375 22.7402 36.1748 22.7402C37.9745 22.7402 39.6333 23.0409 41.1512 23.6423C42.6691 24.2436 43.9809 25.111 45.0868 26.2443C46.1927 27.3546 47.0492 28.7077 47.6563 30.3036C48.2852 31.8996 48.5996 33.6805 48.5996 35.6465C48.5996 37.6125 48.2852 39.3935 47.6563 40.9894C47.0492 42.5854 46.1927 43.95 45.0868 45.0834C43.9809 46.1936 42.6691 47.0494 41.1512 47.6508C39.6333 48.2521 37.9745 48.5528 36.1748 48.5528C34.375 48.5528 32.7162 48.2521 31.1984 47.6508C29.6805 47.0494 28.3686 46.1936 27.2628 45.0834C26.1569 43.95 25.2895 42.5854 24.6607 40.9894C24.0536 39.3935 23.75 37.6125 23.75 35.6465ZM29.0192 35.6465C29.0192 36.803 29.1818 37.8669 29.507 38.8384C29.854 39.7867 30.3419 40.6194 30.9707 41.3364C31.5995 42.0303 32.3476 42.5738 33.215 42.967C34.104 43.3602 35.0906 43.5568 36.1748 43.5568C37.259 43.5568 38.2347 43.3602 39.1021 42.967C39.9911 42.5738 40.7501 42.0303 41.3789 41.3364C42.0077 40.6194 42.4848 39.7867 42.81 38.8384C43.157 37.8669 43.3304 36.803 43.3304 35.6465C43.3304 34.5132 43.157 33.4608 42.81 32.4893C42.4848 31.5179 42.0077 30.6853 41.3789 29.9914C40.7501 29.2743 39.9911 28.7192 39.1021 28.326C38.2347 27.9328 37.259 27.7362 36.1748 27.7362C35.0906 27.7362 34.104 27.9328 33.215 28.326C32.3476 28.7192 31.5995 29.2743 30.9707 29.9914C30.3419 30.6853 29.854 31.5179 29.507 32.4893C29.1818 33.4608 29.0192 34.5132 29.0192 35.6465Z" fill="#F5F5F5"/>
</g>
<defs>
<clipPath id="clip0_5665_10737">
<rect width="54" height="54" fill="white"/>
</clipPath>
</defs>
</svg>
