<svg width="24" height="25" viewBox="0 0 24 25" fill="none" xmlns="http://www.w3.org/2000/svg">
<g id="Bio tip">
<path id="Vector" d="M22 12.0667C22 17.3499 17.5222 21.6334 12 21.6334C11.3507 21.6343 10.7032 21.5742 10.0654 21.4545C9.60633 21.3682 9.37678 21.3251 9.21653 21.3496C9.05627 21.3741 8.82918 21.4948 8.37499 21.7364C7.09014 22.4197 5.59195 22.661 4.15111 22.393C4.69874 21.7194 5.07275 20.9112 5.23778 20.0448C5.33778 19.5148 5.09 19 4.71889 18.6231C3.03333 16.9115 2 14.6051 2 12.0667C2 6.78357 6.47778 2.5 12 2.5C17.5222 2.5 22 6.78357 22 12.0667Z" stroke="#141B34" stroke-width="2" stroke-linejoin="round"/>
<path id="Vector_2" d="M10.5 10.5385C10.5 9.68879 11.1716 9 12 9C12.8284 9 13.5 9.68879 13.5 10.5385C13.5 10.8447 13.4127 11.1301 13.2623 11.3698C12.8141 12.0844 12 12.7657 12 13.6154V14" stroke="#141B34" stroke-width="2" stroke-linecap="round"/>
<path id="Vector_3" d="M12 17H12.009" stroke="#141B34" stroke-width="2" stroke-linecap="round" stroke-linejoin="round"/>
</g>
</svg>
