<svg width="180" height="180" viewBox="0 0 180 180" fill="none" xmlns="http://www.w3.org/2000/svg">
<g clip-path="url(#clip0_7352_9405)">
<path d="M167.668 99.7833C168.247 110.212 160.642 120.502 146.978 128.608C133.391 136.669 114.202 142.302 92.6399 143.501C71.0776 144.699 51.3832 141.226 36.9863 134.72C22.5086 128.177 13.81 118.794 13.2305 108.365C12.651 97.9363 20.2564 87.6468 33.9201 79.5403C47.5075 71.4792 66.6959 65.8459 88.2582 64.6477C109.821 63.4495 129.515 66.9222 143.912 73.4284C158.39 79.9711 167.088 89.3546 167.668 99.7833Z" fill="#403580" stroke="#FC670B" stroke-width="3.21677"/>
<g clip-path="url(#clip1_7352_9405)">
<mask id="mask0_7352_9405" style="mask-type:luminance" maskUnits="userSpaceOnUse" x="2" y="-7" width="185" height="185">
<path d="M186.415 21.5047L30.5896 -6.26172L2.8232 149.563L158.648 177.33L186.415 21.5047Z" fill="white"/>
</mask>
<g mask="url(#mask0_7352_9405)">
<mask id="mask1_7352_9405" style="mask-type:luminance" maskUnits="userSpaceOnUse" x="6" y="-6" width="185" height="185">
<path d="M34.624 -5.55469L190.449 22.2117L162.683 178.037L6.85763 150.27L34.624 -5.55469Z" fill="white"/>
</mask>
<g mask="url(#mask1_7352_9405)">
<path d="M58.9438 44.0352L55.6945 47.5452" stroke="#FC670B" stroke-width="7.42093" stroke-miterlimit="10"/>
<path d="M59.1414 47.4305L55.6313 44.1812" stroke="#FC670B" stroke-width="7.42093" stroke-miterlimit="10"/>
<path d="M139.798 117.715L136.549 121.224" stroke="#FC670B" stroke-width="7.42093" stroke-miterlimit="10"/>
<path d="M139.993 121.102L136.483 117.853" stroke="#FC670B" stroke-width="7.42093" stroke-miterlimit="10"/>
<path d="M39 82.9805L42.9103 81.3541" stroke="#2424AC" stroke-width="6.57026" stroke-miterlimit="10"/>
<path d="M40.1947 80.2199L41.8211 84.1302" stroke="#2424AC" stroke-width="6.57026" stroke-miterlimit="10"/>
<path d="M42.8164 55.749C42.5515 57.2356 41.1311 58.226 39.6442 57.9611C38.1575 57.6962 37.1671 56.2762 37.432 54.7895C37.6969 53.3026 39.1169 52.3124 40.6035 52.5773C42.0905 52.8423 43.0814 54.262 42.8164 55.749Z" stroke="#FC670B" stroke-width="8.28994" stroke-miterlimit="10"/>
<path d="M149.184 66.8501C149.123 67.1882 148.8 67.4136 148.462 67.3533C148.124 67.2931 147.899 66.97 147.959 66.6319C148.019 66.2938 148.342 66.0684 148.68 66.1286C149.019 66.1889 149.244 66.512 149.184 66.8501Z" stroke="#2424AC" stroke-width="6.57026" stroke-miterlimit="10"/>
<path d="M93.774 35.897C93.7138 36.2351 93.3907 36.4605 93.0526 36.4002C92.7144 36.34 92.4891 36.0169 92.5493 35.6788C92.6096 35.3406 92.9327 35.1153 93.2708 35.1755C93.6089 35.2358 93.8343 35.5589 93.774 35.897Z" stroke="#2424AC" stroke-width="6.57026" stroke-miterlimit="10"/>
<path d="M59.118 48.4484C63.5461 49.1853 66.3977 54.2534 65.4816 59.7587C64.5655 65.2639 60.2264 69.1355 55.7982 68.3987C51.37 67.6618 48.5185 62.5937 49.4346 57.0884C50.3507 51.5831 54.6898 47.7116 59.118 48.4484Z" fill="#E1E1E1"/>
<path d="M141.372 62.1359C145.8 62.8728 148.652 67.9409 147.735 73.4462C146.819 78.9514 142.48 82.823 138.052 82.0862C133.624 81.3493 130.772 76.2812 131.689 70.7759C132.605 65.2706 136.944 61.3991 141.372 62.1359Z" fill="#E1E1E1"/>
<path d="M94.778 85.4173C92.9926 85.0992 75.2941 80.308 70.8995 91.8728C68.6068 97.9061 67.1951 110.722 73.1014 119.122C77.6804 125.634 85.7466 126.786 87.6364 127.166C89.5829 127.558 98.9325 129.566 105.356 125.039C113.16 119.538 117.071 106.509 116.744 99.7749C116.26 89.8091 102.136 86.7285 94.778 85.4173Z" fill="url(#paint0_linear_7352_9405)"/>
<path d="M95.1573 86.2344C104.195 87.8449 111.159 91.2537 110.698 93.8417C110.237 96.4296 102.524 97.2233 93.4862 95.6128C84.4482 94.0023 77.4845 90.5935 77.9457 88.0056C78.4068 85.4176 86.1194 84.624 95.1573 86.2344Z" fill="#D1D1D1"/>
<path d="M95.1573 86.2344C104.195 87.8449 111.159 91.2537 110.698 93.8417C110.237 96.4296 102.524 97.2233 93.4862 95.6128C84.4482 94.0023 77.4845 90.5935 77.9457 88.0056C78.4068 85.4176 86.1194 84.624 95.1573 86.2344Z" stroke="#939393" stroke-width="1.60839"/>
<path d="M139.659 56.0419C126.978 26.892 78.4531 23.8687 63.4241 44.5448C57.9471 52.0798 47.337 73.3648 73.1671 80.6344C78.0378 82.0051 119.091 88.5734 119.091 88.5734C119.091 88.5734 129.968 89.7847 136.411 83.0676C141.263 78.0084 144.175 66.4225 139.659 56.0419Z" fill="url(#paint1_linear_7352_9405)"/>
<path d="M134.465 67.7632L133.647 72.6785C132.797 77.7848 127.847 81.2219 122.6 80.3487L76.1017 72.6113C70.8544 71.7382 67.284 66.8833 68.1337 61.777L68.9516 56.8617C69.8013 51.7553 74.7516 48.3183 79.9988 49.1915L126.497 56.9288C131.744 57.802 135.314 62.6569 134.465 67.7632Z" fill="#222222"/>
<path d="M108.257 53.9702C107.924 54.7366 106.665 69.3423 93.7284 75.2124L124.637 80.3203C124.637 80.3203 131.672 81.7881 134.091 69.9335C135.306 63.9737 133.895 58.3868 127.63 57.1957C121.366 56.0047 108.245 54.0425 108.257 53.9702Z" fill="#3A3A3A"/>
<path d="M84.1596 57.4721L82.7884 65.7125C82.5494 67.1486 81.1893 68.1207 79.7532 67.8817C78.317 67.6427 77.345 66.2826 77.584 64.8464L78.9552 56.6061C79.1942 55.17 80.5542 54.1979 81.9904 54.4369C83.4266 54.6759 84.3986 56.036 84.1596 57.4721Z" fill="#F5F5F5"/>
<path d="M124.348 64.1557L122.977 72.3961C122.738 73.8322 121.378 74.8042 119.942 74.5653C118.505 74.3263 117.533 72.9662 117.772 71.53L119.144 63.2897C119.383 61.8536 120.743 60.8815 122.179 61.1205C123.615 61.3595 124.587 62.7196 124.348 64.1557Z" fill="#F5F5F5"/>
<path d="M62.9191 84.8395C51.8968 93.0695 51.6392 106.238 51.7975 110.362C51.8865 112.68 54.4681 114.132 56.213 113.648C57.5723 113.271 58.1533 111.265 58.4081 110.535C63.4526 96.092 67.3572 89.6768 68.3236 88.2595C68.7737 87.5995 68.8943 85.7056 67.7688 84.8868C66.4776 83.9474 63.8289 84.1602 62.9191 84.8395Z" fill="url(#paint2_linear_7352_9405)"/>
<path d="M125.728 100.801C137.683 93.9962 139.566 80.9607 139.919 76.8488C140.117 74.5374 137.734 72.7777 135.943 73.042C134.548 73.2478 133.723 75.1673 133.38 75.8597C126.589 89.5685 121.921 95.452 120.787 96.7389C120.259 97.3383 119.905 99.2027 120.921 100.154C122.086 101.246 124.741 101.362 125.728 100.801Z" fill="url(#paint3_linear_7352_9405)"/>
<path d="M57.8719 23.0444L57.8719 23.0428C57.8743 22.998 57.8743 22.9513 57.8725 22.9041C57.837 21.9834 57.0591 21.2633 56.1384 21.2988C55.2178 21.3343 54.4976 22.1123 54.5331 23.0329C54.5349 23.0801 54.5386 23.126 54.5444 23.169C54.6481 24.0268 55.4048 24.6715 56.2672 24.6382C57.1296 24.6049 57.8345 23.9048 57.8719 23.0444Z" fill="#2424AC"/>
<path d="M56.4352 28.9641C56.7236 28.9529 56.9907 28.8297 57.1868 28.6178C57.3833 28.4056 57.4855 28.1302 57.4744 27.8418L57.4505 27.2231L57.6565 27.1514C57.926 27.0581 58.1875 26.938 58.4333 26.7941L58.622 26.6837L59.0762 27.1042C59.5137 27.5092 60.1995 27.4828 60.6042 27.0456C60.8004 26.834 60.902 26.5583 60.8909 26.2695C60.8797 25.9808 60.7569 25.7137 60.5453 25.5179L60.0904 25.0968L60.186 24.9001C60.3104 24.6443 60.4104 24.3744 60.4827 24.0988L60.5382 23.8873L61.1569 23.8634C61.6685 23.8437 62.0997 23.4625 62.1821 22.9573C62.1938 22.8859 62.1983 22.8132 62.1955 22.7415C62.1844 22.4527 62.0618 22.186 61.8496 21.9898C61.6377 21.7933 61.3616 21.6914 61.0735 21.7025L60.4548 21.7264L60.3832 21.5201C60.2898 21.2506 60.1694 20.9895 60.0256 20.7437L59.9152 20.555L60.3363 20.1004C60.741 19.6629 60.7146 18.9774 60.2773 18.5724C60.0654 18.3762 59.7897 18.2743 59.501 18.2855C59.2122 18.2966 58.9455 18.4195 58.7493 18.6314L58.3289 19.0859L58.1322 18.9904C57.8761 18.8662 57.6061 18.7663 57.3302 18.694L57.1194 18.6384L57.0955 18.02C57.0725 17.4243 56.5686 16.9582 55.9729 16.9811C55.6845 16.9923 55.418 17.1151 55.2216 17.3273C55.0254 17.5393 54.9232 17.815 54.9343 18.1034L54.9582 18.7218L54.7522 18.7934C54.4827 18.8868 54.2212 19.0072 53.9754 19.1507L53.7867 19.2611L53.3319 18.8407C52.8947 18.4356 52.2095 18.4621 51.8045 18.8993C51.6083 19.1112 51.5064 19.3869 51.5175 19.6757C51.5287 19.9644 51.6515 20.2311 51.8634 20.4273L52.3177 20.8481L52.2221 21.0447C52.0977 21.3009 51.998 21.5705 51.9254 21.8464L51.8705 22.0576L51.2518 22.0814C50.6561 22.1044 50.1902 22.608 50.2132 23.2037C50.2159 23.2736 50.2256 23.3439 50.2418 23.4126L50.25 23.4454C50.3029 23.6408 50.4094 23.8167 50.5591 23.9554C50.7713 24.1515 51.0468 24.2535 51.3352 24.2423L51.9539 24.2185L52.0249 24.4251C52.1185 24.6942 52.2387 24.9554 52.3825 25.2012L52.4929 25.3899L52.0721 25.8448C51.8766 26.0557 51.7746 26.3318 51.7858 26.6208C51.7969 26.9098 51.9198 27.1766 52.1314 27.3725C52.3433 27.5686 52.619 27.6702 52.9077 27.6591C53.1961 27.648 53.4632 27.5254 53.6594 27.3135L54.0798 26.859L54.2765 26.9545C54.5326 27.079 54.8026 27.1786 55.0785 27.2509L55.2894 27.3064L55.3132 27.9251C55.3362 28.5208 55.8395 28.987 56.4352 28.9641ZM54.2232 25.2875C53.6421 24.7903 53.2718 24.0995 53.1801 23.3425C53.1697 23.2612 53.163 23.176 53.1597 23.0901C53.0949 21.4109 54.4077 19.9924 56.0866 19.9276C57.7654 19.8628 59.1843 21.176 59.249 22.8551C59.2524 22.9414 59.2522 23.0278 59.2482 23.1115C59.2151 23.8705 58.8993 24.5872 58.3583 25.128C57.8142 25.6718 57.0907 25.9876 56.3215 26.0173C55.5523 26.047 54.8073 25.7878 54.2232 25.2875Z" fill="#2424AC"/>
<path d="M153.047 91.6287L153.048 91.6298C153.067 91.6518 153.088 91.6739 153.111 91.695C153.547 92.1088 154.239 92.0901 154.652 91.6537C155.067 91.2171 155.048 90.5256 154.612 90.1118C154.589 90.0907 154.566 90.071 154.544 90.053C154.104 89.7002 153.457 89.7443 153.069 90.1529C152.682 90.562 152.672 91.2099 153.047 91.6287Z" fill="#2424AC"/>
<path d="M151.018 88.2156C150.888 88.3524 150.819 88.5316 150.824 88.7201C150.829 88.9086 150.907 89.084 151.044 89.2138L151.338 89.4912L151.274 89.619C151.191 89.7854 151.123 89.9607 151.074 90.14L151.037 90.2774L150.632 90.2882C150.243 90.2985 149.935 90.6237 149.945 91.0128C149.951 91.2013 150.029 91.376 150.166 91.5061C150.302 91.6357 150.482 91.7043 150.67 91.6994L151.074 91.6886L151.119 91.8241C151.178 92.0004 151.254 92.172 151.346 92.3339L151.417 92.4575L151.139 92.7511C150.909 92.9937 150.881 93.3678 151.073 93.6419C151.1 93.6804 151.131 93.7164 151.165 93.7487C151.302 93.8785 151.481 93.9469 151.669 93.9421C151.858 93.9371 152.033 93.8588 152.163 93.7224L152.441 93.4288L152.569 93.4926C152.735 93.5756 152.91 93.6428 153.09 93.6922L153.227 93.73L153.238 94.1341C153.249 94.523 153.573 94.8312 153.962 94.8209C154.151 94.8157 154.326 94.738 154.456 94.601C154.585 94.4643 154.654 94.2848 154.649 94.0966L154.638 93.6923L154.774 93.6476C154.95 93.5888 155.122 93.5123 155.283 93.4205L155.407 93.3496L155.7 93.6277C155.983 93.8956 156.431 93.8836 156.698 93.6014C156.828 93.4647 156.897 93.2851 156.892 93.0965C156.887 92.908 156.809 92.733 156.672 92.6033L156.379 92.3253L156.442 92.1975C156.526 92.0311 156.592 91.8562 156.642 91.6771L156.68 91.539L157.084 91.5285C157.473 91.5182 157.781 91.1934 157.771 90.8043C157.766 90.6158 157.687 90.4406 157.551 90.3106C157.414 90.1811 157.235 90.1125 157.046 90.1172L156.642 90.1283L156.597 89.9926C156.538 89.8163 156.462 89.6451 156.37 89.483L156.299 89.3589L156.577 89.0659C156.845 88.7834 156.833 88.336 156.551 88.0681C156.518 88.0367 156.481 88.0081 156.442 87.9834L156.423 87.9716C156.31 87.9046 156.18 87.8714 156.046 87.8747C155.858 87.8797 155.683 87.9578 155.553 88.0944L155.275 88.3882L155.148 88.3237C154.981 88.2407 154.806 88.1738 154.627 88.1245L154.489 88.0868L154.478 87.6821C154.473 87.4943 154.395 87.3193 154.258 87.1898C154.12 87.0599 153.942 86.9909 153.753 86.9961C153.565 87.0011 153.39 87.0792 153.26 87.2159C153.131 87.3527 153.062 87.5315 153.067 87.7201L153.078 88.124L152.942 88.1693C152.766 88.2282 152.595 88.3048 152.433 88.3968L152.309 88.4666L152.015 88.1892C151.733 87.9214 151.286 87.9335 151.018 88.2156ZM153.728 88.9235C154.226 88.8907 154.714 89.0447 155.102 89.3564C155.144 89.3897 155.186 89.4264 155.227 89.4651C156.022 90.2195 156.056 91.4808 155.302 92.2767C154.547 93.0728 153.286 93.1063 152.49 92.3517C152.449 92.313 152.409 92.2729 152.373 92.2316C152.042 91.862 151.863 91.3832 151.869 90.8837C151.875 90.382 152.069 89.9045 152.415 89.5398C152.76 89.1752 153.227 88.956 153.728 88.9235Z" fill="#2424AC"/>
</g>
</g>
</g>
</g>
<defs>
<linearGradient id="paint0_linear_7352_9405" x1="71.7147" y1="98.7247" x2="108.125" y2="104.915" gradientUnits="userSpaceOnUse">
<stop stop-color="#EBF4FC"/>
<stop offset="0.65" stop-color="#DDE1E5"/>
<stop offset="1" stop-color="#CFCFCF"/>
</linearGradient>
<linearGradient id="paint1_linear_7352_9405" x1="57.8884" y1="67.0978" x2="129.256" y2="79.2707" gradientUnits="userSpaceOnUse">
<stop stop-color="#EBF4FC"/>
<stop offset="0.65" stop-color="#DDE1E5"/>
<stop offset="1" stop-color="#CFCFCF"/>
</linearGradient>
<linearGradient id="paint2_linear_7352_9405" x1="55.4766" y1="96.8033" x2="61.6133" y2="98.8931" gradientUnits="userSpaceOnUse">
<stop stop-color="#EBF4FC"/>
<stop offset="0.65" stop-color="#DDE1E5"/>
<stop offset="1" stop-color="#CFCFCF"/>
</linearGradient>
<linearGradient id="paint3_linear_7352_9405" x1="129.632" y1="88.1053" x2="135.4" y2="92.4402" gradientUnits="userSpaceOnUse">
<stop stop-color="#EBF4FC"/>
<stop offset="0.65" stop-color="#DDE1E5"/>
<stop offset="1" stop-color="#CFCFCF"/>
</linearGradient>
<clipPath id="clip0_7352_9405">
<rect width="180" height="180" rx="90" fill="white"/>
</clipPath>
<clipPath id="clip1_7352_9405">
<rect width="158.279" height="158.279" fill="white" transform="translate(30.5852 -6.26953) rotate(10.1035)"/>
</clipPath>
</defs>
</svg>
