<svg width="212" height="76" viewBox="0 0 212 76" fill="none" xmlns="http://www.w3.org/2000/svg">
<g filter="url(#filter0_dd_5494_31787)">
<rect x="18.5234" y="15" width="174.477" height="39" rx="19.5" fill="#F5F5F5" shape-rendering="crispEdges"/>
<g clip-path="url(#clip0_5494_31787)">
<path d="M41.7656 25.5C44.1526 25.5 46.4418 26.4482 48.1296 28.136C49.8174 29.8239 50.7656 32.1131 50.7656 34.5C50.7656 36.8869 49.8174 39.1761 48.1296 40.864C46.4418 42.5518 44.1526 43.5 41.7656 43.5C39.3787 43.5 37.0895 42.5518 35.4017 40.864C33.7138 39.1761 32.7656 36.8869 32.7656 34.5C32.7656 32.1131 33.7138 29.8239 35.4017 28.136C37.0895 26.4482 39.3787 25.5 41.7656 25.5ZM40.9219 29.7188V34.5C40.9219 34.7812 41.0625 35.0449 41.298 35.2031L44.673 37.4531C45.0598 37.7133 45.5836 37.6078 45.8438 37.2176C46.1039 36.8273 45.9984 36.307 45.6082 36.0469L42.6094 34.05V29.7188C42.6094 29.2512 42.2332 28.875 41.7656 28.875C41.298 28.875 40.9219 29.2512 40.9219 29.7188Z" fill="#FC670B"/>
</g>
<path d="M60.1797 31.2979V33.9036H63.2452V35.0915H60.1797V37.8121H63.6284V39H58.7236V30.11H63.6284V31.2979H60.1797ZM68.3725 33.15H67.0696V39H65.6007V33.15H64.7705V31.9621H65.6007V31.4639C65.6007 30.655 65.8136 30.0674 66.2394 29.7013C66.6737 29.3266 67.3506 29.1393 68.2703 29.1393V30.3527C67.8275 30.3527 67.5167 30.4379 67.3379 30.6082C67.159 30.77 67.0696 31.0552 67.0696 31.4639V31.9621H68.3725V33.15ZM72.6135 33.15H71.3107V39H69.8418V33.15H69.0115V31.9621H69.8418V31.4639C69.8418 30.655 70.0547 30.0674 70.4804 29.7013C70.9147 29.3266 71.5917 29.1393 72.5113 29.1393V30.3527C72.0685 30.3527 71.7577 30.4379 71.5789 30.6082C71.4001 30.77 71.3107 31.0552 71.3107 31.4639V31.9621H72.6135V33.15ZM74.6448 31.0297C74.3808 31.0297 74.1594 30.9403 73.9806 30.7614C73.8018 30.5826 73.7124 30.3612 73.7124 30.0972C73.7124 29.8333 73.8018 29.6119 73.9806 29.433C74.1594 29.2542 74.3808 29.1648 74.6448 29.1648C74.9003 29.1648 75.1174 29.2542 75.2962 29.433C75.475 29.6119 75.5645 29.8333 75.5645 30.0972C75.5645 30.3612 75.475 30.5826 75.2962 30.7614C75.1174 30.9403 74.9003 31.0297 74.6448 31.0297ZM75.3601 31.9621V39H73.904V31.9621H75.3601ZM76.7865 35.4747C76.7865 34.7509 76.9312 34.1165 77.2208 33.5715C77.5188 33.018 77.9275 32.5922 78.447 32.2942C78.9664 31.9962 79.5625 31.8471 80.2352 31.8471C81.0867 31.8471 81.7892 32.0515 82.3427 32.4602C82.9047 32.8605 83.2837 33.4352 83.4795 34.1846H81.9084C81.7807 33.8355 81.5763 33.563 81.2953 33.3671C81.0143 33.1713 80.6609 33.0733 80.2352 33.0733C79.6391 33.0733 79.1622 33.2862 78.8046 33.712C78.4555 34.1292 78.2809 34.7168 78.2809 35.4747C78.2809 36.2325 78.4555 36.8243 78.8046 37.2501C79.1622 37.6759 79.6391 37.8888 80.2352 37.8888C81.0782 37.8888 81.6359 37.5183 81.9084 36.7775H83.4795C83.2751 37.4928 82.8919 38.0633 82.3299 38.4891C81.7679 38.9063 81.0697 39.115 80.2352 39.115C79.5625 39.115 78.9664 38.9659 78.447 38.6679C77.9275 38.3614 77.5188 37.9356 77.2208 37.3906C76.9312 36.8371 76.7865 36.1985 76.7865 35.4747ZM85.6715 31.0297C85.4075 31.0297 85.1861 30.9403 85.0073 30.7614C84.8284 30.5826 84.739 30.3612 84.739 30.0972C84.739 29.8333 84.8284 29.6119 85.0073 29.433C85.1861 29.2542 85.4075 29.1648 85.6715 29.1648C85.9269 29.1648 86.1441 29.2542 86.3229 29.433C86.5017 29.6119 86.5911 29.8333 86.5911 30.0972C86.5911 30.3612 86.5017 30.5826 86.3229 30.7614C86.1441 30.9403 85.9269 31.0297 85.6715 31.0297ZM86.3868 31.9621V39H84.9306V31.9621H86.3868ZM94.7489 35.3086C94.7489 35.5726 94.7318 35.811 94.6978 36.0239H89.3203C89.3629 36.5859 89.5715 37.0372 89.9462 37.3778C90.3209 37.7184 90.7807 37.8888 91.3257 37.8888C92.1091 37.8888 92.6626 37.5609 92.9862 36.9052H94.5573C94.3444 37.5524 93.9569 38.0846 93.3949 38.5019C92.8414 38.9106 92.1517 39.115 91.3257 39.115C90.653 39.115 90.0484 38.9659 89.5119 38.6679C88.984 38.3614 88.5667 37.9356 88.2602 37.3906C87.9622 36.8371 87.8131 36.1985 87.8131 35.4747C87.8131 34.7509 87.9579 34.1165 88.2474 33.5715C88.5455 33.018 88.9584 32.5922 89.4864 32.2942C90.0229 31.9962 90.636 31.8471 91.3257 31.8471C91.9899 31.8471 92.5817 31.9919 93.1011 32.2814C93.6206 32.5709 94.0251 32.9797 94.3146 33.5076C94.6041 34.0271 94.7489 34.6274 94.7489 35.3086ZM93.2289 34.8488C93.2204 34.3123 93.0288 33.8823 92.6541 33.5587C92.2794 33.2351 91.8153 33.0733 91.2618 33.0733C90.7594 33.0733 90.3294 33.2351 89.9718 33.5587C89.6141 33.8738 89.4012 34.3038 89.3331 34.8488H93.2289ZM99.7327 31.8471C100.286 31.8471 100.78 31.9621 101.214 32.192C101.657 32.4219 102.002 32.7625 102.249 33.2138C102.496 33.6652 102.619 34.2101 102.619 34.8488V39H101.176V35.0659C101.176 34.4358 101.019 33.9547 100.703 33.6226C100.388 33.282 99.9584 33.1117 99.4134 33.1117C98.8684 33.1117 98.4341 33.282 98.1105 33.6226C97.7955 33.9547 97.6379 34.4358 97.6379 35.0659V39H96.1818V31.9621H97.6379V32.7668C97.8764 32.4773 98.1787 32.2516 98.5448 32.0898C98.9195 31.928 99.3155 31.8471 99.7327 31.8471ZM106.176 33.15V37.0457C106.176 37.3097 106.235 37.5013 106.354 37.6205C106.482 37.7312 106.695 37.7866 106.993 37.7866H107.887V39H106.738C106.082 39 105.58 38.8467 105.23 38.5402C104.881 38.2336 104.707 37.7355 104.707 37.0457V33.15H103.876V31.9621H104.707V30.2122H106.176V31.9621H107.887V33.15H106.176ZM117.158 39L115.115 35.4491H114.003V39H112.547V30.1228H115.613C116.294 30.1228 116.869 30.242 117.337 30.4804C117.814 30.7189 118.167 31.0382 118.397 31.4384C118.636 31.8386 118.755 32.2857 118.755 32.7796C118.755 33.3586 118.585 33.8866 118.244 34.3634C117.912 34.8318 117.397 35.1511 116.698 35.3214L118.895 39H117.158ZM114.003 34.2868H115.613C116.158 34.2868 116.566 34.1505 116.839 33.878C117.12 33.6055 117.26 33.2394 117.26 32.7796C117.26 32.3197 117.124 31.9621 116.852 31.7066C116.579 31.4427 116.166 31.3107 115.613 31.3107H114.003V34.2868ZM127.068 35.3086C127.068 35.5726 127.051 35.811 127.017 36.0239H121.639C121.682 36.5859 121.891 37.0372 122.265 37.3778C122.64 37.7184 123.1 37.8888 123.645 37.8888C124.428 37.8888 124.982 37.5609 125.305 36.9052H126.876C126.663 37.5524 126.276 38.0846 125.714 38.5019C125.161 38.9106 124.471 39.115 123.645 39.115C122.972 39.115 122.368 38.9659 121.831 38.6679C121.303 38.3614 120.886 37.9356 120.579 37.3906C120.281 36.8371 120.132 36.1985 120.132 35.4747C120.132 34.7509 120.277 34.1165 120.567 33.5715C120.865 33.018 121.278 32.5922 121.805 32.2942C122.342 31.9962 122.955 31.8471 123.645 31.8471C124.309 31.8471 124.901 31.9919 125.42 32.2814C125.94 32.5709 126.344 32.9797 126.634 33.5076C126.923 34.0271 127.068 34.6274 127.068 35.3086ZM125.548 34.8488C125.539 34.3123 125.348 33.8823 124.973 33.5587C124.599 33.2351 124.134 33.0733 123.581 33.0733C123.079 33.0733 122.649 33.2351 122.291 33.5587C121.933 33.8738 121.72 34.3038 121.652 34.8488H125.548ZM131.056 39.115C130.502 39.115 130.004 39.017 129.561 38.8212C129.127 38.6168 128.782 38.3443 128.526 38.0037C128.271 37.6546 128.135 37.2671 128.118 36.8414H129.625C129.65 37.1394 129.791 37.3906 130.046 37.595C130.31 37.7908 130.638 37.8888 131.03 37.8888C131.439 37.8888 131.754 37.8121 131.975 37.6588C132.205 37.497 132.32 37.2927 132.32 37.0457C132.32 36.7818 132.192 36.5859 131.937 36.4582C131.69 36.3304 131.294 36.1899 130.749 36.0367C130.221 35.8919 129.791 35.7514 129.459 35.6152C129.127 35.4789 128.837 35.2703 128.59 34.9893C128.352 34.7083 128.233 34.3379 128.233 33.878C128.233 33.5034 128.343 33.1628 128.565 32.8562C128.786 32.5411 129.101 32.2942 129.51 32.1154C129.927 31.9365 130.404 31.8471 130.941 31.8471C131.741 31.8471 132.384 32.0515 132.869 32.4602C133.363 32.8605 133.627 33.4097 133.661 34.108H132.205C132.18 33.7929 132.052 33.5417 131.822 33.3543C131.592 33.167 131.281 33.0733 130.889 33.0733C130.506 33.0733 130.212 33.1457 130.008 33.2905C129.804 33.4352 129.702 33.6268 129.702 33.8653C129.702 34.0526 129.77 34.2101 129.906 34.3379C130.042 34.4656 130.208 34.5678 130.404 34.6444C130.6 34.7125 130.889 34.802 131.273 34.9127C131.784 35.0489 132.201 35.1894 132.524 35.3342C132.857 35.4704 133.142 35.6748 133.38 35.9473C133.619 36.2198 133.742 36.5817 133.751 37.033C133.751 37.4332 133.64 37.7908 133.419 38.1059C133.197 38.421 132.882 38.6679 132.473 38.8467C132.073 39.0255 131.6 39.115 131.056 39.115ZM138.377 39.115C137.713 39.115 137.112 38.9659 136.576 38.6679C136.039 38.3614 135.618 37.9356 135.311 37.3906C135.005 36.8371 134.851 36.1985 134.851 35.4747C134.851 34.7594 135.009 34.125 135.324 33.5715C135.639 33.018 136.069 32.5922 136.614 32.2942C137.159 31.9962 137.768 31.8471 138.441 31.8471C139.113 31.8471 139.722 31.9962 140.267 32.2942C140.812 32.5922 141.242 33.018 141.557 33.5715C141.872 34.125 142.03 34.7594 142.03 35.4747C142.03 36.1899 141.868 36.8243 141.544 37.3778C141.221 37.9313 140.778 38.3614 140.216 38.6679C139.663 38.9659 139.049 39.115 138.377 39.115ZM138.377 37.8504C138.751 37.8504 139.101 37.761 139.424 37.5822C139.756 37.4034 140.024 37.1351 140.229 36.7775C140.433 36.4199 140.535 35.9856 140.535 35.4747C140.535 34.9637 140.437 34.5337 140.242 34.1846C140.046 33.8269 139.786 33.5587 139.462 33.3799C139.139 33.2011 138.79 33.1117 138.415 33.1117C138.04 33.1117 137.691 33.2011 137.368 33.3799C137.053 33.5587 136.801 33.8269 136.614 34.1846C136.427 34.5337 136.333 34.9637 136.333 35.4747C136.333 36.2325 136.525 36.8201 136.908 37.2373C137.3 37.6461 137.789 37.8504 138.377 37.8504ZM144.925 29.548V39H143.469V29.548H144.925ZM153.211 31.9621V39H151.755V38.1698C151.525 38.4593 151.223 38.6892 150.848 38.8595C150.482 39.0213 150.09 39.1022 149.673 39.1022C149.119 39.1022 148.621 38.9872 148.178 38.7573C147.744 38.5274 147.399 38.1868 147.144 37.7355C146.897 37.2842 146.773 36.7392 146.773 36.1005V31.9621H148.217V35.8834C148.217 36.5135 148.374 36.9989 148.689 37.3395C149.004 37.6716 149.434 37.8377 149.979 37.8377C150.524 37.8377 150.954 37.6716 151.269 37.3395C151.593 36.9989 151.755 36.5135 151.755 35.8834V31.9621H153.211ZM156.831 33.15V37.0457C156.831 37.3097 156.89 37.5013 157.01 37.6205C157.137 37.7312 157.35 37.7866 157.648 37.7866H158.542V39H157.393C156.737 39 156.235 38.8467 155.886 38.5402C155.537 38.2336 155.362 37.7355 155.362 37.0457V33.15H154.532V31.9621H155.362V30.2122H156.831V31.9621H158.542V33.15H156.831ZM160.625 31.0297C160.361 31.0297 160.14 30.9403 159.961 30.7614C159.782 30.5826 159.693 30.3612 159.693 30.0972C159.693 29.8333 159.782 29.6119 159.961 29.433C160.14 29.2542 160.361 29.1648 160.625 29.1648C160.881 29.1648 161.098 29.2542 161.277 29.433C161.456 29.6119 161.545 29.8333 161.545 30.0972C161.545 30.3612 161.456 30.5826 161.277 30.7614C161.098 30.9403 160.881 31.0297 160.625 31.0297ZM161.341 31.9621V39H159.885V31.9621H161.341ZM166.305 39.115C165.641 39.115 165.041 38.9659 164.504 38.6679C163.968 38.3614 163.546 37.9356 163.24 37.3906C162.933 36.8371 162.78 36.1985 162.78 35.4747C162.78 34.7594 162.937 34.125 163.252 33.5715C163.567 33.018 163.997 32.5922 164.542 32.2942C165.087 31.9962 165.696 31.8471 166.369 31.8471C167.042 31.8471 167.651 31.9962 168.196 32.2942C168.74 32.5922 169.171 33.018 169.486 33.5715C169.801 34.125 169.958 34.7594 169.958 35.4747C169.958 36.1899 169.796 36.8243 169.473 37.3778C169.149 37.9313 168.706 38.3614 168.144 38.6679C167.591 38.9659 166.978 39.115 166.305 39.115ZM166.305 37.8504C166.68 37.8504 167.029 37.761 167.352 37.5822C167.685 37.4034 167.953 37.1351 168.157 36.7775C168.362 36.4199 168.464 35.9856 168.464 35.4747C168.464 34.9637 168.366 34.5337 168.17 34.1846C167.974 33.8269 167.714 33.5587 167.391 33.3799C167.067 33.2011 166.718 33.1117 166.343 33.1117C165.969 33.1117 165.62 33.2011 165.296 33.3799C164.981 33.5587 164.73 33.8269 164.542 34.1846C164.355 34.5337 164.261 34.9637 164.261 35.4747C164.261 36.2325 164.453 36.8201 164.836 37.2373C165.228 37.6461 165.718 37.8504 166.305 37.8504ZM174.949 31.8471C175.502 31.8471 175.996 31.9621 176.43 32.192C176.873 32.4219 177.218 32.7625 177.465 33.2138C177.712 33.6652 177.835 34.2101 177.835 34.8488V39H176.392V35.0659C176.392 34.4358 176.234 33.9547 175.919 33.6226C175.604 33.282 175.174 33.1117 174.629 33.1117C174.084 33.1117 173.65 33.282 173.326 33.6226C173.011 33.9547 172.854 34.4358 172.854 35.0659V39H171.398V31.9621H172.854V32.7668C173.092 32.4773 173.394 32.2516 173.761 32.0898C174.135 31.928 174.531 31.8471 174.949 31.8471Z" fill="#191A1F"/>
</g>
<defs>
<filter id="filter0_dd_5494_31787" x="0.276342" y="0.402324" width="210.971" height="75.4942" filterUnits="userSpaceOnUse" color-interpolation-filters="sRGB">
<feFlood flood-opacity="0" result="BackgroundImageFix"/>
<feColorMatrix in="SourceAlpha" type="matrix" values="0 0 0 0 0 0 0 0 0 0 0 0 0 0 0 0 0 0 127 0" result="hardAlpha"/>
<feOffset dy="3.64942"/>
<feGaussianBlur stdDeviation="9.12355"/>
<feComposite in2="hardAlpha" operator="out"/>
<feColorMatrix type="matrix" values="0 0 0 0 0 0 0 0 0 0 0 0 0 0 0 0 0 0 0.08 0"/>
<feBlend mode="normal" in2="BackgroundImageFix" result="effect1_dropShadow_5494_31787"/>
<feColorMatrix in="SourceAlpha" type="matrix" values="0 0 0 0 0 0 0 0 0 0 0 0 0 0 0 0 0 0 127 0" result="hardAlpha"/>
<feOffset/>
<feGaussianBlur stdDeviation="0.456177"/>
<feComposite in2="hardAlpha" operator="out"/>
<feColorMatrix type="matrix" values="0 0 0 0 0.262745 0 0 0 0 1 0 0 0 0 0.572549 0 0 0 0.08 0"/>
<feBlend mode="normal" in2="effect1_dropShadow_5494_31787" result="effect2_dropShadow_5494_31787"/>
<feBlend mode="normal" in="SourceGraphic" in2="effect2_dropShadow_5494_31787" result="shape"/>
</filter>
<clipPath id="clip0_5494_31787">
<rect width="18" height="18" fill="white" transform="translate(32.7656 25.5)"/>
</clipPath>
</defs>
</svg>
