<svg width="228" height="76" viewBox="0 0 228 76" fill="none" xmlns="http://www.w3.org/2000/svg">
<g filter="url(#filter0_dd_5494_31779)">
<rect x="19" y="15" width="189.8" height="39" rx="19.5" fill="#F5F5F5" shape-rendering="crispEdges"/>
<g clip-path="url(#clip0_5494_31779)">
<path d="M41.75 27.1875C37.7105 27.1875 34.4375 30.4605 34.4375 34.5V35.9062C34.4375 36.3738 34.0613 36.75 33.5938 36.75C33.1262 36.75 32.75 36.3738 32.75 35.9062V34.5C32.75 29.5289 36.7789 25.5 41.75 25.5C46.7211 25.5 50.75 29.5289 50.75 34.5V39.566C50.75 41.2746 49.3648 42.6598 47.6527 42.6598L43.775 42.6562C43.4832 43.159 42.9383 43.5 42.3125 43.5H41.1875C40.2559 43.5 39.5 42.7441 39.5 41.8125C39.5 40.8809 40.2559 40.125 41.1875 40.125H42.3125C42.9383 40.125 43.4832 40.466 43.775 40.9688L47.6562 40.9723C48.4332 40.9723 49.0625 40.343 49.0625 39.566V34.5C49.0625 30.4605 45.7895 27.1875 41.75 27.1875ZM37.8125 32.8125H38.375C38.9973 32.8125 39.5 33.3152 39.5 33.9375V37.875C39.5 38.4973 38.9973 39 38.375 39H37.8125C36.5715 39 35.5625 37.991 35.5625 36.75V35.0625C35.5625 33.8215 36.5715 32.8125 37.8125 32.8125ZM45.6875 32.8125C46.9285 32.8125 47.9375 33.8215 47.9375 35.0625V36.75C47.9375 37.991 46.9285 39 45.6875 39H45.125C44.5027 39 44 38.4973 44 37.875V33.9375C44 33.3152 44.5027 32.8125 45.125 32.8125H45.6875Z" fill="#FC670B"/>
</g>
<path d="M65.2125 32.7668C65.2125 33.2181 65.1061 33.6439 64.8932 34.0441C64.6803 34.4443 64.3397 34.7721 63.8713 35.0276C63.403 35.2746 62.8027 35.398 62.0704 35.398H60.461V39H59.0048V30.1228H62.0704C62.7516 30.1228 63.3264 30.242 63.7947 30.4804C64.2716 30.7103 64.625 31.0254 64.8549 31.4256C65.0933 31.8258 65.2125 32.2729 65.2125 32.7668ZM62.0704 34.2101C62.6239 34.2101 63.0368 34.0867 63.3093 33.8397C63.5818 33.5843 63.7181 33.2266 63.7181 32.7668C63.7181 31.796 63.1688 31.3107 62.0704 31.3107H60.461V34.2101H62.0704ZM73.0516 35.3086C73.0516 35.5726 73.0346 35.811 73.0005 36.0239H67.6231C67.6657 36.5859 67.8743 37.0372 68.249 37.3778C68.6237 37.7184 69.0835 37.8888 69.6285 37.8888C70.4119 37.8888 70.9654 37.5609 71.289 36.9052H72.86C72.6471 37.5524 72.2597 38.0846 71.6977 38.5019C71.1442 38.9106 70.4544 39.115 69.6285 39.115C68.9558 39.115 68.3512 38.9659 67.8147 38.6679C67.2868 38.3614 66.8695 37.9356 66.563 37.3906C66.2649 36.8371 66.1159 36.1985 66.1159 35.4747C66.1159 34.7509 66.2607 34.1165 66.5502 33.5715C66.8482 33.018 67.2612 32.5922 67.7892 32.2942C68.3256 31.9962 68.9387 31.8471 69.6285 31.8471C70.2927 31.8471 70.8845 31.9919 71.4039 32.2814C71.9233 32.5709 72.3278 32.9797 72.6173 33.5076C72.9069 34.0271 73.0516 34.6274 73.0516 35.3086ZM71.5316 34.8488C71.5231 34.3123 71.3315 33.8823 70.9569 33.5587C70.5822 33.2351 70.1181 33.0733 69.5646 33.0733C69.0622 33.0733 68.6322 33.2351 68.2745 33.5587C67.9169 33.8738 67.704 34.3038 67.6359 34.8488H71.5316ZM75.9407 32.9839C76.1536 32.6263 76.4346 32.3495 76.7837 32.1537C77.1414 31.9493 77.5629 31.8471 78.0482 31.8471V33.3543H77.6778C77.1073 33.3543 76.673 33.4991 76.375 33.7886C76.0855 34.0781 75.9407 34.5806 75.9407 35.2958V39H74.4846V31.9621H75.9407V32.9839ZM81.9413 39.115C81.3878 39.115 80.8897 39.017 80.4469 38.8212C80.0126 38.6168 79.6677 38.3443 79.4123 38.0037C79.1568 37.6546 79.0206 37.2671 79.0035 36.8414H80.5107C80.5363 37.1394 80.6768 37.3906 80.9322 37.595C81.1962 37.7908 81.5241 37.8888 81.9158 37.8888C82.3245 37.8888 82.6396 37.8121 82.861 37.6588C83.0909 37.497 83.2058 37.2927 83.2058 37.0457C83.2058 36.7818 83.0781 36.5859 82.8226 36.4582C82.5757 36.3304 82.1797 36.1899 81.6348 36.0367C81.1068 35.8919 80.6768 35.7514 80.3447 35.6152C80.0126 35.4789 79.7231 35.2703 79.4761 34.9893C79.2377 34.7083 79.1185 34.3379 79.1185 33.878C79.1185 33.5034 79.2292 33.1628 79.4506 32.8562C79.672 32.5411 79.987 32.2942 80.3958 32.1154C80.813 31.9365 81.2899 31.8471 81.8263 31.8471C82.6268 31.8471 83.2697 32.0515 83.7551 32.4602C84.249 32.8605 84.5129 33.4097 84.547 34.108H83.0909C83.0653 33.7929 82.9376 33.5417 82.7077 33.3543C82.4778 33.167 82.167 33.0733 81.7753 33.0733C81.3921 33.0733 81.0983 33.1457 80.8939 33.2905C80.6896 33.4352 80.5874 33.6268 80.5874 33.8653C80.5874 34.0526 80.6555 34.2101 80.7917 34.3379C80.928 34.4656 81.094 34.5678 81.2899 34.6444C81.4857 34.7125 81.7753 34.802 82.1584 34.9127C82.6694 35.0489 83.0866 35.1894 83.4102 35.3342C83.7423 35.4704 84.0276 35.6748 84.266 35.9473C84.5044 36.2198 84.6279 36.5817 84.6364 37.033C84.6364 37.4332 84.5257 37.7908 84.3043 38.1059C84.0829 38.421 83.7678 38.6679 83.3591 38.8467C82.9589 39.0255 82.4863 39.115 81.9413 39.115ZM89.2625 39.115C88.5983 39.115 87.998 38.9659 87.4615 38.6679C86.9251 38.3614 86.5035 37.9356 86.197 37.3906C85.8904 36.8371 85.7372 36.1985 85.7372 35.4747C85.7372 34.7594 85.8947 34.125 86.2098 33.5715C86.5248 33.018 86.9549 32.5922 87.4998 32.2942C88.0448 31.9962 88.6537 31.8471 89.3264 31.8471C89.9991 31.8471 90.6079 31.9962 91.1529 32.2942C91.6979 32.5922 92.1279 33.018 92.443 33.5715C92.758 34.125 92.9156 34.7594 92.9156 35.4747C92.9156 36.1899 92.7538 36.8243 92.4302 37.3778C92.1066 37.9313 91.6638 38.3614 91.1018 38.6679C90.5483 38.9659 89.9352 39.115 89.2625 39.115ZM89.2625 37.8504C89.6372 37.8504 89.9863 37.761 90.3099 37.5822C90.642 37.4034 90.9102 37.1351 91.1146 36.7775C91.319 36.4199 91.4211 35.9856 91.4211 35.4747C91.4211 34.9637 91.3232 34.5337 91.1274 34.1846C90.9315 33.8269 90.6718 33.5587 90.3482 33.3799C90.0246 33.2011 89.6755 33.1117 89.3008 33.1117C88.9262 33.1117 88.577 33.2011 88.2534 33.3799C87.9384 33.5587 87.6872 33.8269 87.4998 34.1846C87.3125 34.5337 87.2188 34.9637 87.2188 35.4747C87.2188 36.2325 87.4104 36.8201 87.7936 37.2373C88.1853 37.6461 88.675 37.8504 89.2625 37.8504ZM97.9059 31.8471C98.4594 31.8471 98.9533 31.9621 99.3876 32.192C99.8304 32.4219 100.175 32.7625 100.422 33.2138C100.669 33.6652 100.793 34.2101 100.793 34.8488V39H99.3493V35.0659C99.3493 34.4358 99.1917 33.9547 98.8767 33.6226C98.5616 33.282 98.1316 33.1117 97.5866 33.1117C97.0416 33.1117 96.6073 33.282 96.2838 33.6226C95.9687 33.9547 95.8112 34.4358 95.8112 35.0659V39H94.355V31.9621H95.8112V32.7668C96.0496 32.4773 96.3519 32.2516 96.718 32.0898C97.0927 31.928 97.4887 31.8471 97.9059 31.8471ZM102.165 35.4491C102.165 34.7423 102.309 34.1165 102.599 33.5715C102.897 33.0265 103.297 32.605 103.8 32.307C104.31 32.0004 104.872 31.8471 105.486 31.8471C106.039 31.8471 106.52 31.9578 106.929 32.1792C107.346 32.3921 107.678 32.6604 107.925 32.9839V31.9621H109.394V39H107.925V37.9526C107.678 38.2847 107.342 38.5615 106.916 38.7829C106.49 39.0043 106.005 39.115 105.46 39.115C104.855 39.115 104.302 38.9617 103.8 38.6551C103.297 38.3401 102.897 37.9058 102.599 37.3523C102.309 36.7903 102.165 36.1559 102.165 35.4491ZM107.925 35.4747C107.925 34.9893 107.823 34.5678 107.619 34.2101C107.423 33.8525 107.163 33.58 106.84 33.3927C106.516 33.2053 106.167 33.1117 105.792 33.1117C105.417 33.1117 105.068 33.2053 104.745 33.3927C104.421 33.5715 104.157 33.8397 103.953 34.1974C103.757 34.5465 103.659 34.9637 103.659 35.4491C103.659 35.9345 103.757 36.3603 103.953 36.7264C104.157 37.0926 104.421 37.3736 104.745 37.5694C105.077 37.7568 105.426 37.8504 105.792 37.8504C106.167 37.8504 106.516 37.7568 106.84 37.5694C107.163 37.3821 107.423 37.1096 107.619 36.752C107.823 36.3858 107.925 35.96 107.925 35.4747ZM112.763 29.548V39H111.307V29.548H112.763ZM115.415 31.0297C115.151 31.0297 114.93 30.9403 114.751 30.7614C114.572 30.5826 114.483 30.3612 114.483 30.0972C114.483 29.8333 114.572 29.6119 114.751 29.433C114.93 29.2542 115.151 29.1648 115.415 29.1648C115.671 29.1648 115.888 29.2542 116.067 29.433C116.246 29.6119 116.335 29.8333 116.335 30.0972C116.335 30.3612 116.246 30.5826 116.067 30.7614C115.888 30.9403 115.671 31.0297 115.415 31.0297ZM116.131 31.9621V39H114.675V31.9621H116.131ZM119.332 37.8121H122.526V39H117.646V37.8121L120.852 33.15H117.646V31.9621H122.526V33.15L119.332 37.8121ZM130.505 35.3086C130.505 35.5726 130.488 35.811 130.454 36.0239H125.077C125.119 36.5859 125.328 37.0372 125.702 37.3778C126.077 37.7184 126.537 37.8888 127.082 37.8888C127.865 37.8888 128.419 37.5609 128.742 36.9052H130.313C130.101 37.5524 129.713 38.0846 129.151 38.5019C128.598 38.9106 127.908 39.115 127.082 39.115C126.409 39.115 125.805 38.9659 125.268 38.6679C124.74 38.3614 124.323 37.9356 124.016 37.3906C123.718 36.8371 123.569 36.1985 123.569 35.4747C123.569 34.7509 123.714 34.1165 124.004 33.5715C124.302 33.018 124.715 32.5922 125.243 32.2942C125.779 31.9962 126.392 31.8471 127.082 31.8471C127.746 31.8471 128.338 31.9919 128.857 32.2814C129.377 32.5709 129.781 32.9797 130.071 33.5076C130.36 34.0271 130.505 34.6274 130.505 35.3086ZM128.985 34.8488C128.977 34.3123 128.785 33.8823 128.41 33.5587C128.036 33.2351 127.571 33.0733 127.018 33.0733C126.516 33.0733 126.086 33.2351 125.728 33.5587C125.37 33.8738 125.157 34.3038 125.089 34.8488H128.985ZM131.453 35.4491C131.453 34.7423 131.597 34.1165 131.887 33.5715C132.185 33.0265 132.585 32.605 133.088 32.307C133.598 32.0004 134.165 31.8471 134.786 31.8471C135.246 31.8471 135.698 31.9493 136.14 32.1537C136.592 32.3495 136.949 32.6135 137.213 32.9456V29.548H138.682V39H137.213V37.9398C136.975 38.2805 136.643 38.5615 136.217 38.7829C135.8 39.0043 135.319 39.115 134.774 39.115C134.16 39.115 133.598 38.9617 133.088 38.6551C132.585 38.3401 132.185 37.9058 131.887 37.3523C131.597 36.7903 131.453 36.1559 131.453 35.4491ZM137.213 35.4747C137.213 34.9893 137.111 34.5678 136.907 34.2101C136.711 33.8525 136.451 33.58 136.128 33.3927C135.804 33.2053 135.455 33.1117 135.08 33.1117C134.705 33.1117 134.356 33.2053 134.033 33.3927C133.709 33.5715 133.445 33.8397 133.241 34.1974C133.045 34.5465 132.947 34.9637 132.947 35.4491C132.947 35.9345 133.045 36.3603 133.241 36.7264C133.445 37.0926 133.709 37.3736 134.033 37.5694C134.365 37.7568 134.714 37.8504 135.08 37.8504C135.455 37.8504 135.804 37.7568 136.128 37.5694C136.451 37.3821 136.711 37.1096 136.907 36.752C137.111 36.3858 137.213 35.96 137.213 35.4747ZM146.838 39.0894C146.242 39.0894 145.705 38.9872 145.228 38.7829C144.751 38.57 144.377 38.2719 144.104 37.8888C143.832 37.5056 143.696 37.0585 143.696 36.5476H145.254C145.288 36.9308 145.437 37.2458 145.701 37.4928C145.973 37.7397 146.352 37.8632 146.838 37.8632C147.34 37.8632 147.732 37.744 148.013 37.5056C148.294 37.2586 148.434 36.9436 148.434 36.5604C148.434 36.2623 148.345 36.0196 148.166 35.8323C147.996 35.645 147.779 35.5002 147.515 35.398C147.259 35.2958 146.902 35.1851 146.442 35.0659C145.863 34.9127 145.39 34.7594 145.024 34.6061C144.666 34.4443 144.36 34.1974 144.104 33.8653C143.849 33.5332 143.721 33.0904 143.721 32.5369C143.721 32.026 143.849 31.5789 144.104 31.1957C144.36 30.8125 144.717 30.5187 145.177 30.3144C145.637 30.11 146.169 30.0078 146.774 30.0078C147.634 30.0078 148.336 30.225 148.881 30.6593C149.435 31.085 149.741 31.6726 149.801 32.4219H148.192C148.166 32.0983 148.013 31.8216 147.732 31.5917C147.451 31.3618 147.08 31.2468 146.621 31.2468C146.203 31.2468 145.863 31.3532 145.599 31.5661C145.335 31.779 145.203 32.0856 145.203 32.4858C145.203 32.7583 145.284 32.9839 145.445 33.1628C145.616 33.3331 145.829 33.4693 146.084 33.5715C146.34 33.6737 146.689 33.7844 147.131 33.9036C147.719 34.0654 148.196 34.2272 148.562 34.389C148.937 34.5507 149.252 34.802 149.507 35.1426C149.771 35.4747 149.903 35.9217 149.903 36.4837C149.903 36.935 149.78 37.3608 149.533 37.761C149.294 38.1612 148.941 38.4848 148.473 38.7318C148.013 38.9702 147.468 39.0894 146.838 39.0894ZM157.995 31.9621V39H156.539V38.1698C156.309 38.4593 156.007 38.6892 155.632 38.8595C155.266 39.0213 154.874 39.1022 154.457 39.1022C153.903 39.1022 153.405 38.9872 152.962 38.7573C152.528 38.5274 152.183 38.1868 151.928 37.7355C151.681 37.2842 151.557 36.7392 151.557 36.1005V31.9621H153.001V35.8834C153.001 36.5135 153.158 36.9989 153.473 37.3395C153.788 37.6716 154.219 37.8377 154.763 37.8377C155.308 37.8377 155.738 37.6716 156.054 37.3395C156.377 36.9989 156.539 36.5135 156.539 35.8834V31.9621H157.995ZM161.372 32.9967C161.619 32.6731 161.956 32.4006 162.381 32.1792C162.807 31.9578 163.288 31.8471 163.825 31.8471C164.438 31.8471 164.996 32.0004 165.498 32.307C166.009 32.605 166.409 33.0265 166.699 33.5715C166.988 34.1165 167.133 34.7423 167.133 35.4491C167.133 36.1559 166.988 36.7903 166.699 37.3523C166.409 37.9058 166.009 38.3401 165.498 38.6551C164.996 38.9617 164.438 39.115 163.825 39.115C163.288 39.115 162.811 39.0085 162.394 38.7956C161.977 38.5742 161.636 38.3017 161.372 37.9782V42.3465H159.916V31.9621H161.372V32.9967ZM165.651 35.4491C165.651 34.9637 165.549 34.5465 165.345 34.1974C165.149 33.8397 164.885 33.5715 164.553 33.3927C164.229 33.2053 163.88 33.1117 163.505 33.1117C163.139 33.1117 162.79 33.2053 162.458 33.3927C162.135 33.58 161.871 33.8525 161.666 34.2101C161.47 34.5678 161.372 34.9893 161.372 35.4747C161.372 35.96 161.47 36.3858 161.666 36.752C161.871 37.1096 162.135 37.3821 162.458 37.5694C162.79 37.7568 163.139 37.8504 163.505 37.8504C163.88 37.8504 164.229 37.7568 164.553 37.5694C164.885 37.3736 165.149 37.0926 165.345 36.7264C165.549 36.3603 165.651 35.9345 165.651 35.4491ZM170.029 32.9967C170.276 32.6731 170.612 32.4006 171.038 32.1792C171.464 31.9578 171.945 31.8471 172.481 31.8471C173.095 31.8471 173.652 32.0004 174.155 32.307C174.666 32.605 175.066 33.0265 175.355 33.5715C175.645 34.1165 175.79 34.7423 175.79 35.4491C175.79 36.1559 175.645 36.7903 175.355 37.3523C175.066 37.9058 174.666 38.3401 174.155 38.6551C173.652 38.9617 173.095 39.115 172.481 39.115C171.945 39.115 171.468 39.0085 171.051 38.7956C170.634 38.5742 170.293 38.3017 170.029 37.9782V42.3465H168.573V31.9621H170.029V32.9967ZM174.308 35.4491C174.308 34.9637 174.206 34.5465 174.001 34.1974C173.806 33.8397 173.542 33.5715 173.21 33.3927C172.886 33.2053 172.537 33.1117 172.162 33.1117C171.796 33.1117 171.447 33.2053 171.115 33.3927C170.791 33.58 170.527 33.8525 170.323 34.2101C170.127 34.5678 170.029 34.9893 170.029 35.4747C170.029 35.96 170.127 36.3858 170.323 36.752C170.527 37.1096 170.791 37.3821 171.115 37.5694C171.447 37.7568 171.796 37.8504 172.162 37.8504C172.537 37.8504 172.886 37.7568 173.21 37.5694C173.542 37.3736 173.806 37.0926 174.001 36.7264C174.206 36.3603 174.308 35.9345 174.308 35.4491ZM180.282 39.115C179.618 39.115 179.018 38.9659 178.481 38.6679C177.945 38.3614 177.523 37.9356 177.217 37.3906C176.91 36.8371 176.757 36.1985 176.757 35.4747C176.757 34.7594 176.915 34.125 177.23 33.5715C177.545 33.018 177.975 32.5922 178.52 32.2942C179.065 31.9962 179.674 31.8471 180.346 31.8471C181.019 31.8471 181.628 31.9962 182.173 32.2942C182.718 32.5922 183.148 33.018 183.463 33.5715C183.778 34.125 183.935 34.7594 183.935 35.4747C183.935 36.1899 183.774 36.8243 183.45 37.3778C183.126 37.9313 182.684 38.3614 182.122 38.6679C181.568 38.9659 180.955 39.115 180.282 39.115ZM180.282 37.8504C180.657 37.8504 181.006 37.761 181.33 37.5822C181.662 37.4034 181.93 37.1351 182.134 36.7775C182.339 36.4199 182.441 35.9856 182.441 35.4747C182.441 34.9637 182.343 34.5337 182.147 34.1846C181.951 33.8269 181.692 33.5587 181.368 33.3799C181.044 33.2011 180.695 33.1117 180.321 33.1117C179.946 33.1117 179.597 33.2011 179.273 33.3799C178.958 33.5587 178.707 33.8269 178.52 34.1846C178.332 34.5337 178.239 34.9637 178.239 35.4747C178.239 36.2325 178.43 36.8201 178.813 37.2373C179.205 37.6461 179.695 37.8504 180.282 37.8504ZM186.831 32.9839C187.044 32.6263 187.325 32.3495 187.674 32.1537C188.032 31.9493 188.453 31.8471 188.939 31.8471V33.3543H188.568C187.998 33.3543 187.563 33.4991 187.265 33.7886C186.976 34.0781 186.831 34.5806 186.831 35.2958V39H185.375V31.9621H186.831V32.9839ZM191.976 33.15V37.0457C191.976 37.3097 192.035 37.5013 192.155 37.6205C192.282 37.7312 192.495 37.7866 192.793 37.7866H193.687V39H192.538C191.882 39 191.38 38.8467 191.031 38.5402C190.681 38.2336 190.507 37.7355 190.507 37.0457V33.15H189.677V31.9621H190.507V30.2122H191.976V31.9621H193.687V33.15H191.976Z" fill="#191A1F"/>
</g>
<defs>
<filter id="filter0_dd_5494_31779" x="0.752905" y="0.402324" width="226.291" height="75.4942" filterUnits="userSpaceOnUse" color-interpolation-filters="sRGB">
<feFlood flood-opacity="0" result="BackgroundImageFix"/>
<feColorMatrix in="SourceAlpha" type="matrix" values="0 0 0 0 0 0 0 0 0 0 0 0 0 0 0 0 0 0 127 0" result="hardAlpha"/>
<feOffset dy="3.64942"/>
<feGaussianBlur stdDeviation="9.12355"/>
<feComposite in2="hardAlpha" operator="out"/>
<feColorMatrix type="matrix" values="0 0 0 0 0 0 0 0 0 0 0 0 0 0 0 0 0 0 0.08 0"/>
<feBlend mode="normal" in2="BackgroundImageFix" result="effect1_dropShadow_5494_31779"/>
<feColorMatrix in="SourceAlpha" type="matrix" values="0 0 0 0 0 0 0 0 0 0 0 0 0 0 0 0 0 0 127 0" result="hardAlpha"/>
<feOffset/>
<feGaussianBlur stdDeviation="0.456177"/>
<feComposite in2="hardAlpha" operator="out"/>
<feColorMatrix type="matrix" values="0 0 0 0 0.262745 0 0 0 0 1 0 0 0 0 0.572549 0 0 0 0.08 0"/>
<feBlend mode="normal" in2="effect1_dropShadow_5494_31779" result="effect2_dropShadow_5494_31779"/>
<feBlend mode="normal" in="SourceGraphic" in2="effect2_dropShadow_5494_31779" result="shape"/>
</filter>
<clipPath id="clip0_5494_31779">
<rect width="18" height="18" fill="white" transform="translate(32.75 25.5)"/>
</clipPath>
</defs>
</svg>
