<svg width="207" height="76" viewBox="0 0 207 76" fill="none" xmlns="http://www.w3.org/2000/svg">
<g filter="url(#filter0_dd_5494_31783)">
<rect x="19.1641" y="15" width="169.469" height="39" rx="19.5" fill="#F5F5F5" shape-rendering="crispEdges"/>
<g clip-path="url(#clip0_5494_31783)">
<path d="M41.8985 25.5C42.0602 25.5 42.2219 25.5352 42.3695 25.602L48.9895 28.4109C49.7629 28.7379 50.3395 29.5008 50.336 30.4219C50.3184 33.9094 48.884 40.2902 42.8266 43.1906C42.2395 43.4719 41.5574 43.4719 40.9703 43.1906C34.9129 40.2902 33.4785 33.9094 33.461 30.4219C33.4574 29.5008 34.034 28.7379 34.8074 28.4109L41.4309 25.602C41.575 25.5352 41.7367 25.5 41.8985 25.5ZM41.8985 27.8484V41.1375C46.75 38.7891 48.0543 33.5895 48.086 30.4711L41.8985 27.8484Z" fill="#FC670B"/>
</g>
<path d="M64.5915 30.1228V31.3107H62.2285V39H60.7724V31.3107H58.3966V30.1228H64.5915ZM67.5223 32.9839C67.7352 32.6263 68.0162 32.3495 68.3653 32.1537C68.7229 31.9493 69.1444 31.8471 69.6298 31.8471V33.3543H69.2594C68.6889 33.3543 68.2546 33.4991 67.9566 33.7886C67.667 34.0781 67.5223 34.5806 67.5223 35.2958V39H66.0662V31.9621H67.5223V32.9839ZM77.342 31.9621V39H75.8859V38.1698C75.656 38.4593 75.3537 38.6892 74.979 38.8595C74.6128 39.0213 74.2211 39.1022 73.8039 39.1022C73.2504 39.1022 72.7522 38.9872 72.3094 38.7573C71.8752 38.5274 71.5303 38.1868 71.2748 37.7355C71.0279 37.2842 70.9044 36.7392 70.9044 36.1005V31.9621H72.3478V35.8834C72.3478 36.5135 72.5053 36.9989 72.8204 37.3395C73.1354 37.6716 73.5654 37.8377 74.1104 37.8377C74.6554 37.8377 75.0854 37.6716 75.4005 37.3395C75.7241 36.9989 75.8859 36.5135 75.8859 35.8834V31.9621H77.342ZM81.8178 39.115C81.2643 39.115 80.7662 39.017 80.3234 38.8212C79.8891 38.6168 79.5442 38.3443 79.2888 38.0037C79.0333 37.6546 78.8971 37.2671 78.88 36.8414H80.3872C80.4128 37.1394 80.5533 37.3906 80.8087 37.595C81.0727 37.7908 81.4006 37.8888 81.7923 37.8888C82.201 37.8888 82.5161 37.8121 82.7375 37.6588C82.9674 37.497 83.0823 37.2927 83.0823 37.0457C83.0823 36.7818 82.9546 36.5859 82.6991 36.4582C82.4522 36.3304 82.0562 36.1899 81.5113 36.0367C80.9833 35.8919 80.5533 35.7514 80.2212 35.6152C79.8891 35.4789 79.5996 35.2703 79.3526 34.9893C79.1142 34.7083 78.995 34.3379 78.995 33.878C78.995 33.5034 79.1057 33.1628 79.3271 32.8562C79.5485 32.5411 79.8636 32.2942 80.2723 32.1154C80.6895 31.9365 81.1664 31.8471 81.7029 31.8471C82.5033 31.8471 83.1462 32.0515 83.6316 32.4602C84.1255 32.8605 84.3894 33.4097 84.4235 34.108H82.9674C82.9418 33.7929 82.8141 33.5417 82.5842 33.3543C82.3543 33.167 82.0435 33.0733 81.6518 33.0733C81.2686 33.0733 80.9748 33.1457 80.7704 33.2905C80.5661 33.4352 80.4639 33.6268 80.4639 33.8653C80.4639 34.0526 80.532 34.2101 80.6682 34.3379C80.8045 34.4656 80.9705 34.5678 81.1664 34.6444C81.3622 34.7125 81.6518 34.802 82.035 34.9127C82.5459 35.0489 82.9631 35.1894 83.2867 35.3342C83.6188 35.4704 83.9041 35.6748 84.1425 35.9473C84.3809 36.2198 84.5044 36.5817 84.5129 37.033C84.5129 37.4332 84.4022 37.7908 84.1808 38.1059C83.9594 38.421 83.6443 38.6679 83.2356 38.8467C82.8354 39.0255 82.3628 39.115 81.8178 39.115ZM87.7851 33.15V37.0457C87.7851 37.3097 87.8447 37.5013 87.9639 37.6205C88.0916 37.7312 88.3045 37.7866 88.6026 37.7866H89.4967V39H88.3471C87.6914 39 87.189 38.8467 86.8399 38.5402C86.4908 38.2336 86.3162 37.7355 86.3162 37.0457V33.15H85.486V31.9621H86.3162V30.2122H87.7851V31.9621H89.4967V33.15H87.7851ZM93.6713 35.4491C93.6713 34.7423 93.8161 34.1165 94.1056 33.5715C94.4036 33.0265 94.8039 32.605 95.3063 32.307C95.8172 32.0004 96.3792 31.8471 96.9923 31.8471C97.5458 31.8471 98.0269 31.9578 98.4356 32.1792C98.8529 32.3921 99.185 32.6604 99.4319 32.9839V31.9621H100.901V39H99.4319V37.9526C99.185 38.2847 98.8486 38.5615 98.4229 38.7829C97.9971 39.0043 97.5117 39.115 96.9668 39.115C96.3622 39.115 95.8087 38.9617 95.3063 38.6551C94.8039 38.3401 94.4036 37.9058 94.1056 37.3523C93.8161 36.7903 93.6713 36.1559 93.6713 35.4491ZM99.4319 35.4747C99.4319 34.9893 99.3298 34.5678 99.1254 34.2101C98.9295 33.8525 98.6698 33.58 98.3462 33.3927C98.0227 33.2053 97.6735 33.1117 97.2988 33.1117C96.9242 33.1117 96.575 33.2053 96.2515 33.3927C95.9279 33.5715 95.6639 33.8397 95.4595 34.1974C95.2637 34.5465 95.1658 34.9637 95.1658 35.4491C95.1658 35.9345 95.2637 36.3603 95.4595 36.7264C95.6639 37.0926 95.9279 37.3736 96.2515 37.5694C96.5836 37.7568 96.9327 37.8504 97.2988 37.8504C97.6735 37.8504 98.0227 37.7568 98.3462 37.5694C98.6698 37.3821 98.9295 37.1096 99.1254 36.752C99.3298 36.3858 99.4319 35.96 99.4319 35.4747ZM106.364 31.8471C106.918 31.8471 107.412 31.9621 107.846 32.192C108.289 32.4219 108.634 32.7625 108.881 33.2138C109.127 33.6652 109.251 34.2101 109.251 34.8488V39H107.808V35.0659C107.808 34.4358 107.65 33.9547 107.335 33.6226C107.02 33.282 106.59 33.1117 106.045 33.1117C105.5 33.1117 105.066 33.282 104.742 33.6226C104.427 33.9547 104.269 34.4358 104.269 35.0659V39H102.813V31.9621H104.269V32.7668C104.508 32.4773 104.81 32.2516 105.176 32.0898C105.551 31.928 105.947 31.8471 106.364 31.8471ZM110.623 35.4491C110.623 34.7423 110.768 34.1165 111.057 33.5715C111.355 33.0265 111.755 32.605 112.258 32.307C112.769 32.0004 113.335 31.8471 113.957 31.8471C114.417 31.8471 114.868 31.9493 115.311 32.1537C115.762 32.3495 116.12 32.6135 116.384 32.9456V29.548H117.852V39H116.384V37.9398C116.145 38.2805 115.813 38.5615 115.387 38.7829C114.97 39.0043 114.489 39.115 113.944 39.115C113.331 39.115 112.769 38.9617 112.258 38.6551C111.755 38.3401 111.355 37.9058 111.057 37.3523C110.768 36.7903 110.623 36.1559 110.623 35.4491ZM116.384 35.4747C116.384 34.9893 116.281 34.5678 116.077 34.2101C115.881 33.8525 115.621 33.58 115.298 33.3927C114.974 33.2053 114.625 33.1117 114.25 33.1117C113.876 33.1117 113.527 33.2053 113.203 33.3927C112.88 33.5715 112.616 33.8397 112.411 34.1974C112.215 34.5465 112.117 34.9637 112.117 35.4491C112.117 35.9345 112.215 36.3603 112.411 36.7264C112.616 37.0926 112.88 37.3736 113.203 37.5694C113.535 37.7568 113.884 37.8504 114.25 37.8504C114.625 37.8504 114.974 37.7568 115.298 37.5694C115.621 37.3821 115.881 37.1096 116.077 36.752C116.281 36.3858 116.384 35.96 116.384 35.4747ZM126.008 39.0894C125.412 39.0894 124.875 38.9872 124.399 38.7829C123.922 38.57 123.547 38.2719 123.275 37.8888C123.002 37.5056 122.866 37.0585 122.866 36.5476H124.424C124.458 36.9308 124.607 37.2458 124.871 37.4928C125.144 37.7397 125.523 37.8632 126.008 37.8632C126.51 37.8632 126.902 37.744 127.183 37.5056C127.464 37.2586 127.605 36.9436 127.605 36.5604C127.605 36.2623 127.515 36.0196 127.336 35.8323C127.166 35.645 126.949 35.5002 126.685 35.398C126.429 35.2958 126.072 35.1851 125.612 35.0659C125.033 34.9127 124.56 34.7594 124.194 34.6061C123.837 34.4443 123.53 34.1974 123.275 33.8653C123.019 33.5332 122.891 33.0904 122.891 32.5369C122.891 32.026 123.019 31.5789 123.275 31.1957C123.53 30.8125 123.888 30.5187 124.348 30.3144C124.807 30.11 125.34 30.0078 125.944 30.0078C126.804 30.0078 127.507 30.225 128.052 30.6593C128.605 31.085 128.912 31.6726 128.971 32.4219H127.362C127.336 32.0983 127.183 31.8216 126.902 31.5917C126.621 31.3618 126.251 31.2468 125.791 31.2468C125.374 31.2468 125.033 31.3532 124.769 31.5661C124.505 31.779 124.373 32.0856 124.373 32.4858C124.373 32.7583 124.454 32.9839 124.616 33.1628C124.786 33.3331 124.999 33.4693 125.254 33.5715C125.51 33.6737 125.859 33.7844 126.302 33.9036C126.889 34.0654 127.366 34.2272 127.732 34.389C128.107 34.5507 128.422 34.802 128.678 35.1426C128.942 35.4747 129.074 35.9217 129.074 36.4837C129.074 36.935 128.95 37.3608 128.703 37.761C128.465 38.1612 128.111 38.4848 127.643 38.7318C127.183 38.9702 126.638 39.0894 126.008 39.0894ZM137.242 35.3086C137.242 35.5726 137.225 35.811 137.191 36.0239H131.814C131.856 36.5859 132.065 37.0372 132.439 37.3778C132.814 37.7184 133.274 37.8888 133.819 37.8888C134.602 37.8888 135.156 37.5609 135.479 36.9052H137.05C136.838 37.5524 136.45 38.0846 135.888 38.5019C135.335 38.9106 134.645 39.115 133.819 39.115C133.146 39.115 132.542 38.9659 132.005 38.6679C131.477 38.3614 131.06 37.9356 130.753 37.3906C130.455 36.8371 130.306 36.1985 130.306 35.4747C130.306 34.7509 130.451 34.1165 130.741 33.5715C131.039 33.018 131.452 32.5922 131.98 32.2942C132.516 31.9962 133.129 31.8471 133.819 31.8471C134.483 31.8471 135.075 31.9919 135.594 32.2814C136.114 32.5709 136.518 32.9797 136.808 33.5076C137.097 34.0271 137.242 34.6274 137.242 35.3086ZM135.722 34.8488C135.714 34.3123 135.522 33.8823 135.147 33.5587C134.773 33.2351 134.308 33.0733 133.755 33.0733C133.253 33.0733 132.823 33.2351 132.465 33.5587C132.107 33.8738 131.894 34.3038 131.826 34.8488H135.722ZM138.19 35.4747C138.19 34.7509 138.334 34.1165 138.624 33.5715C138.922 33.018 139.331 32.5922 139.85 32.2942C140.37 31.9962 140.966 31.8471 141.638 31.8471C142.49 31.8471 143.192 32.0515 143.746 32.4602C144.308 32.8605 144.687 33.4352 144.883 34.1846H143.312C143.184 33.8355 142.979 33.563 142.698 33.3671C142.417 33.1713 142.064 33.0733 141.638 33.0733C141.042 33.0733 140.565 33.2862 140.208 33.712C139.859 34.1292 139.684 34.7168 139.684 35.4747C139.684 36.2325 139.859 36.8243 140.208 37.2501C140.565 37.6759 141.042 37.8888 141.638 37.8888C142.481 37.8888 143.039 37.5183 143.312 36.7775H144.883C144.678 37.4928 144.295 38.0633 143.733 38.4891C143.171 38.9063 142.473 39.115 141.638 39.115C140.966 39.115 140.37 38.9659 139.85 38.6679C139.331 38.3614 138.922 37.9356 138.624 37.3906C138.334 36.8371 138.19 36.1985 138.19 35.4747ZM152.707 31.9621V39H151.251V38.1698C151.021 38.4593 150.719 38.6892 150.344 38.8595C149.978 39.0213 149.587 39.1022 149.169 39.1022C148.616 39.1022 148.118 38.9872 147.675 38.7573C147.241 38.5274 146.896 38.1868 146.64 37.7355C146.393 37.2842 146.27 36.7392 146.27 36.1005V31.9621H147.713V35.8834C147.713 36.5135 147.871 36.9989 148.186 37.3395C148.501 37.6716 148.931 37.8377 149.476 37.8377C150.021 37.8377 150.451 37.6716 150.766 37.3395C151.09 36.9989 151.251 36.5135 151.251 35.8834V31.9621H152.707ZM156.085 32.9839C156.298 32.6263 156.579 32.3495 156.928 32.1537C157.285 31.9493 157.707 31.8471 158.192 31.8471V33.3543H157.822C157.251 33.3543 156.817 33.4991 156.519 33.7886C156.23 34.0781 156.085 34.5806 156.085 35.2958V39H154.629V31.9621H156.085V32.9839ZM160.272 31.0297C160.008 31.0297 159.786 30.9403 159.607 30.7614C159.429 30.5826 159.339 30.3612 159.339 30.0972C159.339 29.8333 159.429 29.6119 159.607 29.433C159.786 29.2542 160.008 29.1648 160.272 29.1648C160.527 29.1648 160.744 29.2542 160.923 29.433C161.102 29.6119 161.191 29.8333 161.191 30.0972C161.191 30.3612 161.102 30.5826 160.923 30.7614C160.744 30.9403 160.527 31.0297 160.272 31.0297ZM160.987 31.9621V39H159.531V31.9621H160.987ZM164.598 33.15V37.0457C164.598 37.3097 164.657 37.5013 164.776 37.6205C164.904 37.7312 165.117 37.7866 165.415 37.7866H166.309V39H165.16C164.504 39 164.001 38.8467 163.652 38.5402C163.303 38.2336 163.129 37.7355 163.129 37.0457V33.15H162.298V31.9621H163.129V30.2122H164.598V31.9621H166.309V33.15H164.598ZM173.987 31.9621L169.669 42.3082H168.162L169.593 38.885L166.821 31.9621H168.443L170.423 37.3267L172.479 31.9621H173.987Z" fill="#191A1F"/>
</g>
<defs>
<filter id="filter0_dd_5494_31783" x="0.916967" y="0.402324" width="205.963" height="75.4942" filterUnits="userSpaceOnUse" color-interpolation-filters="sRGB">
<feFlood flood-opacity="0" result="BackgroundImageFix"/>
<feColorMatrix in="SourceAlpha" type="matrix" values="0 0 0 0 0 0 0 0 0 0 0 0 0 0 0 0 0 0 127 0" result="hardAlpha"/>
<feOffset dy="3.64942"/>
<feGaussianBlur stdDeviation="9.12355"/>
<feComposite in2="hardAlpha" operator="out"/>
<feColorMatrix type="matrix" values="0 0 0 0 0 0 0 0 0 0 0 0 0 0 0 0 0 0 0.08 0"/>
<feBlend mode="normal" in2="BackgroundImageFix" result="effect1_dropShadow_5494_31783"/>
<feColorMatrix in="SourceAlpha" type="matrix" values="0 0 0 0 0 0 0 0 0 0 0 0 0 0 0 0 0 0 127 0" result="hardAlpha"/>
<feOffset/>
<feGaussianBlur stdDeviation="0.456177"/>
<feComposite in2="hardAlpha" operator="out"/>
<feColorMatrix type="matrix" values="0 0 0 0 0.262745 0 0 0 0 1 0 0 0 0 0.572549 0 0 0 0.08 0"/>
<feBlend mode="normal" in2="effect1_dropShadow_5494_31783" result="effect2_dropShadow_5494_31783"/>
<feBlend mode="normal" in="SourceGraphic" in2="effect2_dropShadow_5494_31783" result="shape"/>
</filter>
<clipPath id="clip0_5494_31783">
<rect width="18" height="18" fill="white" transform="translate(32.8984 25.5)"/>
</clipPath>
</defs>
</svg>
